<?xml version="1.0" standalone="no"?>
<!DOCTYPE svg PUBLIC "-//W3C//DTD SVG 1.1//EN" "http://www.w3.org/Graphics/SVG/1.1/DTD/svg11.dtd" >
<svg xmlns="http://www.w3.org/2000/svg" xmlns:xlink="http://www.w3.org/1999/xlink" version="1.1">
<metadata>
Created by FontForge 20201107 at Wed Aug  7 21:37:52 2013
 By 
Copyright (c) 2013, Natanael Gama (www.ndiscovered.com . info(at)ndiscovered.com), with Reserved Font Name Exo. This Font Software is licensed under the SIL Open Font License, Version 1.1.
</metadata>
<defs>
<font id="Exo2-SemiBoldItalic" horiz-adv-x="581" >
  <font-face 
    font-family="Exo 2 Semi Bold"
    font-weight="600"
    font-style="italic"
    font-stretch="normal"
    units-per-em="1000"
    panose-1="0 0 7 0 0 0 0 0 0 0"
    ascent="800"
    descent="-200"
    x-height="490"
    cap-height="690"
    bbox="-218 -287 1235.17 945"
    underline-thickness="50"
    underline-position="-100"
    slope="-8"
    unicode-range="U+0020-FB02"
  />
<missing-glyph horiz-adv-x="600" 
 />
    <glyph glyph-name=".notdef" horiz-adv-x="600" 
 />
    <glyph glyph-name=".null" horiz-adv-x="0" 
 />
    <glyph glyph-name="nonmarkingreturn" horiz-adv-x="333" 
 />
    <glyph glyph-name="space" unicode=" " horiz-adv-x="220" 
 />
    <glyph glyph-name="exclam" unicode="!" horiz-adv-x="285" 
d="M218 410l-38 -194h-96l15 194l40 285h120zM103 137h29q48 0 39 -45l-6 -51q-4 -41 -46 -41h-28q-48 0 -42 46l8 51q4 40 46 40z" />
    <glyph glyph-name="quotedbl" unicode="&#x22;" horiz-adv-x="365" 
d="M169 472h-78l23 218h94zM324 472h-79l23 218h94z" />
    <glyph glyph-name="numbersign" unicode="#" horiz-adv-x="697" 
d="M556 435l-49 -157h110l-25 -74h-108l-64 -204h-94l64 204h-157l-64 -204h-94l64 204h-117l25 74h115l50 157h-116l26 75h113l57 180h94l-57 -180h157l57 180h94l-57 -180h112l-26 -75h-110zM463 435h-158l-49 -157h157z" />
    <glyph glyph-name="dollar" unicode="$" horiz-adv-x="567" 
d="M551 678l-13 -88q-138 3 -154 3l-45 -197l54 -19q76 -28 100.5 -74t14.5 -126q-15 -113 -71.5 -151t-192.5 -38h-7l-25 -110h-50l25 111q-96 6 -166 22l15 91l176 -4l45 201l-62 23q-72 27 -98 75.5t-16 123.5q16 110 74 145.5t181 35.5h23l21 94h51l-22 -96
q76 -5 142 -22zM293 413l41 181q-31 0 -44.5 -0.5t-31.5 -4.5t-26 -13t-15 -24.5t-11 -40.5q-6 -43 5.5 -58t54.5 -30zM304 282l-42 -184q65 2 89.5 19t31.5 69q5 43 -6 59t-51 29z" />
    <glyph glyph-name="percent" unicode="%" horiz-adv-x="903" 
d="M253 703q95 0 128 -48t17 -162q-16 -112 -57 -156t-131 -44q-94 0 -127 48t-17 162q17 112 57.5 156t129.5 44zM239 0h-88l524 690h89zM255 631q-50 0 -68.5 -27.5t-30.5 -110.5q-11 -75 -0.5 -101.5t52.5 -26.5q52 0 70.5 27.5t30.5 110.5q11 75 -0.5 101.5t-53.5 26.5z
M705 399q95 0 128 -48t17 -162q-16 -112 -57 -156t-132 -44q-93 0 -126 48t-17 161q17 112 57.5 156.5t129.5 44.5zM707 327q-50 0 -69 -28t-30 -110q-11 -76 -0.5 -102.5t52.5 -26.5q52 0 70.5 27.5t30.5 110.5q11 75 0 102t-54 27z" />
    <glyph glyph-name="ampersand" unicode="&#x26;" horiz-adv-x="743" 
d="M712 311h-91q-16 -103 -55 -167q-94 -155 -325 -155q-119 0 -167 45t-37 146q19 166 160 176l1 5q-58 4 -81 47.5t-11 116.5q18 106 81 141t189 35q91 0 174 -21l-21 -90q-59 12 -148 12q-81 0 -111.5 -19.5t-40.5 -83.5q-9 -57 11 -77t82 -20h200q2 36 2 116h108
q1 -54 -2 -116h95zM513 311h-203q-68 0 -99 -25.5t-41 -91.5q-8 -56 10.5 -78t80.5 -22q141 0 204 93q33 45 48 124z" />
    <glyph glyph-name="quotesingle" unicode="'" horiz-adv-x="212" 
d="M169 472h-78l23 218h94z" />
    <glyph glyph-name="parenleft" unicode="(" horiz-adv-x="360" 
d="M388 791l14 -56q-99 -44 -156.5 -148t-81.5 -279q-23 -165 3 -269.5t110 -149.5l-16 -52q-137 49 -189 167.5t-25 312.5q28 196 110 310.5t231 163.5z" />
    <glyph glyph-name="parenright" unicode=")" horiz-adv-x="360" 
d="M89 736l16 53q137 -50 189.5 -168t24.5 -314q-28 -194 -110 -308.5t-231 -164.5l-14 56q190 90 238 428q23 168 -2.5 272t-110.5 146z" />
    <glyph glyph-name="asterisk" unicode="*" horiz-adv-x="449" 
d="M281 527l87 -129l-57 -41l-57 122l-90 -121l-53 40l122 128l12 165h71zM220 560l-4 -30l-17 -19l-121 32l27 65zM441 539l-126 -28l-13 19l2 30l124 47z" />
    <glyph glyph-name="plus" unicode="+" horiz-adv-x="543" 
d="M490 255h-178l-24 -171h-91l24 171h-179l13 90h178l24 171h92l-25 -171h179z" />
    <glyph glyph-name="comma" unicode="," horiz-adv-x="238" 
d="M83 137h31q24 0 33.5 -10.5t5.5 -34.5l-8 -64q-12 -84 -67 -170l-56 19q30 97 36 125q-20 -1 -29 9t-7 29l8 56q5 24 15.5 32.5t37.5 8.5z" />
    <glyph glyph-name="hyphen" unicode="-" horiz-adv-x="427" 
d="M352 211h-300l12 86h300z" />
    <glyph glyph-name="period" unicode="." horiz-adv-x="235" 
d="M76 137h36q46 0 40 -45l-7 -51q-4 -41 -46 -41h-36q-47 0 -41 46l8 51q4 40 46 40z" />
    <glyph glyph-name="slash" unicode="/" horiz-adv-x="542" 
d="M74 -69h-100l500 759h100z" />
    <glyph glyph-name="zero" unicode="0" horiz-adv-x="614" 
d="M357 703q140 0 188 -85.5t21 -277.5q-27 -193 -93.5 -273t-201.5 -80q-138 0 -187 84.5t-21 278.5q26 193 92.5 273t201.5 80zM354 598q-77 0 -114 -55.5t-56 -200.5q-21 -143 -2.5 -196.5t90.5 -53.5q78 0 115.5 55.5t57.5 200.5q21 143 1.5 196.5t-92.5 53.5z" />
    <glyph glyph-name="one" unicode="1" horiz-adv-x="412" 
d="M269 0h-125l72 511q5 40 14 69l-167 -49l-4 89l182 70h125z" />
    <glyph glyph-name="two" unicode="2" horiz-adv-x="564" 
d="M105 581v97q119 24 220 24q109 0 162 -34t43 -126q-7 -61 -38 -112t-106 -123l-207 -195q40 6 103 6h212l-16 -118h-470l11 77q5 37 21 53l208 198q79 72 115.5 120t40.5 91q4 34 -17 44t-75 10q-100 0 -207 -12z" />
    <glyph glyph-name="three" unicode="3" horiz-adv-x="555" 
d="M110 590v95q116 18 202 18q116 0 163.5 -40.5t39.5 -124.5q-3 -40 -15.5 -76t-40.5 -65.5t-67 -32.5l-1 -4q121 -20 98 -170q-28 -197 -273 -203q-82 -3 -207 18l13 96q12 -1 67.5 -4.5t59 -2.5t58.5 1q140 9 158 117q9 49 -13 75t-85 27l-131 3l12 90h127q64 0 89.5 28
t31.5 81q5 48 -15 64t-95 16q-100 0 -176 -6z" />
    <glyph glyph-name="four" unicode="4" horiz-adv-x="622" 
d="M581 253l-12 -84l-88 -13h-2l-22 -156h-117l22 156h-250q-56 0 -79 41t4 86l238 407h124l-232 -403q-20 -34 13 -34h195l27 192l37 112h96l-42 -304h88z" />
    <glyph glyph-name="five" unicode="5" horiz-adv-x="539" 
d="M508 587h-280l-29 -148l77 -9q113 -12 164 -64t40 -150q-5 -42 -19.5 -78t-42.5 -70t-78 -55t-117 -25q-102 -5 -214 23l20 101q94 -20 167 -15q79 4 117 36t46 92q7 55 -23.5 77.5t-117.5 30.5l-88 8q-23 2 -36 19t-9 40l57 290h386z" />
    <glyph glyph-name="six" unicode="6" horiz-adv-x="576" 
d="M538 684l-13 -86q-49 2 -141 2q-93 0 -129.5 -40t-60.5 -169q73 63 163 63q96 0 139 -51.5t25 -175.5q-18 -125 -76 -182t-189 -57q-141 0 -181 78.5t-12 275.5q17 116 42 188.5t65.5 109.5t86.5 49.5t119 12.5t162 -18zM403 234q10 72 -4 97.5t-75 25.5q-69 0 -148 -69
q-18 -118 -1 -158t88 -40q38 0 63 8.5t40.5 28.5t23 44t13.5 63z" />
    <glyph glyph-name="seven" unicode="7" horiz-adv-x="519" 
d="M85 690h402q36 0 49 -21t-2 -54l-298 -615h-125l257 529q14 32 34 57h-326z" />
    <glyph glyph-name="eight" unicode="8" horiz-adv-x="608" 
d="M181 359l1 4q-96 11 -76 160q13 97 65.5 138t181.5 40q134 0 179 -44t31 -144q-21 -142 -122 -154l-1 -4q115 -12 90 -188q-13 -96 -68.5 -137t-193.5 -42q-133 0 -186.5 46t-41.5 143q12 82 43.5 129t97.5 53zM345 606q-72 0 -96 -21.5t-33 -84.5q-8 -57 12.5 -76
t94.5 -19q69 0 93.5 21.5t32.5 82.5q9 58 -10.5 77.5t-93.5 19.5zM303 311q-76 -1 -103.5 -22.5t-37.5 -94.5q-9 -61 13.5 -82t102.5 -21q73 0 102 24t37 89q10 65 -11.5 86t-102.5 21z" />
    <glyph glyph-name="nine" unicode="9" horiz-adv-x="576" 
d="M40 6l15 87q77 -3 151 -2q93 2 131 46t61 165q-67 -67 -157 -67q-194 0 -169 229q15 131 77.5 184.5t186.5 53.5q139 0 180.5 -75t10.5 -279q-22 -147 -60.5 -225t-97 -106.5t-158.5 -28.5q-92 0 -171 18zM269 332q40 0 72 15t74 55q19 119 2.5 158.5t-90.5 39.5
q-72 0 -101 -31t-39 -110q-8 -69 9 -98t73 -29z" />
    <glyph glyph-name="colon" unicode=":" horiz-adv-x="250" 
d="M113 446h36q47 0 40 -45l-6 -51q-6 -41 -47 -41h-35q-48 0 -42 46l8 51q6 40 46 40zM70 137h36q46 0 40 -45l-7 -51q-4 -41 -46 -41h-36q-47 0 -41 46l8 51q4 40 46 40z" />
    <glyph glyph-name="semicolon" unicode=";" horiz-adv-x="254" 
d="M127 446h35q47 0 41 -45l-7 -51q-6 -41 -46 -41h-36q-48 0 -41 46l7 51q6 40 47 40zM92 137h31q24 0 33.5 -10.5t5.5 -34.5l-8 -64q-12 -84 -67 -170l-56 19q30 97 36 125q-20 -1 -29 9t-7 29l8 56q5 24 15.5 32.5t37.5 8.5z" />
    <glyph glyph-name="less" unicode="&#x3c;" horiz-adv-x="519" 
d="M475 415l-327 -118l293 -121l-13 -93l-390 169l13 95l438 167z" />
    <glyph glyph-name="equal" unicode="=" horiz-adv-x="582" 
d="M525 356h-450l12 89h450zM496 145h-451l13 89h450z" />
    <glyph glyph-name="greater" unicode="&#x3e;" horiz-adv-x="520" 
d="M484 347l-14 -95l-437 -167l13 99l328 121l-293 120l12 91z" />
    <glyph glyph-name="question" unicode="?" horiz-adv-x="505" 
d="M83 604v85q5 1 23 4.5t22.5 4t19.5 3.5t22 3.5t21.5 2.5t25.5 2.5t27 1.5t33 1h37q103 0 153 -40t39 -120q-5 -40 -27.5 -74t-52 -60t-59 -53t-55 -65.5t-34.5 -85.5h-100q6 49 26.5 92t47 72.5t52.5 55t46 52t24 51.5q7 44 -12.5 59t-76.5 15q-85 0 -202 -7zM201 137h28
q47 0 41 -45l-7 -51q-4 -41 -46 -41h-29q-48 0 -41 46l7 50q6 41 47 41z" />
    <glyph glyph-name="at" unicode="@" horiz-adv-x="789" 
d="M101 557l9 86q148 8 324 10q74 1 121 -3t87 -17.5t59.5 -35.5t30.5 -60.5t10 -90t-12 -126.5q-24 -195 -72.5 -261.5t-164.5 -66.5q-114 0 -131 93q-75 -97 -181 -97q-85 0 -119.5 56t-12.5 187q12 72 32 118t52 68.5t65.5 30t85.5 7.5q88 0 239 -28l-47 -297
q-2 -22 4 -31.5t24 -9.5q52 0 73.5 49t40.5 190q5 36 8.5 61.5t3.5 49v38.5t-6.5 29t-11.5 21.5t-20 14t-26 9t-36.5 4.5t-44 2h-54.5h-330zM396 361l-77 2q-86 0 -113 -23.5t-42 -115.5q-13 -91 -3.5 -114t50.5 -23t75.5 23t80.5 78z" />
    <glyph glyph-name="A" unicode="A" horiz-adv-x="634" 
d="M437 194h-258l-83 -194h-131l300 659q10 31 46 31h123q16 0 27.5 -10.5t12.5 -25.5l117 -654h-125zM421 300l-35 234l-6 63h-30q-8 -21 -25 -62l-101 -235h197z" />
    <glyph glyph-name="B" unicode="B" horiz-adv-x="626" 
d="M35 0l97 690q85 8 238 8q130 0 180.5 -40t35.5 -145q-11 -74 -43 -111t-96 -43l-1 -5q140 -11 114 -187q-15 -104 -68.5 -139.5t-175.5 -35.5q-185 0 -281 8zM215 403h122q64 0 92 21.5t36 81.5q8 56 -13 73.5t-88 17.5h-122zM171 94l125 -1q74 0 103.5 21.5t38.5 85.5
q9 66 -13 88.5t-93 23.5h-130z" />
    <glyph glyph-name="C" unicode="C" horiz-adv-x="574" 
d="M503 108l6 -95q-84 -25 -212 -25q-153 0 -208.5 85.5t-28.5 276.5q27 197 98 274.5t225 77.5q114 0 199 -23l-18 -94q-87 7 -184 7q-60 0 -94 -19.5t-57.5 -74t-37.5 -158.5q-20 -139 3 -190t106 -52q110 -1 203 10z" />
    <glyph glyph-name="D" unicode="D" horiz-adv-x="669" 
d="M35 0l97 690q124 9 233 9q168 0 227 -78.5t31 -280.5q-13 -92 -32.5 -154t-45.5 -101t-67.5 -59.5t-87 -27.5t-115.5 -7q-100 0 -240 9zM244 594l-70 -496q76 -2 100 -2q75 0 113.5 17.5t63.5 71.5t41 165q9 65 10.5 106.5t-4.5 70t-24.5 43t-44 20t-68.5 5.5z" />
    <glyph glyph-name="E" unicode="E" horiz-adv-x="565" 
d="M556 588h-266q-30 0 -43.5 -13t-17.5 -47l-17 -121h281l-12 -93h-281l-22 -155q-4 -32 7 -44.5t42 -12.5h260l-3 -96q-85 -8 -282 -8q-85 0 -123 41t-28 115l57 410q8 61 49 94.5t111 33.5q215 0 304 -9z" />
    <glyph glyph-name="F" unicode="F" horiz-adv-x="544" 
d="M550 588h-247q-37 0 -51.5 -12t-18.5 -48l-19 -134h272l-13 -93h-272l-42 -301h-126l78 558q20 134 160 134q209 0 296 -10z" />
    <glyph glyph-name="G" unicode="G" horiz-adv-x="631" 
d="M468 400h120l-56 -400h-90l-3 88q-86 -101 -211 -101q-104 0 -146.5 87t-21.5 276q14 109 41.5 179.5t72.5 108t97.5 51.5t129.5 14q118 0 203 -24l-17 -92q-96 6 -176 6q-76 0 -116 -18.5t-65 -72.5t-39 -162q-15 -138 3 -191t82 -53q45 0 79.5 20t82.5 67z" />
    <glyph glyph-name="H" unicode="H" horiz-adv-x="675" 
d="M654 690l-97 -690h-125l44 315h-270l-45 -315h-126l97 690h126l-38 -271h271l38 271h125z" />
    <glyph glyph-name="I" unicode="I" horiz-adv-x="279" 
d="M161 0h-126l97 690h126z" />
    <glyph glyph-name="J" unicode="J" horiz-adv-x="352" 
d="M334 690l-76 -540q-11 -79 -52 -120t-107 -41q-69 0 -112 18l23 86h43q71 0 81 65l74 532h126z" />
    <glyph glyph-name="K" unicode="K" horiz-adv-x="613" 
d="M369 358l-1 -5q22 -22 40 -60l154 -293h-140l-158 311h-67q2 -37 -3 -70l-33 -241h-126l97 690h126l-30 -207q-8 -50 -16 -76h64l223 283h149l-224 -283q-26 -32 -55 -49z" />
    <glyph glyph-name="L" unicode="L" horiz-adv-x="517" 
d="M255 690l-74 -530q-4 -28 6.5 -42t41.5 -14h240l-3 -98q-86 -8 -272 -8q-74 0 -111.5 40.5t-26.5 117.5l73 534h126z" />
    <glyph glyph-name="M" unicode="M" horiz-adv-x="892" 
d="M676 690h129q24 0 35.5 -13.5t9.5 -37.5l-62 -639h-122l62 589h-18l-183 -461q-16 -40 -56 -40h-96q-42 0 -49 44l-60 457h-19l-102 -589h-122l116 643q7 47 52 47h126q40 0 45 -44l51 -374q6 -41 8 -95h16q13 41 34 92l149 381q16 39 56 40z" />
    <glyph glyph-name="N" unicode="N" horiz-adv-x="712" 
d="M692 690l-92 -646q-6 -44 -48 -44h-91q-33 0 -47 40l-145 423q-19 53 -28 101h-12q-1 -44 -8 -101l-63 -463h-123l91 646q6 44 49 44h90q33 0 47 -40l140 -411q25 -76 34 -109h14q1 54 9 108l61 452h122z" />
    <glyph glyph-name="O" unicode="O" horiz-adv-x="672" 
d="M387 703q151 0 209 -82.5t31 -280.5q-27 -201 -99 -277t-225 -76t-211.5 81t-31.5 282q27 197 99 275t228 78zM382 596q-91 0 -130 -52.5t-61 -203.5q-20 -142 4 -194t111 -52q88 0 128.5 54t61.5 202q22 145 -2.5 195.5t-111.5 50.5z" />
    <glyph glyph-name="P" unicode="P" horiz-adv-x="597" 
d="M35 0l97 690q89 9 244 9q130 0 179 -51.5t32 -174.5q-19 -133 -72 -175.5t-182 -42.5q-73 0 -136 9l-37 -264h-125zM210 357h117q71 0 98 25t38 100q10 68 -10 91t-81 23h-128z" />
    <glyph glyph-name="Q" unicode="Q" horiz-adv-x="672" 
d="M387 703q151 0 209 -82.5t31 -280.5q-27 -201 -99 -277t-225 -76t-211.5 81t-31.5 282q27 197 99 275t228 78zM382 596q-91 0 -130 -52.5t-61 -203.5q-20 -142 4 -194t111 -52q88 0 128.5 54t61.5 202q22 145 -2.5 195.5t-111.5 50.5zM196 -110l44 71q119 -50 280 -75
l-49 -120q-152 41 -275 124z" />
    <glyph glyph-name="R" unicode="R" horiz-adv-x="629" 
d="M35 0l97 690q89 9 245 9q119 0 175.5 -47t41.5 -160q-10 -75 -46 -117.5t-109 -51.5l-1 -6q64 -16 79 -103l41 -214h-128l-37 216q-6 34 -21 47t-46 13l-129 1l-39 -277h-123zM211 379h122q67 1 96 25.5t39 89.5q8 59 -12 80.5t-82 21.5h-132z" />
    <glyph glyph-name="S" unicode="S" horiz-adv-x="568" 
d="M326 274l-132 48q-72 27 -98 75.5t-16 123.5q16 110 74 145.5t181 35.5q128 0 216 -24l-13 -88q-118 4 -202 4q-32 0 -45.5 -0.5t-32.5 -4.5t-27 -13t-15 -24.5t-11 -40.5q-6 -43 5.5 -58t54.5 -30l128 -46q77 -28 101.5 -74t13.5 -126q-15 -113 -71.5 -151t-192.5 -38
q-114 0 -224 23l14 91q175 -4 205 -4q81 0 109 16t35 72q6 43 -5.5 58.5t-51.5 29.5z" />
    <glyph glyph-name="T" unicode="T" horiz-adv-x="584" 
d="M607 583h-212l-82 -583h-125l82 583h-211l15 107h548z" />
    <glyph glyph-name="U" unicode="U" horiz-adv-x="668" 
d="M653 690l-60 -422q-22 -154 -88 -217.5t-202 -63.5q-140 0 -198 67t-37 219l58 417h126l-59 -422q-14 -100 9 -137t99 -37q79 0 116 39.5t52 139.5l58 417h126z" />
    <glyph glyph-name="V" unicode="V" horiz-adv-x="619" 
d="M664 690l-290 -658q-14 -32 -46 -32h-117q-16 0 -27.5 10.5t-13.5 26.5l-106 653h127l67 -519q6 -52 8 -78h25q10 39 29 81l211 516h133z" />
    <glyph glyph-name="W" unicode="W" horiz-adv-x="955" 
d="M984 690l-213 -657q-11 -33 -48 -33h-128q-17 0 -29.5 11.5t-13.5 27.5l-21 479q0 9 -1 25t-1.5 29.5t-0.5 25.5h-20q-8 -32 -24 -83l-153 -481q-11 -34 -48 -34h-127q-17 0 -30 11t-14 27l-31 652h127l10 -505q1 -43 0 -94h22q5 20 29 99l148 463q13 37 50 37h119
q18 0 29 -12t12 -30l27 -464q4 -62 3 -93h22q9 38 26 97l149 502h130z" />
    <glyph glyph-name="X" unicode="X" horiz-adv-x="623" 
d="M434 355l133 -355h-127l-109 312h-19l-196 -312h-142l234 355l-121 335h126l98 -288h20l186 288h135z" />
    <glyph glyph-name="Y" unicode="Y" horiz-adv-x="586" 
d="M344 232l-32 -232h-126l34 238l-161 452h127l87 -270q13 -38 16 -84h10q9 38 38 87l163 267h136z" />
    <glyph glyph-name="Z" unicode="Z" horiz-adv-x="570" 
d="M562 588l-406 -486h345l-14 -102h-484l14 102l406 486h-332l15 102h471z" />
    <glyph glyph-name="bracketleft" unicode="[" horiz-adv-x="335" 
d="M356 691h-85q-20 0 -23 -20l-105 -743q-1 -16 12 -16h92l-11 -77h-149q-31 0 -48.5 17t-12.5 52l112 799q5 30 24.5 47.5t49.5 17.5h155z" />
    <glyph glyph-name="backslash" unicode="\" horiz-adv-x="526" 
d="M456 -69h-92l-289 759h92z" />
    <glyph glyph-name="bracketright" unicode="]" horiz-adv-x="335" 
d="M102 768h148q30 0 48 -20t14 -49l-113 -799q-4 -29 -24 -47t-49 -18h-155l10 77h85q8 0 15.5 5.5t8.5 14.5l105 743q1 16 -13 16h-92z" />
    <glyph glyph-name="asciicircum" unicode="^" horiz-adv-x="446" 
d="M438 397l-50 -28l-115 170h-8l-168 -170l-46 28l179 219h88z" />
    <glyph glyph-name="underscore" unicode="_" horiz-adv-x="569" 
d="M451 -86h-441l13 86h441z" />
    <glyph glyph-name="grave" unicode="`" horiz-adv-x="337" 
d="M320 583l-41 -53l-210 117l60 84z" />
    <glyph glyph-name="a" unicode="a" 
d="M474 0h-96l3 85q-83 -96 -205 -97q-90 -1 -122.5 59t-12.5 206q12 83 33.5 134.5t56.5 76.5t70.5 32.5t92.5 7.5q127 0 247 -29zM409 406l-89 1q-46 0 -70 -4.5t-42.5 -22t-27 -47.5t-16.5 -86q-14 -103 -5.5 -130t49.5 -27q42 0 81 23.5t89 73.5z" />
    <glyph glyph-name="b" unicode="b" horiz-adv-x="582" 
d="M243 700l-25 -191q-10 -71 -26 -110q45 44 99.5 74t103.5 30q88 0 120 -57.5t12 -206.5q-11 -78 -31 -129t-52.5 -77.5t-69 -36t-89.5 -9.5q-57 0 -132.5 11t-124.5 27l95 675h120zM189 308l-32 -224q82 -2 91 -2q46 0 69.5 5t42.5 23.5t27.5 49t16.5 87.5q13 101 4 127
t-48 26q-30 0 -76 -24.5t-95 -67.5z" />
    <glyph glyph-name="c" unicode="c" horiz-adv-x="494" 
d="M421 98l8 -81q-76 -29 -181 -29q-132 0 -181 61t-29 201t80 197t188 57q106 0 172 -29l-17 -74q-102 2 -137 2q-80 0 -113.5 -31.5t-45.5 -128.5q-12 -98 9 -126.5t96 -28.5q84 0 151 10z" />
    <glyph glyph-name="d" unicode="d" 
d="M572 700l-98 -700h-96l3 94q-102 -106 -213 -106q-78 0 -112.5 60.5t-14.5 204.5q12 81 32.5 132.5t51.5 76.5t63 33.5t79 8.5q76 0 159 -13q2 48 7 94l17 115h122zM409 409l-92 1q-59 0 -86 -10.5t-42 -43.5t-25 -109q-13 -96 -4.5 -126t48.5 -29q41 0 78.5 21.5
t91.5 71.5z" />
    <glyph glyph-name="e" unicode="e" horiz-adv-x="548" 
d="M455 99l8 -79q-77 -32 -208 -32t-182 66.5t-33 203.5q19 141 79 193.5t198 52.5q122 0 164.5 -41.5t31.5 -121.5q-10 -72 -56 -104t-141 -38l-155 -13q1 -58 28 -78.5t82 -20.5q83 0 184 12zM168 268l140 12q42 3 61.5 18.5t24.5 53.5q3 38 -15 47t-77 9
q-66 -1 -93 -28.5t-41 -111.5z" />
    <glyph glyph-name="f" unicode="f" horiz-adv-x="392" 
d="M447 624h-92q-44 0 -62 -14t-25 -57l-9 -63h143l-12 -88h-143l-65 -452q-21 -146 -166 -146q-58 0 -130 9l20 86h70q44 0 62.5 14t25.5 56l61 433h-87l11 83l89 5l11 83q21 146 167 146q90 0 151 -9z" />
    <glyph glyph-name="g" unicode="g" horiz-adv-x="582" 
d="M542 475l-63 -450q-26 -232 -301 -232q-104 0 -167 23l11 77q72 -2 148 -2q162 0 187 102q1 5 6 25t8 29.5t9.5 25.5t14.5 29q-38 -50 -95 -81t-126 -32q-83 -1 -118 58.5t-14 205.5q10 67 26.5 114t36.5 73.5t49.5 41t56 18.5t66.5 4q144 0 265 -29zM411 406l-92 1
q-85 0 -111.5 -27t-42.5 -133q-13 -101 -4 -129.5t48 -27.5q43 1 81.5 24t88.5 73z" />
    <glyph glyph-name="h" unicode="h" horiz-adv-x="587" 
d="M245 700l-24 -183q-10 -70 -25 -120q120 107 219 107q64 0 96.5 -36t22.5 -102l-52 -366h-121l46 334q5 40 -2 53.5t-33 13.5q-38 0 -78.5 -22.5t-104.5 -72.5l-42 -306h-121l98 700h121z" />
    <glyph glyph-name="i" unicode="i" horiz-adv-x="262" 
d="M159 703h55q18 0 26.5 -10t6.5 -27l-7 -55q-6 -33 -38 -33h-55q-38 0 -33 38l8 54q3 33 37 33zM151 0h-121l69 490h120z" />
    <glyph glyph-name="j" unicode="j" horiz-adv-x="263" 
d="M159 703h55q18 0 26.5 -10t6.5 -27l-7 -55q-6 -33 -38 -33h-55q-39 0 -33 38l8 54q3 33 37 33zM220 490l-69 -485q-8 -63 -44 -118.5t-91 -87.5l-66 57q68 68 81 155l68 479h121z" />
    <glyph glyph-name="k" unicode="k" horiz-adv-x="543" 
d="M399 490h124q-38 -133 -158 -220q18 -24 34 -60l92 -210h-129l-88 215q-35 -19 -102 -49l-25 -166h-121l98 700h122l-42 -313q-8 -60 -34 -123q199 105 229 226z" />
    <glyph glyph-name="l" unicode="l" horiz-adv-x="311" 
d="M246 700l-78 -550q-4 -31 6.5 -42.5t42.5 -11.5h44l5 -91q-32 -16 -103 -16q-63 0 -95 36t-24 101l81 574h121z" />
    <glyph glyph-name="m" unicode="m" horiz-adv-x="873" 
d="M188 490l-2 -97q108 111 205 111q55 0 85 -27t32 -75q54 54 100 78t95 24q65 0 95.5 -37t20.5 -101l-51 -366h-120l46 334q6 38 -4.5 52.5t-37.5 14.5q-31 0 -62.5 -19.5t-91.5 -75.5l-43 -306h-116l46 334q5 36 -4 51.5t-38 15.5q-32 0 -63.5 -19t-90.5 -72l-43 -310
h-120l69 490h93z" />
    <glyph glyph-name="n" unicode="n" horiz-adv-x="587" 
d="M191 490l-3 -101q124 115 228 115q62 0 94.5 -36t23.5 -102l-52 -366h-121l46 332q5 41 -2.5 55.5t-33.5 13.5q-38 0 -78 -22t-104 -72l-42 -307h-121l69 490h96z" />
    <glyph glyph-name="o" unicode="o" horiz-adv-x="573" 
d="M311 504q130 0 180.5 -61.5t30.5 -202.5q-19 -138 -80.5 -195.5t-189.5 -57.5q-129 0 -181 61t-33 201q20 139 81 197t192 58zM310 407q-69 0 -100 -34t-45 -133q-14 -92 4 -124t84 -32q69 0 100 34.5t44 130.5q13 94 -4.5 126t-82.5 32z" />
    <glyph glyph-name="p" unicode="p" horiz-adv-x="584" 
d="M191 490l-3 -98q46 46 102.5 78t106.5 32q58 0 89.5 -22.5t44.5 -81t-3 -160.5q-11 -81 -31.5 -133t-53 -77t-66 -33t-83.5 -8q-67 0 -151 13q0 -47 -7 -93l-16 -102h-122l97 685h96zM160 81l89 -1q88 0 114.5 27.5t41.5 135.5q13 103 4 130t-48 27q-29 0 -75.5 -25
t-94.5 -69z" />
    <glyph glyph-name="q" unicode="q" horiz-adv-x="578" 
d="M444 -195h-121l25 173q10 65 28 112q-98 -102 -207 -102q-80 0 -114.5 59.5t-13.5 203.5q11 79 31 130t51.5 77.5t66.5 36t87 9.5q148 0 261 -37zM378 184l31 223q-80 2 -93 2q-44 0 -67.5 -5t-41.5 -23t-26.5 -48t-16.5 -87q-13 -96 -4.5 -125t48.5 -29q41 0 78 21
t92 71z" />
    <glyph glyph-name="r" unicode="r" horiz-adv-x="410" 
d="M428 504l-28 -114h-32q-24 0 -53 -11.5t-53 -25t-73 -45.5l-42 -308h-121l69 490h93l-3 -104q118 118 215 118h28z" />
    <glyph glyph-name="s" unicode="s" horiz-adv-x="514" 
d="M275 178l-125 56q-57 26 -80 61t-17 87q8 68 58.5 95.5t154.5 26.5q117 -2 217 -18l-13 -83q-95 3 -196 3q-61 0 -81 -5t-23 -27q-3 -20 9 -30.5t47 -25.5l125 -56q62 -27 85 -58.5t16 -86.5q-5 -34 -18 -57t-31.5 -37t-49 -21.5t-61.5 -10t-77 -2.5q-38 0 -67 1.5
t-43.5 3t-43.5 5.5t-47 6l13 85q53 -4 152 -4q91 0 120.5 7.5t34.5 31.5q-1 6 0.5 9.5t-1.5 7.5t-3.5 6t-5 5t-6.5 5t-8 4.5t-10 4.5t-12 5.5t-13 5.5z" />
    <glyph glyph-name="t" unicode="t" horiz-adv-x="397" 
d="M245 402l-36 -252q-4 -32 5.5 -43t42.5 -11h69l5 -90q-51 -17 -124 -17q-67 0 -98.5 38t-21.5 107l38 268h-89l11 83l91 5l20 141h120l-20 -141h142l-11 -88h-144z" />
    <glyph glyph-name="u" unicode="u" horiz-adv-x="577" 
d="M537 490l-68 -490h-94l4 97q-116 -110 -218 -110q-68 0 -99 37t-21 101l51 365h121l-47 -333q-6 -37 3.5 -52t38.5 -15q37 0 72 21t95 73l42 306h120z" />
    <glyph glyph-name="v" unicode="v" horiz-adv-x="550" 
d="M413 490h127q-22 -122 -77 -268q-39 -102 -77 -154q-24 -37 -50.5 -52.5t-72.5 -15.5h-99q-32 0 -37 31l-88 459h128l57 -400h14q20 0 32.5 7t26.5 28q27 41 61 138q33 92 55 227z" />
    <glyph glyph-name="w" unicode="w" horiz-adv-x="872" 
d="M218 90h13q30 0 50 44q20 40 40 125q16 69 34 202q1 13 10.5 21t22.5 8h126q12 0 20 -7.5t10 -19.5l36 -373h11q23 0 42 39q30 55 57 135q28 89 47 226h125q-29 -146 -75 -267q-39 -102 -76 -157q-23 -35 -48.5 -50.5t-66.5 -15.5h-71q-15 0 -25 9t-12 23l-32 382h-13
q-8 -95 -29 -183q-24 -93 -51 -144q-24 -50 -58 -68.5t-81 -18.5h-67q-15 0 -25 9t-12 23l-80 459h126z" />
    <glyph glyph-name="x" unicode="x" horiz-adv-x="544" 
d="M370 252l119 -252h-120l-94 210h-16l-154 -210h-132l191 253l-109 237h119l83 -192h21l141 192h128z" />
    <glyph glyph-name="y" unicode="y" horiz-adv-x="560" 
d="M422 490h127q-48 -239 -139 -412q-78 -147 -159 -207.5t-195 -74.5l-19 82q65 15 112 40.5t90 81.5h-51q-23 0 -40 13.5t-21 35.5l-89 441h128l63 -384q3 -16 19 -16h46l13 27q81 175 115 373z" />
    <glyph glyph-name="z" unicode="z" horiz-adv-x="515" 
d="M483 397l-328 -304h289l-13 -93h-428l12 93l328 304h-280l12 93h420l-13 -93h1z" />
    <glyph glyph-name="braceleft" unicode="{" horiz-adv-x="330" 
d="M355 768l-4 -75q-47 0 -68.5 -16.5t-27.5 -57.5l-23 -163q-8 -65 -30.5 -92t-82.5 -37q53 -17 71 -45.5t10 -81.5l-31 -220q-5 -40 9 -55t61 -15l-4 -75q-101 -11 -146.5 27t-34.5 112l34 246q3 24 -2 36.5t-13.5 17t-35.5 14.5l10 82q39 11 51 22t18 53l26 189
q11 76 61 110.5t152 23.5z" />
    <glyph glyph-name="bar" unicode="|" horiz-adv-x="253" 
d="M104 -169h-86l133 950h87z" />
    <glyph glyph-name="braceright" unicode="}" horiz-adv-x="332" 
d="M98 693l4 75q103 11 147.5 -28t34.5 -111l-27 -189q-5 -40 1 -50t37 -19l9 -3l-11 -82q-28 -9 -38.5 -14.5t-20.5 -19t-13 -37.5l-34 -246q-10 -76 -59 -110.5t-155 -23.5l6 75q47 0 68 16t26 57l31 221q9 55 33 81.5t86 43.5q-54 10 -71.5 39t-7.5 92l23 163q6 40 -8 55
t-61 15z" />
    <glyph glyph-name="asciitilde" unicode="~" horiz-adv-x="516" 
d="M116 219l-58 4q0 68 26 102t64 32q36 -2 108.5 -27t89.5 -27q26 -3 37 9t16 42l57 -4q1 -67 -24 -100.5t-66 -31.5q-41 1 -112 26t-86 27q-26 4 -37 -8.5t-15 -43.5z" />
    <glyph glyph-name="uni00A0" unicode="&#xa0;" horiz-adv-x="220" 
 />
    <glyph glyph-name="exclamdown" unicode="&#xa1;" horiz-adv-x="270" 
d="M148 501h29q48 0 39 -46l-6 -51q-6 -40 -47 -40h-28q-47 0 -41 44l7 52q6 41 47 41zM167 91l-39 -281h-120l39 281l40 194h96z" />
    <glyph glyph-name="cent" unicode="&#xa2;" horiz-adv-x="510" 
d="M491 576l-17 -74q-74 2 -106 2l-73 -314q77 0 139 9l8 -81q-72 -27 -174 -29l-21 -89h-51l22 91q-106 9 -145 71t-21 190q20 140 79.5 196.5t187.5 56.5l23 -1l21 86h51l-22 -89q65 -9 99 -25zM244 191l73 313q-67 -3 -97 -36t-41 -124q-10 -84 3.5 -115.5t61.5 -37.5z
" />
    <glyph glyph-name="sterling" unicode="&#xa3;" horiz-adv-x="575" 
d="M562 692l-14 -98q-70 3 -174 3q-54 0 -77 -18t-27 -68l-8 -113h192l-13 -68h-183l-4 -58q-6 -66 -27.5 -103t-69.5 -71q26 7 70 7h277l-14 -105h-477l14 106q93 40 104 171l4 53h-77l9 68h73l10 122q9 110 59 146t156 36q88 0 197 -10z" />
    <glyph glyph-name="currency" unicode="&#xa4;" horiz-adv-x="591" 
d="M564 531l-78 -69q25 -50 16 -115q-9 -66 -46 -114l68 -75l-54 -50l-69 76q-51 -31 -119 -31q-67 0 -114 33l-76 -67l-49 56l77 69q-25 48 -16 113q9 66 47 117l-66 74l55 51l67 -77q49 30 116 30q68 0 115 -33l77 68zM284 220q61 0 101 36.5t47 99.5q6 60 -24.5 94.5
t-87.5 34.5q-60 0 -99.5 -36.5t-46.5 -99.5q-7 -60 23 -94.5t87 -34.5z" />
    <glyph glyph-name="yen" unicode="&#xa5;" horiz-adv-x="631" 
d="M430 333h117l-10 -68h-150l-21 -33l-2 -15h167l-10 -67h-166l-21 -150h-126l21 150h-164l9 67h165l3 21l-10 27h-150l8 68h118l-127 357h127l87 -270q13 -44 16 -84h10q9 41 37 87l164 267h136z" />
    <glyph glyph-name="brokenbar" unicode="&#xa6;" horiz-adv-x="254" 
d="M183 381h-88l57 400h87zM106 -169h-88l56 400h88z" />
    <glyph glyph-name="section" unicode="&#xa7;" horiz-adv-x="544" 
d="M321 315l-148 93q-47 30 -68.5 64.5t-12.5 95.5q11 80 63.5 107.5t157.5 27.5q130 -2 222 -12l-15 -92q-47 4 -174 5q-67 1 -93.5 -7.5t-31.5 -40.5q-4 -26 7 -42.5t37 -32.5l135 -81q68 -41 79 -100t-25 -142l-86 1q13 61 3.5 95.5t-50.5 60.5zM83 370l86 -2
q-14 -60 -5 -92t51 -58l149 -93q22 -13 35.5 -25t27 -30.5t18 -45t-0.5 -60.5q-12 -83 -63.5 -109.5t-157.5 -26.5q-135 2 -222 12l16 92q64 -4 172 -6q64 0 92.5 9t34.5 42q4 26 -6.5 42.5t-35.5 31.5l-134 80q-70 39 -82 96.5t25 142.5z" />
    <glyph glyph-name="dieresis" unicode="&#xa8;" horiz-adv-x="418" 
d="M340 703h38q33 0 27 -30l-9 -58q-3 -28 -31 -28h-42q-30 0 -27 28l9 58q4 30 35 30zM171 703h38q17 0 23 -7t4 -23l-9 -58q-3 -28 -31 -28h-42q-30 0 -27 28l9 58q4 30 35 30z" />
    <glyph glyph-name="copyright" unicode="&#xa9;" horiz-adv-x="821" 
d="M453 703q163 0 253.5 -101t71.5 -262q-19 -155 -127.5 -254t-270.5 -99q-164 0 -253 102.5t-69 260.5q19 154 126.5 253.5t268.5 99.5zM457 645q-135 0 -228 -85t-109 -220q-16 -133 56 -214t203 -81q134 0 227.5 85t109.5 220q15 130 -55 212.5t-204 82.5zM539 217
l5 -67q-64 -16 -135 -16q-119 0 -158 47t-22 170q16 119 66 164t163 45q63 0 125 -14l-11 -68q-65 3 -109 3q-75 0 -103 -24.5t-40 -112.5q-10 -78 6 -104.5t72 -26.5q70 -1 141 4z" />
    <glyph glyph-name="ordfeminine" unicode="&#xaa;" horiz-adv-x="447" 
d="M377 273h-72v50q-55 -57 -136 -57q-61 -1 -85.5 41t-12.5 137q7 57 22.5 92t40.5 50.5t48 20t60 4.5q103 0 180 -20zM325 540l-61 1q-57 0 -74 -16t-27 -85q-8 -64 -2 -80.5t31 -16.5q48 0 114 60z" />
    <glyph glyph-name="guillemotleft" unicode="&#xab;" horiz-adv-x="496" 
d="M268 419l-136 -168l98 -176l-60 -40l-138 208l2 26l182 193zM464 419l-136 -168l98 -176l-61 -40l-137 208l2 26l182 193z" />
    <glyph glyph-name="logicalnot" unicode="&#xac;" horiz-adv-x="583" 
d="M491 134h-92l17 121h-358l12 90h451z" />
    <glyph glyph-name="softhyphen" unicode="&#xad;" horiz-adv-x="427" 
d="M352 211h-301l12 86h301z" />
    <glyph glyph-name="registered" unicode="&#xae;" horiz-adv-x="538" 
d="M315 702q95 0 154 -59.5t48 -166.5q-11 -103 -75.5 -161t-164.5 -58q-103 0 -159.5 63.5t-44.5 164.5q11 100 76 158.5t166 58.5zM480 485q7 87 -38.5 135t-127.5 48q-89 0 -142 -52t-62 -137q-9 -89 37.5 -138t129.5 -49q88 0 141.5 51t61.5 142zM178 360l35 244
q35 3 109 3q48 0 72.5 -15t18.5 -61q-3 -24 -15 -37.5t-40 -20.5l-1 -2q18 -7 24 -37l18 -74h-56l-15 75q-4 13 -10 17.5t-18 4.5h-55l-14 -97h-53zM250 494h51q30 1 42.5 8t15.5 31q3 21 -5.5 27.5t-34.5 6.5h-59z" />
    <glyph glyph-name="macron" unicode="&#xaf;" horiz-adv-x="400" 
d="M395 601h-291l12 84h291z" />
    <glyph glyph-name="degree" unicode="&#xb0;" horiz-adv-x="354" 
d="M223 702q61 0 96 -38.5t30 -95.5q-6 -57 -45 -91.5t-97 -34.5q-62 0 -95.5 39.5t-28.5 96.5q5 55 43.5 89.5t96.5 34.5zM220 636q-28 0 -46.5 -16.5t-20.5 -44.5q-3 -30 13 -48t45 -18t47 16.5t20 45.5t-13 47t-45 18z" />
    <glyph glyph-name="plusminus" unicode="&#xb1;" horiz-adv-x="578" 
d="M530 411l-12 -90h-180l-18 -125h-90l17 125h-178l12 90h179l18 126h91l-18 -126h179zM44 145h449l-13 -90h-449z" />
    <glyph glyph-name="twosuperior" unicode="&#xb2;" horiz-adv-x="405" 
d="M121 696v71q71 14 139 14t104.5 -22t29.5 -79q-4 -35 -22 -64t-63 -69l-122 -106q22 5 61 5h126l-13 -86h-298l8 57q4 29 15 38l119 105q89 78 94 116q3 16 -8.5 21.5t-40.5 5.5q-64 0 -129 -7z" />
    <glyph glyph-name="threesuperior" unicode="&#xb3;" horiz-adv-x="389" 
d="M123 701v70q77 11 130 11q73 0 103.5 -25.5t26.5 -74.5q-4 -39 -22.5 -71t-53.5 -34v-2q75 -13 61 -104q-18 -117 -173 -119q-53 -1 -132 11l8 71q18 0 44 -1.5t37.5 -2t36.5 0.5q77 5 88 59q5 26 -7.5 39t-46.5 13h-83l8 67h80q36 0 50 13.5t16 42.5q3 24 -8 31.5
t-53 7.5q-2 0 -110 -3z" />
    <glyph glyph-name="acute" unicode="&#xb4;" horiz-adv-x="337" 
d="M357 641l-225 -111l-33 54l206 148z" />
    <glyph glyph-name="paragraph" unicode="&#xb6;" horiz-adv-x="589" 
d="M186 -210l58 411q-117 12 -163 72.5t-29 181.5q19 136 96 191.5t242 55.5q97 0 165 -17l-96 -685h-86l88 624q-41 3 -72 3l-118 -837h-85z" />
    <glyph glyph-name="periodcentered" unicode="&#xb7;" horiz-adv-x="246" 
d="M107 327h36q47 0 40 -46l-7 -50q-4 -42 -46 -42h-35q-48 0 -42 46l8 51q4 41 46 41z" />
    <glyph glyph-name="cedilla" unicode="&#xb8;" horiz-adv-x="242" 
d="M26 -93l14 53q72 8 102.5 -6t21.5 -63q-11 -68 -67 -102t-133 -23l20 58q36 -1 63.5 17t33.5 47q2 12 -7.5 15.5t-47.5 3.5z" />
    <glyph glyph-name="onesuperior" unicode="&#xb9;" horiz-adv-x="292" 
d="M234 360h-92l42 289q4 28 9 45l-104 -28l-2 67l113 41h93z" />
    <glyph glyph-name="ordmasculine" unicode="&#xba;" horiz-adv-x="438" 
d="M255 612q95 0 131 -41t22 -138q-13 -93 -55 -130t-132 -37q-93 0 -129.5 40.5t-23.5 135.5q13 94 54.5 132t132.5 38zM255 541q-49 0 -67.5 -22t-27.5 -86q-8 -57 4.5 -77t58.5 -20q45 0 64.5 22t28.5 84q8 59 -4.5 79t-56.5 20z" />
    <glyph glyph-name="guillemotright" unicode="&#xbb;" horiz-adv-x="498" 
d="M20 75l136 168l-98 176l61 40l137 -207l-2 -27l-182 -193zM216 75l136 168l-98 176l60 40l138 -207l-2 -27l-182 -193z" />
    <glyph glyph-name="onequarter" unicode="&#xbc;" horiz-adv-x="880" 
d="M137 276l41 290q4 30 10 46l-108 -27l-1 63l117 42h93l-58 -414h-94zM710 690l-525 -690h-85l526 690h84zM820 97l-53 -7l-13 -90h-86l12 89h-179q-30 0 -42.5 20.5t5.5 53.5l152 251h90l-141 -238q-9 -17 10 -17h114l15 108l25 67h72l-25 -175h53z" />
    <glyph glyph-name="onehalf" unicode="&#xbd;" horiz-adv-x="893" 
d="M231 276h-94l41 290q4 30 10 46l-108 -27l-1 63l117 42h93zM177 0h-85l526 690h84zM547 338v69q71 14 143 14q86 0 123 -22t28 -84q-8 -60 -91 -129l-135 -107q27 5 64 3h145l-12 -82h-323l7 54q3 25 16 38l127 105q89 72 100 114q5 20 -8 26t-46 6q-63 0 -138 -5z" />
    <glyph glyph-name="threequarters" unicode="&#xbe;" horiz-adv-x="969" 
d="M303 495l-6 -3q47 -7 63.5 -33t11.5 -75q-7 -63 -45 -90.5t-123 -27.5q-68 0 -154 11l6 69q71 -4 125 -4q50 0 71.5 14.5t26.5 49.5q4 24 -7.5 37t-52.5 13h-90l9 66h85q68 0 74 57q4 25 -8 33t-53 8q-53 0 -127 -2l-1 67q69 11 139 11q88 0 119.5 -22.5t23.5 -78.5
q-6 -44 -25 -69t-62 -31zM808 690l-526 -690h-84l525 690h85zM908 97l-53 -7l-12 -90h-87l12 89h-178q-30 0 -42.5 20.5t5.5 53.5l152 251h90l-141 -238q-9 -17 9 -17h115l14 108l26 67h72l-25 -175h53z" />
    <glyph glyph-name="questiondown" unicode="&#xbf;" horiz-adv-x="498" 
d="M273 505h28q48 0 42 -46l-8 -51q-4 -41 -46 -41h-28q-47 0 -41 45l7 52q6 41 46 41zM211 287h99q-6 -50 -26.5 -92.5t-46.5 -71.5t-52 -53.5t-46.5 -50.5t-25.5 -52q-8 -37 13.5 -55t76.5 -18q119 0 202 7v-85q-5 -1 -23 -4.5t-22.5 -4t-19.5 -3.5t-22 -3.5t-21.5 -2.5
t-25.5 -2.5t-27 -1.5t-33 -1h-37q-103 0 -152 44t-39 116q5 40 27.5 74t52 60.5t59.5 53t55 64t34 82.5z" />
    <glyph glyph-name="Agrave" unicode="&#xc0;" horiz-adv-x="634" 
d="M405 724l-210 118l60 83l191 -148zM437 194h-258l-83 -194h-131l300 659q10 31 46 31h123q16 0 27.5 -10.5t12.5 -25.5l117 -654h-125zM421 300l-35 234l-6 63h-30q-8 -21 -25 -62l-101 -235h197z" />
    <glyph glyph-name="Aacute" unicode="&#xc1;" horiz-adv-x="634" 
d="M344 724l-33 54l207 148l52 -91zM437 194h-258l-83 -194h-131l300 659q10 31 46 31h123q16 0 27.5 -10.5t12.5 -25.5l117 -654h-125zM421 300l-35 234l-6 63h-30q-8 -21 -25 -62l-101 -235h197z" />
    <glyph glyph-name="Acircumflex" unicode="&#xc2;" horiz-adv-x="634" 
d="M244 724l-33 50l148 131h84l126 -138l-41 -45l-124 100h-8zM437 194h-258l-83 -194h-131l300 659q10 31 46 31h123q16 0 27.5 -10.5t12.5 -25.5l117 -654h-125zM421 300l-35 234l-6 63h-30q-8 -21 -25 -62l-101 -235h197z" />
    <glyph glyph-name="Atilde" unicode="&#xc3;" horiz-adv-x="634" 
d="M514 887l53 -5q0 -63 -25.5 -95.5t-65.5 -30.5q-38 3 -85.5 26t-63.5 26q-27 4 -39 -9t-16 -42l-53 5q1 65 27 97.5t65 30.5q34 -3 79.5 -25t67.5 -25q27 -4 39.5 7.5t16.5 39.5zM437 194h-258l-83 -194h-131l300 659q10 31 46 31h123q16 0 27.5 -10.5t12.5 -25.5
l117 -654h-125zM421 300l-35 234l-6 63h-30q-8 -21 -25 -62l-101 -235h197z" />
    <glyph glyph-name="Adieresis" unicode="&#xc4;" horiz-adv-x="634" 
d="M323 763h-42q-30 0 -27 28l10 58q4 30 34 30h38q18 0 24 -7t4 -23l-10 -57q-3 -29 -31 -29zM492 763h-42q-30 0 -27 28l10 58q4 30 34 30h38q18 0 24 -7t4 -23l-10 -57q-3 -29 -31 -29zM437 194h-258l-83 -194h-131l300 659q10 31 46 31h123q16 0 27.5 -10.5t12.5 -25.5
l117 -654h-125zM421 300l-35 234l-6 63h-30q-8 -21 -25 -62l-101 -235h197z" />
    <glyph glyph-name="Aring" unicode="&#xc5;" horiz-adv-x="634" 
d="M390 714q-52 0 -82.5 32.5t-25.5 81.5q6 45 37 75.5t80 30.5q51 0 82.5 -32.5t25.5 -82.5q-5 -45 -36.5 -75t-80.5 -30zM343 825q-3 -26 11.5 -41t36.5 -15q23 0 38.5 15.5t17.5 40.5q2 24 -11 38.5t-37 14.5q-23 0 -38.5 -15t-17.5 -38zM437 194h-258l-83 -194h-131
l300 659q10 31 46 31h123q16 0 27.5 -10.5t12.5 -25.5l117 -654h-125zM421 300l-35 234l-6 63h-30q-8 -21 -25 -62l-101 -235h197z" />
    <glyph glyph-name="AE" unicode="&#xc6;" horiz-adv-x="920" 
d="M912 588h-248q-59 0 -67 -61l-17 -120h269l-12 -93h-270l-21 -155q-5 -32 6 -44.5t42 -12.5h250l-5 -96q-90 -8 -277 -8q-71 0 -108 40.5t-27 111.5l7 49h-216l-134 -199h-132l390 570q47 71 104 96t170 25q200 0 312 -7zM449 304l33 239q5 44 34 68h-6q-28 -21 -55 -61
l-166 -246h160z" />
    <glyph glyph-name="Ccedilla" unicode="&#xc7;" horiz-adv-x="574" 
d="M503 108l6 -95q-84 -25 -212 -25q-153 0 -208.5 85.5t-28.5 276.5q27 197 98 274.5t225 77.5q114 0 199 -23l-18 -94q-87 7 -184 7q-60 0 -94 -19.5t-57.5 -74t-37.5 -158.5q-20 -139 3 -190t106 -52q110 -1 203 10zM204 -108l13 53q73 8 103.5 -6t21.5 -63
q-12 -68 -67.5 -102t-133.5 -23l20 59q37 -1 64.5 16.5t33.5 46.5q2 12 -7.5 15.5t-47.5 3.5z" />
    <glyph glyph-name="Egrave" unicode="&#xc8;" horiz-adv-x="565" 
d="M398 741l-210 117l60 83l191 -147zM556 588h-266q-30 0 -43.5 -13t-17.5 -47l-17 -121h281l-12 -93h-281l-22 -155q-4 -32 7 -44.5t42 -12.5h260l-3 -96q-85 -8 -282 -8q-85 0 -123 41t-28 115l57 410q8 61 49 94.5t111 33.5q215 0 304 -9z" />
    <glyph glyph-name="Eacute" unicode="&#xc9;" horiz-adv-x="565" 
d="M338 741l-33 54l206 148l52 -91zM556 588h-266q-30 0 -43.5 -13t-17.5 -47l-17 -121h281l-12 -93h-281l-22 -155q-4 -32 7 -44.5t42 -12.5h260l-3 -96q-85 -8 -282 -8q-85 0 -123 41t-28 115l57 410q8 61 49 94.5t111 33.5q215 0 304 -9z" />
    <glyph glyph-name="Ecircumflex" unicode="&#xca;" horiz-adv-x="565" 
d="M237 741l-32 49l147 132h85l126 -138l-42 -46l-124 100h-8zM556 588h-266q-30 0 -43.5 -13t-17.5 -47l-17 -121h281l-12 -93h-281l-22 -155q-4 -32 7 -44.5t42 -12.5h260l-3 -96q-85 -8 -282 -8q-85 0 -123 41t-28 115l57 410q8 61 49 94.5t111 33.5q215 0 304 -9z" />
    <glyph glyph-name="Edieresis" unicode="&#xcb;" horiz-adv-x="565" 
d="M485 779h-42q-30 0 -26 28l9 59q4 29 34 29h39q31 0 27 -29l-9 -58q-3 -29 -32 -29zM316 779h-42q-30 0 -26 28l9 59q4 29 35 29h38q18 0 23.5 -7t3.5 -22l-9 -58q-3 -29 -32 -29zM556 588h-266q-30 0 -43.5 -13t-17.5 -47l-17 -121h281l-12 -93h-281l-22 -155
q-4 -32 7 -44.5t42 -12.5h260l-3 -96q-85 -8 -282 -8q-85 0 -123 41t-28 115l57 410q8 61 49 94.5t111 33.5q215 0 304 -9z" />
    <glyph glyph-name="Igrave" unicode="&#xcc;" horiz-adv-x="279" 
d="M266 777l-41 -53l-210 118l60 83zM161 0h-126l97 690h126z" />
    <glyph glyph-name="Iacute" unicode="&#xcd;" horiz-adv-x="279" 
d="M390 835l-225 -111l-34 54l207 148zM161 0h-126l97 690h126z" />
    <glyph glyph-name="Icircumflex" unicode="&#xce;" horiz-adv-x="279" 
d="M389 767l-41 -45l-124 100h-8l-152 -98l-33 50l148 131h85zM161 0h-126l97 690h126z" />
    <glyph glyph-name="Idieresis" unicode="&#xcf;" horiz-adv-x="279" 
d="M287 879h38q18 0 24 -7t4 -23l-9 -57q-4 -29 -32 -29h-42q-30 0 -27 28l10 58q4 30 34 30zM118 879h38q18 0 24 -7t4 -23l-10 -57q-3 -29 -31 -29h-42q-30 0 -27 28l10 58q4 30 34 30zM161 0h-126l97 690h126z" />
    <glyph glyph-name="Eth" unicode="&#xd0;" horiz-adv-x="669" 
d="M91 397l41 293q124 9 233 9q168 0 227 -78.5t31 -280.5q-13 -92 -32.5 -154t-45.5 -101t-67.5 -59.5t-87 -27.5t-115.5 -7q-100 0 -240 9l47 332h-58l8 65h59zM207 332l-33 -234q76 -2 100 -2q75 0 113.5 17.5t63.5 71.5t41 165q9 65 10.5 106.5t-4.5 70t-24.5 43t-44 20
t-68.5 5.5l-117 -1l-28 -197h137l-9 -65h-137z" />
    <glyph glyph-name="Ntilde" unicode="&#xd1;" horiz-adv-x="712" 
d="M313 757l-53 5q1 65 27 97.5t65 30.5q34 -3 79.5 -25t67.5 -25q28 -4 40.5 7.5t16.5 39.5l53 -5q-1 -63 -26 -95.5t-65 -30.5q-39 3 -86 26t-63 26q-27 4 -39.5 -9t-16.5 -42zM692 690l-92 -646q-6 -44 -48 -44h-91q-33 0 -47 40l-145 423q-19 53 -28 101h-12
q-1 -44 -8 -101l-63 -463h-123l91 646q6 44 49 44h90q33 0 47 -40l140 -411q25 -76 34 -109h14q1 54 9 108l61 452h122z" />
    <glyph glyph-name="Ograve" unicode="&#xd2;" horiz-adv-x="672" 
d="M462 777l-41 -53l-210 118l60 83zM387 703q151 0 209 -82.5t31 -280.5q-27 -201 -99 -277t-225 -76t-211.5 81t-31.5 282q27 197 99 275t228 78zM382 596q-91 0 -130 -52.5t-61 -203.5q-20 -142 4 -194t111 -52q88 0 128.5 54t61.5 202q22 145 -2.5 195.5t-111.5 50.5z
" />
    <glyph glyph-name="Oacute" unicode="&#xd3;" horiz-adv-x="672" 
d="M586 835l-225 -111l-34 54l207 148zM387 703q151 0 209 -82.5t31 -280.5q-27 -201 -99 -277t-225 -76t-211.5 81t-31.5 282q27 197 99 275t228 78zM382 596q-91 0 -130 -52.5t-61 -203.5q-20 -142 4 -194t111 -52q88 0 128.5 54t61.5 202q22 145 -2.5 195.5t-111.5 50.5z
" />
    <glyph glyph-name="Ocircumflex" unicode="&#xd4;" horiz-adv-x="672" 
d="M585 767l-41 -45l-124 100h-8l-152 -98l-32 50l147 131h85zM387 703q151 0 209 -82.5t31 -280.5q-27 -201 -99 -277t-225 -76t-211.5 81t-31.5 282q27 197 99 275t228 78zM382 596q-91 0 -130 -52.5t-61 -203.5q-20 -142 4 -194t111 -52q88 0 128.5 54t61.5 202
q22 145 -2.5 195.5t-111.5 50.5z" />
    <glyph glyph-name="Otilde" unicode="&#xd5;" horiz-adv-x="672" 
d="M288 757l-53 5q1 65 27 97.5t65 30.5q34 -3 79.5 -25t67.5 -25q27 -4 39.5 7.5t16.5 39.5l53 -5q0 -62 -25 -95t-65 -31q-39 3 -86.5 26t-63.5 26q-27 4 -39 -9t-16 -42zM387 703q151 0 209 -82.5t31 -280.5q-27 -201 -99 -277t-225 -76t-211.5 81t-31.5 282
q27 197 99 275t228 78zM382 596q-91 0 -130 -52.5t-61 -203.5q-20 -142 4 -194t111 -52q88 0 128.5 54t61.5 202q22 145 -2.5 195.5t-111.5 50.5z" />
    <glyph glyph-name="Odieresis" unicode="&#xd6;" horiz-adv-x="672" 
d="M483 879h38q18 0 24 -7t4 -23l-9 -57q-4 -29 -32 -29h-42q-30 0 -26 28l9 58q4 30 34 30zM314 879h38q18 0 24 -7t4 -23l-9 -57q-4 -29 -32 -29h-42q-30 0 -27 28l10 58q4 30 34 30zM387 703q151 0 209 -82.5t31 -280.5q-27 -201 -99 -277t-225 -76t-211.5 81t-31.5 282
q27 197 99 275t228 78zM382 596q-91 0 -130 -52.5t-61 -203.5q-20 -142 4 -194t111 -52q88 0 128.5 54t61.5 202q22 145 -2.5 195.5t-111.5 50.5z" />
    <glyph glyph-name="multiply" unicode="&#xd7;" horiz-adv-x="524" 
d="M330 284l120 -124l-65 -67l-129 133l-171 -136l-52 77l159 125l-121 125l66 66l129 -133l176 140l51 -76z" />
    <glyph glyph-name="Oslash" unicode="&#xd8;" horiz-adv-x="672" 
d="M611 728l-45 -74q94 -78 61 -314q-27 -201 -99 -277t-225 -76q-77 0 -130 19l-43 -70l-50 30l42 69q-94 77 -62 315q27 197 99 275t228 78q77 0 128 -19l45 73zM193 151l262 433q-28 12 -73 12q-91 0 -130 -52.5t-61 -203.5q-20 -137 2 -189zM496 539l-262 -432
q26 -13 72 -13q88 0 128.5 54t61.5 202q21 137 0 189z" />
    <glyph glyph-name="Ugrave" unicode="&#xd9;" horiz-adv-x="668" 
d="M460 777l-41 -53l-209 118l60 83zM653 690l-60 -422q-22 -154 -88 -217.5t-202 -63.5q-140 0 -198 67t-37 219l58 417h126l-59 -422q-14 -100 9 -137t99 -37q79 0 116 39.5t52 139.5l58 417h126z" />
    <glyph glyph-name="Uacute" unicode="&#xda;" horiz-adv-x="668" 
d="M584 835l-225 -111l-33 54l206 148zM653 690l-60 -422q-22 -154 -88 -217.5t-202 -63.5q-140 0 -198 67t-37 219l58 417h126l-59 -422q-14 -100 9 -137t99 -37q79 0 116 39.5t52 139.5l58 417h126z" />
    <glyph glyph-name="Ucircumflex" unicode="&#xdb;" horiz-adv-x="668" 
d="M584 767l-41 -45l-125 100h-8l-151 -98l-33 50l148 131h84zM653 690l-60 -422q-22 -154 -88 -217.5t-202 -63.5q-140 0 -198 67t-37 219l58 417h126l-59 -422q-14 -100 9 -137t99 -37q79 0 116 39.5t52 139.5l58 417h126z" />
    <glyph glyph-name="Udieresis" unicode="&#xdc;" horiz-adv-x="668" 
d="M482 879h38q33 0 27 -30l-9 -57q-3 -29 -31 -29h-42q-30 0 -27 28l9 58q6 30 35 30zM313 879h38q33 0 27 -30l-9 -57q-3 -29 -31 -29h-42q-30 0 -27 28l9 58q4 30 35 30zM653 690l-60 -422q-22 -154 -88 -217.5t-202 -63.5q-140 0 -198 67t-37 219l58 417h126l-59 -422
q-14 -100 9 -137t99 -37q79 0 116 39.5t52 139.5l58 417h126z" />
    <glyph glyph-name="Yacute" unicode="&#xdd;" horiz-adv-x="586" 
d="M314 724l-33 54l206 148l52 -91zM344 232l-32 -232h-126l34 238l-161 452h127l87 -270q13 -38 16 -84h10q9 38 38 87l163 267h136z" />
    <glyph glyph-name="Thorn" unicode="&#xde;" horiz-adv-x="598" 
d="M258 690l-17 -118q32 1 117 1q127 0 178 -50.5t33 -179.5q-18 -128 -72 -174t-173 -46q-69 0 -145 9l-18 -132h-126l97 690h126zM192 226h117q68 1 96 26t39 100q10 72 -8 95t-82 23l-127 -1z" />
    <glyph glyph-name="germandbls" unicode="&#xdf;" horiz-adv-x="689" 
d="M490 310l82 -57q42 -31 57.5 -60t9.5 -78q-10 -73 -56.5 -99.5t-143.5 -26.5q-75 0 -163 11l14 88q45 -2 122 -2q56 0 78.5 9t26.5 37q2 20 -7.5 32.5t-39.5 34.5l-83 56q-72 50 -62 117q3 19 11.5 35.5t27.5 33.5t32 26.5t44 31.5q39 26 54 43.5t18 39.5q4 26 -16 38
t-87 12q-76 0 -106 -20t-38 -78l-82 -584q-11 -73 -53 -109.5t-119 -36.5q-53 0 -124 9l19 86h71q44 0 62 14t25 56l61 433h-88l12 83l89 5l9 62q14 105 72.5 140t182.5 35q139 0 189 -33t37 -113q-6 -37 -25 -66.5t-68 -63.5q-7 -5 -24.5 -16t-25.5 -17t-19 -15t-16.5 -17
t-7.5 -17q-1 -4 -1 -7.5t1 -7t2.5 -6t4.5 -6t5.5 -6t7.5 -6.5t8 -6t9.5 -6.5t10.5 -7.5z" />
    <glyph glyph-name="agrave" unicode="&#xe0;" 
d="M350 544l-210 117l60 84l191 -148zM474 0h-96l3 85q-83 -96 -205 -97q-90 -1 -122.5 59t-12.5 206q12 83 33.5 134.5t56.5 76.5t70.5 32.5t92.5 7.5q127 0 247 -29zM409 406l-89 1q-46 0 -70 -4.5t-42.5 -22t-27 -47.5t-16.5 -86q-14 -103 -5.5 -130t49.5 -27
q42 0 81 23.5t89 73.5z" />
    <glyph glyph-name="aacute" unicode="&#xe1;" 
d="M289 544l-33 54l206 148l53 -91zM474 0h-96l3 85q-83 -96 -205 -97q-90 -1 -122.5 59t-12.5 206q12 83 33.5 134.5t56.5 76.5t70.5 32.5t92.5 7.5q127 0 247 -29zM409 406l-89 1q-46 0 -70 -4.5t-42.5 -22t-27 -47.5t-16.5 -86q-14 -103 -5.5 -130t49.5 -27q42 0 81 23.5
t89 73.5z" />
    <glyph glyph-name="acircumflex" unicode="&#xe2;" 
d="M189 544l-33 49l148 132h84l126 -138l-41 -46l-124 100h-8zM474 0h-96l3 85q-83 -96 -205 -97q-90 -1 -122.5 59t-12.5 206q12 83 33.5 134.5t56.5 76.5t70.5 32.5t92.5 7.5q127 0 247 -29zM409 406l-89 1q-46 0 -70 -4.5t-42.5 -22t-27 -47.5t-16.5 -86
q-14 -103 -5.5 -130t49.5 -27q42 0 81 23.5t89 73.5z" />
    <glyph glyph-name="atilde" unicode="&#xe3;" 
d="M459 707l53 -5q0 -62 -25.5 -95t-65.5 -31q-38 3 -85.5 26t-63.5 26q-27 3 -39.5 -9.5t-16.5 -41.5l-52 5q1 64 27 97t64 30q35 -2 81 -24.5t66 -25.5q28 -4 40.5 8t16.5 40zM474 0h-96l3 85q-83 -96 -205 -97q-90 -1 -122.5 59t-12.5 206q12 83 33.5 134.5t56.5 76.5
t70.5 32.5t92.5 7.5q127 0 247 -29zM409 406l-89 1q-46 0 -70 -4.5t-42.5 -22t-27 -47.5t-16.5 -86q-14 -103 -5.5 -130t49.5 -27q42 0 81 23.5t89 73.5z" />
    <glyph glyph-name="adieresis" unicode="&#xe4;" 
d="M268 583h-42q-30 0 -27 28l9 58q4 30 35 30h38q33 0 28 -30l-10 -58q-3 -28 -31 -28zM437 583h-42q-30 0 -27 28l10 58q4 30 34 30h38q32 0 28 -30l-10 -58q-3 -28 -31 -28zM474 0h-96l3 85q-83 -96 -205 -97q-90 -1 -122.5 59t-12.5 206q12 83 33.5 134.5t56.5 76.5
t70.5 32.5t92.5 7.5q127 0 247 -29zM409 406l-89 1q-46 0 -70 -4.5t-42.5 -22t-27 -47.5t-16.5 -86q-14 -103 -5.5 -130t49.5 -27q42 0 81 23.5t89 73.5z" />
    <glyph glyph-name="aring" unicode="&#xe5;" 
d="M335 533q-52 0 -82.5 32.5t-25.5 82.5q6 45 37 75.5t80 30.5q51 0 82.5 -32.5t25.5 -82.5q-6 -46 -37 -76t-80 -30zM288 644q-3 -26 11.5 -40.5t36.5 -14.5q23 0 38.5 15.5t17.5 40.5q2 23 -11.5 38t-36.5 15q-24 0 -39 -15t-17 -39zM474 0h-96l3 85q-83 -96 -205 -97
q-90 -1 -122.5 59t-12.5 206q12 83 33.5 134.5t56.5 76.5t70.5 32.5t92.5 7.5q127 0 247 -29zM409 406l-89 1q-46 0 -70 -4.5t-42.5 -22t-27 -47.5t-16.5 -86q-14 -103 -5.5 -130t49.5 -27q42 0 81 23.5t89 73.5z" />
    <glyph glyph-name="ae" unicode="&#xe6;" horiz-adv-x="880" 
d="M784 99l7 -79q-73 -32 -202 -32q-163 0 -203 104q-83 -103 -210 -104q-91 -1 -123 59t-11 206q11 83 32 134.5t55 76t68.5 32.5t90.5 8q103 0 217 -21q53 21 146 21q121 0 163.5 -41.5t31.5 -121.5q-10 -72 -56 -104t-141 -38l-155 -13q1 -58 28 -78.5t83 -20.5
q83 0 179 12zM501 268l140 12q42 3 62 18.5t24 53.5q3 38 -15 47t-77 9q-66 -1 -93 -28.5t-41 -111.5zM208 90q72 0 161 89q0 44 5 79q12 93 42 148q-43 1 -96 1q-45 0 -68.5 -4.5t-42 -22t-27 -47.5t-16.5 -86q-13 -103 -5 -130t47 -27z" />
    <glyph glyph-name="ccedilla" unicode="&#xe7;" horiz-adv-x="494" 
d="M421 98l8 -81q-76 -29 -181 -29q-132 0 -181 61t-29 201t80 197t188 57q106 0 172 -29l-17 -74q-102 2 -137 2q-80 0 -113.5 -31.5t-45.5 -128.5q-12 -98 9 -126.5t96 -28.5q84 0 151 10zM157 -105l14 53q73 8 103 -6t21 -63q-11 -68 -67 -102t-133 -23l20 58
q37 -1 64 16.5t33 47.5q2 12 -7.5 15.5t-47.5 3.5z" />
    <glyph glyph-name="egrave" unicode="&#xe8;" horiz-adv-x="548" 
d="M344 544l-210 117l60 84l191 -148zM455 99l8 -79q-77 -32 -208 -32t-182 66.5t-33 203.5q19 141 79 193.5t198 52.5q122 0 164.5 -41.5t31.5 -121.5q-10 -72 -56 -104t-141 -38l-155 -13q1 -58 28 -78.5t82 -20.5q83 0 184 12zM168 268l140 12q42 3 61.5 18.5t24.5 53.5
q3 38 -15 47t-77 9q-66 -1 -93 -28.5t-41 -111.5z" />
    <glyph glyph-name="eacute" unicode="&#xe9;" horiz-adv-x="548" 
d="M284 544l-34 54l207 148l52 -91zM455 99l8 -79q-77 -32 -208 -32t-182 66.5t-33 203.5q19 141 79 193.5t198 52.5q122 0 164.5 -41.5t31.5 -121.5q-10 -72 -56 -104t-141 -38l-155 -13q1 -58 28 -78.5t82 -20.5q83 0 184 12zM168 268l140 12q42 3 61.5 18.5t24.5 53.5
q3 38 -15 47t-77 9q-66 -1 -93 -28.5t-41 -111.5z" />
    <glyph glyph-name="ecircumflex" unicode="&#xea;" horiz-adv-x="548" 
d="M183 544l-33 49l148 132h85l125 -138l-41 -46l-124 100h-8zM455 99l8 -79q-77 -32 -208 -32t-182 66.5t-33 203.5q19 141 79 193.5t198 52.5q122 0 164.5 -41.5t31.5 -121.5q-10 -72 -56 -104t-141 -38l-155 -13q1 -58 28 -78.5t82 -20.5q83 0 184 12zM168 268l140 12
q42 3 61.5 18.5t24.5 53.5q3 38 -15 47t-77 9q-66 -1 -93 -28.5t-41 -111.5z" />
    <glyph glyph-name="edieresis" unicode="&#xeb;" horiz-adv-x="548" 
d="M262 583h-42q-30 0 -27 28l10 58q4 30 34 30h38q33 0 28 -30l-10 -58q-3 -28 -31 -28zM431 583h-42q-30 0 -27 28l10 58q4 30 34 30h38q32 0 28 -30l-9 -58q-4 -28 -32 -28zM455 99l8 -79q-77 -32 -208 -32t-182 66.5t-33 203.5q19 141 79 193.5t198 52.5
q122 0 164.5 -41.5t31.5 -121.5q-10 -72 -56 -104t-141 -38l-155 -13q1 -58 28 -78.5t82 -20.5q83 0 184 12zM168 268l140 12q42 3 61.5 18.5t24.5 53.5q3 38 -15 47t-77 9q-66 -1 -93 -28.5t-41 -111.5z" />
    <glyph glyph-name="igrave" unicode="&#xec;" horiz-adv-x="264" 
d="M232 597l-41 -53l-209 117l60 84zM151 0h-121l69 490h121z" />
    <glyph glyph-name="iacute" unicode="&#xed;" horiz-adv-x="264" 
d="M356 655l-225 -111l-33 54l206 148zM151 0h-121l69 490h121z" />
    <glyph glyph-name="icircumflex" unicode="&#xee;" horiz-adv-x="264" 
d="M356 587l-41 -46l-125 100h-8l-151 -97l-33 49l148 132h84zM151 0h-121l69 490h121z" />
    <glyph glyph-name="idieresis" unicode="&#xef;" horiz-adv-x="264" 
d="M254 699h38q33 0 27 -30l-9 -58q-3 -28 -31 -28h-42q-30 0 -27 28l9 58q6 30 35 30zM85 699h38q33 0 27 -30l-9 -58q-3 -28 -31 -28h-42q-30 0 -27 28l9 58q4 30 35 30zM151 0h-121l69 490h121z" />
    <glyph glyph-name="eth" unicode="&#xf0;" horiz-adv-x="565" 
d="M503 672l-67 -49q105 -102 75 -343q-19 -151 -81.5 -222t-194.5 -71q-117 0 -166 58t-34 177q30 228 228 228q82 0 131 -44q-1 107 -44 154l-82 -60l-32 44l68 50q-47 22 -136 19l17 85q129 5 206 -40l80 59zM242 84q67 0 99 46.5t46 162.5l4 34q-44 27 -98 27
q-62 0 -91.5 -33t-39.5 -105q-11 -73 7.5 -102.5t72.5 -29.5z" />
    <glyph glyph-name="ntilde" unicode="&#xf1;" horiz-adv-x="587" 
d="M468 707l53 -5q0 -62 -25 -95t-65 -31q-39 3 -86.5 26t-63.5 26q-27 3 -39 -9.5t-16 -41.5l-53 5q1 65 27 97.5t65 29.5q35 -2 80.5 -24.5t66.5 -25.5q27 -4 39.5 8t16.5 40zM191 490l-3 -101q124 115 228 115q62 0 94.5 -36t23.5 -102l-52 -366h-121l46 332
q5 41 -2.5 55.5t-33.5 13.5q-38 0 -78 -22t-104 -72l-42 -307h-121l69 490h96z" />
    <glyph glyph-name="ograve" unicode="&#xf2;" horiz-adv-x="573" 
d="M387 597l-41 -53l-210 117l60 84zM311 504q130 0 180.5 -61.5t30.5 -202.5q-19 -138 -80.5 -195.5t-189.5 -57.5q-129 0 -181 61t-33 201q20 139 81 197t192 58zM310 407q-69 0 -100 -34t-45 -133q-14 -92 4 -124t84 -32q69 0 100 34.5t44 130.5q13 94 -4.5 126t-82.5 32
z" />
    <glyph glyph-name="oacute" unicode="&#xf3;" horiz-adv-x="573" 
d="M511 655l-225 -111l-34 54l207 148zM311 504q130 0 180.5 -61.5t30.5 -202.5q-19 -138 -80.5 -195.5t-189.5 -57.5q-129 0 -181 61t-33 201q20 139 81 197t192 58zM310 407q-69 0 -100 -34t-45 -133q-14 -92 4 -124t84 -32q69 0 100 34.5t44 130.5q13 94 -4.5 126
t-82.5 32z" />
    <glyph glyph-name="ocircumflex" unicode="&#xf4;" horiz-adv-x="573" 
d="M510 587l-41 -46l-124 100h-8l-152 -97l-33 49l148 132h85zM311 504q130 0 180.5 -61.5t30.5 -202.5q-19 -138 -80.5 -195.5t-189.5 -57.5q-129 0 -181 61t-33 201q20 139 81 197t192 58zM310 407q-69 0 -100 -34t-45 -133q-14 -92 4 -124t84 -32q69 0 100 34.5t44 130.5
q13 94 -4.5 126t-82.5 32z" />
    <glyph glyph-name="otilde" unicode="&#xf5;" horiz-adv-x="573" 
d="M213 577l-53 5q1 65 27 97.5t65 29.5q35 -2 80.5 -24.5t66.5 -25.5q27 -4 39.5 8t16.5 40l53 -5q0 -63 -25.5 -95.5t-65.5 -30.5q-38 3 -85.5 26t-63.5 26q-27 3 -39 -9.5t-16 -41.5zM311 504q130 0 180.5 -61.5t30.5 -202.5q-19 -138 -80.5 -195.5t-189.5 -57.5
q-129 0 -181 61t-33 201q20 139 81 197t192 58zM310 407q-69 0 -100 -34t-45 -133q-14 -92 4 -124t84 -32q69 0 100 34.5t44 130.5q13 94 -4.5 126t-82.5 32z" />
    <glyph glyph-name="odieresis" unicode="&#xf6;" horiz-adv-x="573" 
d="M408 699h38q32 0 28 -30l-9 -58q-4 -28 -32 -28h-42q-30 0 -27 28l10 58q4 30 34 30zM239 699h38q33 0 28 -30l-10 -58q-3 -28 -31 -28h-42q-30 0 -27 28l10 58q4 30 34 30zM311 504q130 0 180.5 -61.5t30.5 -202.5q-19 -138 -80.5 -195.5t-189.5 -57.5q-129 0 -181 61
t-33 201q20 139 81 197t192 58zM310 407q-69 0 -100 -34t-45 -133q-14 -92 4 -124t84 -32q69 0 100 34.5t44 130.5q13 94 -4.5 126t-82.5 32z" />
    <glyph glyph-name="divide" unicode="&#xf7;" horiz-adv-x="555" 
d="M294 540h29q25 0 35 -11t6 -36l-5 -40q-3 -22 -14 -32t-34 -10h-29q-48 0 -42 46l6 40q4 43 48 43zM496 250h-450l14 89h450zM242 176h29q49 0 42 -47l-6 -40q-3 -22 -14 -32t-34 -10h-30q-25 0 -34.5 11t-5.5 36l5 39q6 43 48 43z" />
    <glyph glyph-name="oslash" unicode="&#xf8;" horiz-adv-x="573" 
d="M501 549l-46 -76q93 -55 67 -233q-19 -138 -80.5 -195.5t-189.5 -57.5q-46 0 -86 8l-47 -77l-45 26l41 69q-102 52 -77 236q20 139 81 197t192 58q53 0 95 -11l50 82zM174 109l177 294q-15 4 -41 4q-69 0 -100 -34t-45 -133q-15 -101 9 -131zM394 372l-173 -286
q18 -2 32 -2q69 0 100 34.5t44 130.5q13 90 -3 123z" />
    <glyph glyph-name="ugrave" unicode="&#xf9;" horiz-adv-x="577" 
d="M351 550l-209 117l60 83l190 -147zM537 490l-68 -490h-94l4 97q-116 -110 -218 -110q-68 0 -99 37t-21 101l51 365h121l-47 -333q-6 -37 3.5 -52t38.5 -15q37 0 72 21t95 73l42 306h120z" />
    <glyph glyph-name="uacute" unicode="&#xfa;" horiz-adv-x="577" 
d="M291 550l-33 54l206 148l52 -91zM537 490l-68 -490h-94l4 97q-116 -110 -218 -110q-68 0 -99 37t-21 101l51 365h121l-47 -333q-6 -37 3.5 -52t38.5 -15q37 0 72 21t95 73l42 306h120z" />
    <glyph glyph-name="ucircumflex" unicode="&#xfb;" horiz-adv-x="577" 
d="M191 550l-33 49l148 132h84l126 -138l-41 -46l-125 100h-8zM537 490l-68 -490h-94l4 97q-116 -110 -218 -110q-68 0 -99 37t-21 101l51 365h121l-47 -333q-6 -37 3.5 -52t38.5 -15q37 0 72 21t95 73l42 306h120z" />
    <glyph glyph-name="udieresis" unicode="&#xfc;" horiz-adv-x="577" 
d="M439 589h-42q-30 0 -27 27l9 59q6 29 35 29h38q33 0 27 -29l-9 -58q-3 -28 -31 -28zM270 589h-42q-30 0 -27 27l9 59q4 29 35 29h38q33 0 27 -29l-9 -58q-3 -28 -31 -28zM537 490l-68 -490h-94l4 97q-116 -110 -218 -110q-68 0 -99 37t-21 101l51 365h121l-47 -333
q-6 -37 3.5 -52t38.5 -15q37 0 72 21t95 73l42 306h120z" />
    <glyph glyph-name="yacute" unicode="&#xfd;" horiz-adv-x="560" 
d="M263 544l-33 54l206 148l52 -91zM422 490h127q-48 -239 -139 -412q-78 -147 -159 -207.5t-195 -74.5l-19 82q65 15 112 40.5t90 81.5h-51q-23 0 -40 13.5t-21 35.5l-89 441h128l63 -384q3 -16 19 -16h46l13 27q81 175 115 373z" />
    <glyph glyph-name="thorn" unicode="&#xfe;" 
d="M202 429l2 -7q82 80 190 80q85 0 119 -58t14 -206q-11 -80 -31 -131.5t-52 -77t-65.5 -34t-82.5 -8.5q-75 0 -150 12q-3 -31 -9 -68l-17 -126h-121l125 895h121l-21 -153q-9 -72 -22 -118zM159 83l90 -1q45 0 69 4.5t42 22.5t26.5 47.5t15.5 86.5q13 101 5 129t-47 28
q-45 0 -83.5 -23.5t-87.5 -74.5z" />
    <glyph glyph-name="ydieresis" unicode="&#xff;" horiz-adv-x="560" 
d="M410 583h-42q-30 0 -26 28l9 58q4 30 34 30h39q32 0 27 -30l-9 -58q-3 -28 -32 -28zM241 583h-42q-30 0 -26 28l9 58q4 30 35 30h38q17 0 23 -7t4 -23l-9 -58q-3 -28 -32 -28zM422 490h127q-48 -239 -139 -412q-78 -147 -159 -207.5t-195 -74.5l-19 82q65 15 112 40.5
t90 81.5h-51q-23 0 -40 13.5t-21 35.5l-89 441h128l63 -384q3 -16 19 -16h46l13 27q81 175 115 373z" />
    <glyph glyph-name="Amacron" unicode="&#x100;" horiz-adv-x="634" 
d="M532 778h-290l12 84h290zM437 194h-258l-83 -194h-131l300 659q10 31 46 31h123q16 0 27.5 -10.5t12.5 -25.5l117 -654h-125zM421 300l-35 234l-6 63h-30q-8 -21 -25 -62l-101 -235h197z" />
    <glyph glyph-name="amacron" unicode="&#x101;" 
d="M477 598h-290l11 84h291zM474 0h-96l3 85q-83 -96 -205 -97q-90 -1 -122.5 59t-12.5 206q12 83 33.5 134.5t56.5 76.5t70.5 32.5t92.5 7.5q127 0 247 -29zM409 406l-89 1q-46 0 -70 -4.5t-42.5 -22t-27 -47.5t-16.5 -86q-14 -103 -5.5 -130t49.5 -27q42 0 81 23.5
t89 73.5z" />
    <glyph glyph-name="Abreve" unicode="&#x102;" horiz-adv-x="634" 
d="M502 894l58 -12q-3 -62 -49.5 -101.5t-121.5 -39.5q-80 0 -120 41.5t-25 103.5l60 4q-4 -32 18 -48t67 -16q50 0 79.5 18t33.5 50zM437 194h-258l-83 -194h-131l300 659q10 31 46 31h123q16 0 27.5 -10.5t12.5 -25.5l117 -654h-125zM421 300l-35 234l-6 63h-30
q-8 -21 -25 -62l-101 -235h197z" />
    <glyph glyph-name="abreve" unicode="&#x103;" 
d="M446 714l59 -13q-3 -62 -50 -101t-122 -39q-79 0 -119 41.5t-25 103.5l60 4q-5 -32 17.5 -48t67.5 -16q50 0 79.5 18t32.5 50zM474 0h-96l3 85q-83 -96 -205 -97q-90 -1 -122.5 59t-12.5 206q12 83 33.5 134.5t56.5 76.5t70.5 32.5t92.5 7.5q127 0 247 -29zM409 406
l-89 1q-46 0 -70 -4.5t-42.5 -22t-27 -47.5t-16.5 -86q-14 -103 -5.5 -130t49.5 -27q42 0 81 23.5t89 73.5z" />
    <glyph glyph-name="Aogonek" unicode="&#x104;" horiz-adv-x="634" 
d="M474 654l117 -654q-43 -48 -79 -110q-17 -29 -1 -38t58 4l14 -49q-42 -16 -75.5 -19.5t-53.5 4.5t-31 22.5t-10 34.5t12 42q27 54 106 109h-65l-29 194h-258l-83 -194h-131l300 659q10 31 46 31h123q16 0 27.5 -10.5t12.5 -25.5zM421 300l-35 234l-6 63h-30
q-8 -21 -25 -62l-101 -235h197z" />
    <glyph glyph-name="aogonek" unicode="&#x105;" 
d="M541 475l-67 -475q-41 -44 -79 -110q-18 -29 -1.5 -38t58.5 4l13 -49q-42 -16 -75.5 -19.5t-53.5 4.5t-30.5 22.5t-9.5 34.5t12 42q27 54 106 109h-36l3 85q-83 -96 -205 -97q-90 -1 -122.5 59t-12.5 206q12 83 33.5 134.5t56.5 76.5t70.5 32.5t92.5 7.5q127 0 247 -29z
M409 406l-89 1q-46 0 -70 -4.5t-42.5 -22t-27 -47.5t-16.5 -86q-14 -103 -5.5 -130t49.5 -27q42 0 81 23.5t89 73.5z" />
    <glyph glyph-name="Cacute" unicode="&#x106;" horiz-adv-x="574" 
d="M572 835l-225 -111l-33 54l206 149zM503 108l6 -95q-84 -25 -212 -25q-153 0 -208.5 85.5t-28.5 276.5q27 197 98 274.5t225 77.5q114 0 199 -23l-18 -94q-87 7 -184 7q-60 0 -94 -19.5t-57.5 -74t-37.5 -158.5q-20 -139 3 -190t106 -52q110 -1 203 10z" />
    <glyph glyph-name="cacute" unicode="&#x107;" horiz-adv-x="494" 
d="M492 655l-226 -111l-33 54l206 148zM421 98l8 -81q-76 -29 -181 -29q-132 0 -181 61t-29 201t80 197t188 57q106 0 172 -29l-17 -74q-102 2 -137 2q-80 0 -113.5 -31.5t-45.5 -128.5q-12 -98 9 -126.5t96 -28.5q84 0 151 10z" />
    <glyph glyph-name="Cdotaccent" unicode="&#x10a;" horiz-adv-x="574" 
d="M382 876h37q17 0 26.5 -10t7.5 -27l-8 -54q-4 -32 -36 -32h-38q-17 0 -26 10t-6 27l7 54q4 32 36 32zM503 108l6 -95q-84 -25 -212 -25q-153 0 -208.5 85.5t-28.5 276.5q27 197 98 274.5t225 77.5q114 0 199 -23l-18 -94q-87 7 -184 7q-60 0 -94 -19.5t-57.5 -74
t-37.5 -158.5q-20 -139 3 -190t106 -52q110 -1 203 10z" />
    <glyph glyph-name="cdotaccent" unicode="&#x10b;" horiz-adv-x="494" 
d="M301 696h37q17 0 26.5 -10t7.5 -27l-8 -54q-4 -32 -35 -32h-38q-17 0 -26 10t-7 26l7 54q5 33 36 33zM421 98l8 -81q-76 -29 -181 -29q-132 0 -181 61t-29 201t80 197t188 57q106 0 172 -29l-17 -74q-102 2 -137 2q-80 0 -113.5 -31.5t-45.5 -128.5q-12 -98 9 -126.5
t96 -28.5q84 0 151 10z" />
    <glyph glyph-name="Ccaron" unicode="&#x10c;" horiz-adv-x="574" 
d="M579 872l-152 -131h-78l-123 138l45 43l117 -97h8l150 96zM503 108l6 -95q-84 -25 -212 -25q-153 0 -208.5 85.5t-28.5 276.5q27 197 98 274.5t225 77.5q114 0 199 -23l-18 -94q-87 7 -184 7q-60 0 -94 -19.5t-57.5 -74t-37.5 -158.5q-20 -139 3 -190t106 -52
q110 -1 203 10z" />
    <glyph glyph-name="ccaron" unicode="&#x10d;" horiz-adv-x="494" 
d="M498 691l-152 -131h-78l-122 139l45 43l116 -97h8l150 96zM421 98l8 -81q-76 -29 -181 -29q-132 0 -181 61t-29 201t80 197t188 57q106 0 172 -29l-17 -74q-102 2 -137 2q-80 0 -113.5 -31.5t-45.5 -128.5q-12 -98 9 -126.5t96 -28.5q84 0 151 10z" />
    <glyph glyph-name="Dcaron" unicode="&#x10e;" horiz-adv-x="669" 
d="M344 740l-122 139l45 43l117 -97h8l150 96l33 -50l-152 -131h-79zM35 0l97 690q124 9 233 9q168 0 227 -78.5t31 -280.5q-13 -92 -32.5 -154t-45.5 -101t-67.5 -59.5t-87 -27.5t-115.5 -7q-100 0 -240 9zM244 594l-70 -496q76 -2 100 -2q75 0 113.5 17.5t63.5 71.5
t41 165q9 65 10.5 106.5t-4.5 70t-24.5 43t-44 20t-68.5 5.5z" />
    <glyph glyph-name="dcaron" unicode="&#x10f;" 
d="M450 700h122l-98 -700h-96l3 94q-102 -106 -213 -106q-78 0 -112.5 60.5t-14.5 204.5q12 81 32.5 132.5t51.5 76.5t63 33.5t79 8.5q76 0 159 -13q2 48 7 94zM663 699h28q23 0 31 -8.5t4 -28.5l-7 -52q-10 -68 -61 -140l-51 16q23 61 33 103q-18 -1 -26 7.5t-6 23.5l7 45
q4 20 14 27t34 7zM409 409l-92 1q-59 0 -86 -10.5t-42 -43.5t-25 -109q-13 -96 -4.5 -126t48.5 -29q41 0 78.5 21.5t91.5 71.5z" />
    <glyph glyph-name="Dcroat" unicode="&#x110;" horiz-adv-x="669" 
d="M91 397l41 293q124 9 233 9q168 0 227 -78.5t31 -280.5q-13 -92 -32.5 -154t-45.5 -101t-67.5 -59.5t-87 -27.5t-115.5 -7q-100 0 -240 9l47 332h-58l8 65h59zM207 332l-33 -234q76 -2 100 -2q75 0 113.5 17.5t63.5 71.5t41 165q9 65 10.5 106.5t-4.5 70t-24.5 43t-44 20
t-68.5 5.5l-117 -1l-28 -197h137l-9 -65h-137z" />
    <glyph glyph-name="dcroat" unicode="&#x111;" horiz-adv-x="582" 
d="M624 568h-70l-80 -568h-96l3 94q-102 -106 -213 -106q-78 0 -112.5 60.5t-14.5 204.5q12 81 32.5 132.5t51.5 76.5t63 33.5t79 8.5q76 0 159 -13q2 50 5 77h-132l8 61h133l10 71h122l-10 -71h70zM409 409l-92 1q-59 0 -86 -10.5t-42 -43.5t-25 -109q-13 -96 -4.5 -126
t48.5 -29q41 0 78.5 21.5t91.5 71.5z" />
    <glyph glyph-name="Emacron" unicode="&#x112;" horiz-adv-x="565" 
d="M526 795h-291l12 84h290zM556 588h-266q-30 0 -43.5 -13t-17.5 -47l-17 -121h281l-12 -93h-281l-22 -155q-4 -32 7 -44.5t42 -12.5h260l-3 -96q-85 -8 -282 -8q-85 0 -123 41t-28 115l57 410q8 61 49 94.5t111 33.5q215 0 304 -9z" />
    <glyph glyph-name="emacron" unicode="&#x113;" horiz-adv-x="548" 
d="M471 598h-290l12 84h290zM455 99l8 -79q-77 -32 -208 -32t-182 66.5t-33 203.5q19 141 79 193.5t198 52.5q122 0 164.5 -41.5t31.5 -121.5q-10 -72 -56 -104t-141 -38l-155 -13q1 -58 28 -78.5t82 -20.5q83 0 184 12zM168 268l140 12q42 3 61.5 18.5t24.5 53.5
q3 38 -15 47t-77 9q-66 -1 -93 -28.5t-41 -111.5z" />
    <glyph glyph-name="Edotaccent" unicode="&#x116;" horiz-adv-x="565" 
d="M400 769h-38q-17 0 -26 10t-6 27l6 54q6 32 36 32h38q17 0 26.5 -10t6.5 -26l-7 -54q-4 -33 -36 -33zM556 588h-266q-30 0 -43.5 -13t-17.5 -47l-17 -121h281l-12 -93h-281l-22 -155q-4 -32 7 -44.5t42 -12.5h260l-3 -96q-85 -8 -282 -8q-85 0 -123 41t-28 115l57 410
q8 61 49 94.5t111 33.5q215 0 304 -9z" />
    <glyph glyph-name="edotaccent" unicode="&#x117;" horiz-adv-x="548" 
d="M346 573h-38q-17 0 -26 10t-7 26l7 54q6 33 36 33h38q17 0 26 -10t7 -27l-7 -54q-6 -32 -36 -32zM455 99l8 -79q-77 -32 -208 -32t-182 66.5t-33 203.5q19 141 79 193.5t198 52.5q122 0 164.5 -41.5t31.5 -121.5q-10 -72 -56 -104t-141 -38l-155 -13q1 -58 28 -78.5
t82 -20.5q83 0 184 12zM168 268l140 12q42 3 61.5 18.5t24.5 53.5q3 38 -15 47t-77 9q-66 -1 -93 -28.5t-41 -111.5z" />
    <glyph glyph-name="Eogonek" unicode="&#x118;" horiz-adv-x="565" 
d="M556 588h-266q-30 0 -43.5 -13t-17.5 -47l-17 -121h281l-12 -93h-281l-22 -155q-4 -32 7 -44.5t42 -12.5h260l-3 -96q-45 -49 -78 -110q-18 -29 -1.5 -37.5t58.5 4.5l13 -50q-42 -16 -75.5 -19t-53.5 4.5t-31 22.5t-10 35t12 42q27 53 100 103q-71 -3 -216 -3
q-85 0 -123 41t-28 115l57 410q8 61 49 94.5t111 33.5q215 0 304 -9z" />
    <glyph glyph-name="eogonek" unicode="&#x119;" horiz-adv-x="548" 
d="M441 -124l13 -49q-42 -16 -75.5 -19.5t-53.5 4t-30.5 22.5t-9.5 35t12 42q22 44 75 85q-55 -8 -117 -8q-131 0 -182 66.5t-33 203.5q19 141 79 193.5t198 52.5q122 0 164.5 -41.5t31.5 -121.5q-10 -72 -56 -104t-141 -38l-155 -13q1 -58 28 -78.5t82 -20.5q83 0 184 12
l8 -79q-43 -48 -79 -110q-17 -29 -1 -38t58 4zM168 268l140 12q42 3 61.5 18.5t24.5 53.5q3 38 -15 47t-77 9q-66 -1 -93 -28.5t-41 -111.5z" />
    <glyph glyph-name="Ecaron" unicode="&#x11a;" horiz-adv-x="565" 
d="M339 757l-122 139l45 42l117 -96h8l150 96l33 -50l-152 -131h-79zM556 588h-266q-30 0 -43.5 -13t-17.5 -47l-17 -121h281l-12 -93h-281l-22 -155q-4 -32 7 -44.5t42 -12.5h260l-3 -96q-85 -8 -282 -8q-85 0 -123 41t-28 115l57 410q8 61 49 94.5t111 33.5q215 0 304 -9z
" />
    <glyph glyph-name="ecaron" unicode="&#x11b;" horiz-adv-x="548" 
d="M285 560l-122 139l45 43l116 -97h8l151 96l33 -50l-152 -131h-79zM455 99l8 -79q-77 -32 -208 -32t-182 66.5t-33 203.5q19 141 79 193.5t198 52.5q122 0 164.5 -41.5t31.5 -121.5q-10 -72 -56 -104t-141 -38l-155 -13q1 -58 28 -78.5t82 -20.5q83 0 184 12zM168 268
l140 12q42 3 61.5 18.5t24.5 53.5q3 38 -15 47t-77 9q-66 -1 -93 -28.5t-41 -111.5z" />
    <glyph glyph-name="Gbreve" unicode="&#x11e;" horiz-adv-x="631" 
d="M511 894l59 -12q-3 -62 -50 -101.5t-122 -39.5q-79 0 -119 41.5t-25 103.5l60 4q-5 -32 17.5 -48t67.5 -16q50 0 79 18t33 50zM468 400h120l-56 -400h-90l-3 88q-86 -101 -211 -101q-104 0 -146.5 87t-21.5 276q14 109 41.5 179.5t72.5 108t97.5 51.5t129.5 14
q118 0 203 -24l-17 -92q-96 6 -176 6q-76 0 -116 -18.5t-65 -72.5t-39 -162q-15 -138 3 -191t82 -53q45 0 79.5 20t82.5 67z" />
    <glyph glyph-name="gbreve" unicode="&#x11f;" horiz-adv-x="582" 
d="M446 715l59 -13q-3 -62 -50 -101t-122 -39q-79 0 -119 41.5t-25 103.5l59 4q-4 -32 18.5 -48.5t67.5 -16.5q50 0 79 18.5t33 50.5zM542 475l-63 -450q-26 -232 -301 -232q-104 0 -167 23l11 77q72 -2 148 -2q162 0 187 102q1 5 6 25t8 29.5t9.5 25.5t14.5 29
q-38 -50 -95 -81t-126 -32q-83 -1 -118 58.5t-14 205.5q10 67 26.5 114t36.5 73.5t49.5 41t56 18.5t66.5 4q144 0 265 -29zM411 406l-92 1q-85 0 -111.5 -27t-42.5 -133q-13 -101 -4 -129.5t48 -27.5q43 1 81.5 24t88.5 73z" />
    <glyph glyph-name="Gdotaccent" unicode="&#x120;" horiz-adv-x="631" 
d="M417 753h-38q-17 0 -26 10t-7 27l7 54q4 32 36 32h37q17 0 26.5 -10t7.5 -27l-8 -54q-4 -32 -35 -32zM468 400h120l-56 -400h-90l-3 88q-86 -101 -211 -101q-104 0 -146.5 87t-21.5 276q14 109 41.5 179.5t72.5 108t97.5 51.5t129.5 14q118 0 203 -24l-17 -92
q-96 6 -176 6q-76 0 -116 -18.5t-65 -72.5t-39 -162q-15 -138 3 -191t82 -53q45 0 79.5 20t82.5 67z" />
    <glyph glyph-name="gdotaccent" unicode="&#x121;" horiz-adv-x="582" 
d="M352 573h-38q-17 0 -26 10t-7 27l7 54q4 32 36 32h37q17 0 26.5 -9.5t7.5 -26.5l-8 -54q-5 -33 -35 -33zM542 475l-63 -450q-26 -232 -301 -232q-104 0 -167 23l11 77q72 -2 148 -2q162 0 187 102q1 5 6 25t8 29.5t9.5 25.5t14.5 29q-38 -50 -95 -81t-126 -32
q-83 -1 -118 58.5t-14 205.5q10 67 26.5 114t36.5 73.5t49.5 41t56 18.5t66.5 4q144 0 265 -29zM411 406l-92 1q-85 0 -111.5 -27t-42.5 -133q-13 -101 -4 -129.5t48 -27.5q43 1 81.5 24t88.5 73z" />
    <glyph glyph-name="Gcommaaccent" unicode="&#x122;" horiz-adv-x="631" 
d="M468 400h120l-56 -400h-90l-3 88q-86 -101 -211 -101q-104 0 -146.5 87t-21.5 276q14 109 41.5 179.5t72.5 108t97.5 51.5t129.5 14q118 0 203 -24l-17 -92q-96 6 -176 6q-76 0 -116 -18.5t-65 -72.5t-39 -162q-15 -138 3 -191t82 -53q45 0 79.5 20t82.5 67zM283 -55h29
q42 0 35 -38l-7 -53q-10 -67 -61 -141l-51 17q26 74 32 103q-17 -1 -25.5 7.5t-6.5 23.5l7 46q5 20 14.5 27.5t33.5 7.5z" />
    <glyph glyph-name="gcommaaccent" unicode="&#x123;" horiz-adv-x="582" 
d="M341 554h-28q-23 0 -31 8.5t-4 28.5l7 53q10 67 61 141l51 -17q-24 -62 -33 -103q18 1 26 -7.5t6 -23.5l-7 -46q-4 -20 -14 -27t-34 -7zM542 475l-63 -450q-26 -232 -301 -232q-104 0 -167 23l11 77q72 -2 148 -2q162 0 187 102q1 5 6 25t8 29.5t9.5 25.5t14.5 29
q-38 -50 -95 -81t-126 -32q-83 -1 -118 58.5t-14 205.5q10 67 26.5 114t36.5 73.5t49.5 41t56 18.5t66.5 4q144 0 265 -29zM411 406l-92 1q-85 0 -111.5 -27t-42.5 -133q-13 -101 -4 -129.5t48 -27.5q43 1 81.5 24t88.5 73z" />
    <glyph glyph-name="Hbar" unicode="&#x126;" horiz-adv-x="675" 
d="M698 516h-68l-73 -516h-125l44 315h-270l-45 -315h-126l73 516h-61l8 62h62l15 112h126l-15 -112h270l16 112h125l-16 -112h68zM505 516h-271l-14 -97h271z" />
    <glyph glyph-name="hbar" unicode="&#x127;" horiz-adv-x="586" 
d="M227 568l-7 -51q-9 -66 -24 -120q120 107 218 107q64 0 96.5 -36t22.5 -102l-52 -366h-121l47 334q4 40 -3 53.5t-33 13.5q-38 0 -78 -22t-105 -73l-41 -306h-122l80 568h-65l8 61h66l10 71h121l-10 -71h138l-9 -61h-137z" />
    <glyph glyph-name="Imacron" unicode="&#x12a;" horiz-adv-x="279" 
d="M352 778h-290l12 84h290zM161 0h-126l97 690h126z" />
    <glyph glyph-name="imacron" unicode="&#x12b;" horiz-adv-x="264" 
d="M319 598h-291l12 84h291zM151 0h-121l69 490h121z" />
    <glyph glyph-name="Iogonek" unicode="&#x12e;" horiz-adv-x="279" 
d="M161 0h-16q-45 -49 -78 -110q-18 -29 -1.5 -38t58.5 4l13 -49q-42 -16 -75.5 -19.5t-53.5 4.5t-31 22.5t-10 34.5t12 42q29 55 107 109h-51l97 690h126z" />
    <glyph glyph-name="iogonek" unicode="&#x12f;" horiz-adv-x="264" 
d="M166 696h37q17 0 26.5 -10t7.5 -27l-8 -54q-4 -32 -35 -32h-38q-17 0 -26 10t-7 26l7 54q4 33 36 33zM99 490h121l-69 -490h-10q-43 -48 -79 -110q-17 -29 -1 -38t58 4l14 -49q-42 -16 -75.5 -19.5t-53.5 4.5t-31 22.5t-10 34.5t12 42q27 54 106 109h-51z" />
    <glyph glyph-name="Idotaccent" unicode="&#x130;" horiz-adv-x="279" 
d="M199 876h38q17 0 26 -10t7 -27l-7 -54q-6 -32 -36 -32h-38q-17 0 -26 10t-7 27l7 54q6 32 36 32zM161 0h-126l97 690h126z" />
    <glyph glyph-name="dotlessi" unicode="&#x131;" horiz-adv-x="264" 
d="M151 0h-121l69 490h121z" />
    <glyph glyph-name="IJ" unicode="&#x132;" horiz-adv-x="630" 
d="M161 0h-126l97 690h126zM613 690l-76 -540q-11 -79 -52 -120t-107 -41q-69 0 -112 18l23 86h43q72 0 80 65l75 532h126z" />
    <glyph glyph-name="ij" unicode="&#x133;" horiz-adv-x="525" 
d="M159 703h55q18 0 26.5 -10t6.5 -27l-7 -55q-6 -33 -38 -33h-55q-38 0 -33 38l8 54q3 33 37 33zM421 703h55q18 0 26.5 -10t6.5 -27l-7 -55q-4 -33 -38 -33h-55q-38 0 -33 38l8 54q3 33 37 33zM151 0h-121l69 490h120zM482 490l-68 -485q-9 -64 -45 -119t-91 -87l-65 57
q67 69 80 155l68 479h121z" />
    <glyph glyph-name="Kcommaaccent" unicode="&#x136;" horiz-adv-x="613" 
d="M369 358l-1 -5q22 -22 40 -60l154 -293h-140l-158 311h-67q2 -37 -3 -70l-33 -241h-126l97 690h126l-30 -207q-8 -50 -16 -76h64l223 283h149l-224 -283q-26 -32 -55 -49zM266 -55h29q22 0 30.5 -9t4.5 -29l-7 -53q-10 -67 -61 -141l-51 17q23 61 33 103q-36 -2 -33 31
l8 46q4 20 13.5 27.5t33.5 7.5z" />
    <glyph glyph-name="kcommaaccent" unicode="&#x137;" horiz-adv-x="543" 
d="M399 490h124q-38 -133 -158 -220q18 -24 34 -60l92 -210h-129l-88 215q-35 -19 -102 -49l-25 -166h-121l98 700h122l-42 -313q-8 -60 -34 -123q199 105 229 226zM245 -54h28q22 0 30.5 -9t4.5 -29l-7 -53q-10 -68 -61 -140l-51 16q24 66 33 103q-18 -1 -26 8t-6 24l7 46
q4 20 13.5 27t34.5 7z" />
    <glyph glyph-name="Lacute" unicode="&#x139;" horiz-adv-x="517" 
d="M389 833l-226 -111l-33 54l207 149zM255 690l-74 -530q-4 -28 6.5 -42t41.5 -14h240l-3 -98q-86 -8 -272 -8q-74 0 -111.5 40.5t-26.5 117.5l73 534h126z" />
    <glyph glyph-name="lacute" unicode="&#x13a;" horiz-adv-x="311" 
d="M385 854l-226 -111l-33 54l207 148zM246 700l-78 -550q-4 -31 6.5 -42.5t42.5 -11.5h44l5 -91q-32 -16 -103 -16q-63 0 -95 36t-24 101l81 574h121z" />
    <glyph glyph-name="Lcommaaccent" unicode="&#x13b;" horiz-adv-x="517" 
d="M255 690l-74 -530q-4 -28 6.5 -42t41.5 -14h240l-3 -98q-86 -8 -272 -8q-74 0 -111.5 40.5t-26.5 117.5l73 534h126zM252 -55h29q22 0 30 -9t5 -29l-8 -53q-10 -66 -60 -141l-52 17q26 67 33 103q-17 -1 -25.5 7.5t-6.5 23.5l7 46q5 20 14.5 27.5t33.5 7.5z" />
    <glyph glyph-name="lcommaaccent" unicode="&#x13c;" horiz-adv-x="311" 
d="M246 700l-78 -550q-4 -31 6.5 -42.5t42.5 -11.5h44l5 -91q-32 -16 -103 -16q-63 0 -95 36t-24 101l81 574h121zM131 -55h29q22 0 30.5 -8.5t4.5 -28.5l-8 -53q-8 -66 -60 -141l-51 16q27 78 32 104q-17 -1 -25.5 7t-6.5 24l7 46q4 20 14 27t34 7z" />
    <glyph glyph-name="Lcaron" unicode="&#x13d;" horiz-adv-x="517" 
d="M370 691h29q42 0 35 -37l-8 -53q-9 -68 -60 -141l-51 16q27 78 32 104q-17 -1 -25.5 7t-6.5 24l7 46q4 20 14 27t34 7zM255 690l-74 -530q-4 -28 6.5 -42t41.5 -14h240l-3 -98q-86 -8 -272 -8q-74 0 -111.5 40.5t-26.5 117.5l73 534h126z" />
    <glyph glyph-name="lcaron" unicode="&#x13e;" horiz-adv-x="311" 
d="M246 700l-78 -550q-4 -31 6.5 -42.5t42.5 -11.5h44l5 -91q-32 -16 -103 -16q-63 0 -95 36t-24 101l81 574h121zM335 700h29q42 0 35 -38l-7 -53q-10 -67 -61 -141l-51 17q26 74 32 103q-17 -1 -25.5 7t-6.5 24l7 46q5 20 14.5 27.5t33.5 7.5z" />
    <glyph glyph-name="Ldot" unicode="&#x13f;" horiz-adv-x="517" 
d="M255 690l-74 -530q-4 -28 6.5 -42t41.5 -14h240l-3 -98q-86 -8 -272 -8q-74 0 -111.5 40.5t-26.5 117.5l73 534h126zM417 341h-37q-17 0 -26.5 10t-7.5 27l8 54q4 32 35 32h38q17 0 26 -10t7 -27l-7 -54q-4 -32 -36 -32z" />
    <glyph glyph-name="ldot" unicode="&#x140;" horiz-adv-x="371" 
d="M246 700l-78 -550q-4 -31 6.5 -42.5t42.5 -11.5h44l5 -91q-32 -16 -103 -16q-63 0 -95 36t-24 101l81 574h121zM341 311h-38q-17 0 -26 10t-7 26l7 55q4 32 36 32h38q17 0 26 -10t6 -27l-6 -54q-6 -32 -36 -32z" />
    <glyph glyph-name="Lslash" unicode="&#x141;" horiz-adv-x="517" 
d="M469 104l-3 -98q-86 -8 -272 -8q-74 0 -111.5 40.5t-26.5 117.5l22 163l-62 -24l8 71l64 25l41 299h126l-35 -248l120 46l-8 -71l-122 -47l-29 -210q-4 -28 6.5 -42t41.5 -14h240z" />
    <glyph glyph-name="lslash" unicode="&#x142;" horiz-adv-x="313" 
d="M201 369l-31 -219q-5 -31 6 -42.5t43 -11.5h44l5 -91q-33 -16 -103 -16q-64 0 -96 36t-23 101l27 194l-65 -25l9 71l66 26l44 308h121l-37 -259l122 47l-9 -71z" />
    <glyph glyph-name="Nacute" unicode="&#x143;" horiz-adv-x="712" 
d="M611 835l-225 -111l-33 54l206 148zM692 690l-92 -646q-6 -44 -48 -44h-91q-33 0 -47 40l-145 423q-19 53 -28 101h-12q-1 -44 -8 -101l-63 -463h-123l91 646q6 44 49 44h90q33 0 47 -40l140 -411q25 -76 34 -109h14q1 54 9 108l61 452h122z" />
    <glyph glyph-name="nacute" unicode="&#x144;" horiz-adv-x="587" 
d="M299 544l-33 54l206 148l52 -91zM191 490l-3 -101q124 115 228 115q62 0 94.5 -36t23.5 -102l-52 -366h-121l46 332q5 41 -2.5 55.5t-33.5 13.5q-38 0 -78 -22t-104 -72l-42 -307h-121l69 490h96z" />
    <glyph glyph-name="Ncommaaccent" unicode="&#x145;" horiz-adv-x="712" 
d="M692 690l-92 -646q-6 -44 -48 -44h-91q-33 0 -47 40l-145 423q-19 53 -28 101h-12q-1 -44 -8 -101l-63 -463h-123l91 646q6 44 49 44h90q33 0 47 -40l140 -411q25 -76 34 -109h14q1 54 9 108l61 452h122zM319 -55h29q42 0 35 -38l-8 -53q-8 -66 -60 -141l-51 17
q26 74 32 103q-17 -1 -25.5 7.5t-6.5 23.5l7 46q5 20 14.5 27.5t33.5 7.5z" />
    <glyph glyph-name="ncommaaccent" unicode="&#x146;" horiz-adv-x="587" 
d="M191 490l-3 -101q124 115 228 115q62 0 94.5 -36t23.5 -102l-52 -366h-121l46 332q5 41 -2.5 55.5t-33.5 13.5q-38 0 -78 -22t-104 -72l-42 -307h-121l69 490h96zM242 -54h29q22 0 30 -9t4 -29l-7 -53q-10 -67 -60 -140l-52 16q24 66 33 103q-17 -1 -25.5 7.5t-6.5 24.5
l7 46q4 20 14 27t34 7z" />
    <glyph glyph-name="Ncaron" unicode="&#x147;" horiz-adv-x="712" 
d="M618 871l-152 -131h-79l-122 139l45 43l117 -97h8l150 96zM692 690l-92 -646q-6 -44 -48 -44h-91q-33 0 -47 40l-145 423q-19 53 -28 101h-12q-1 -44 -8 -101l-63 -463h-123l91 646q6 44 49 44h90q33 0 47 -40l140 -411q25 -76 34 -109h14q1 54 9 108l61 452h122z" />
    <glyph glyph-name="ncaron" unicode="&#x148;" horiz-adv-x="587" 
d="M300 560l-122 139l45 43l117 -97h8l150 96l33 -50l-152 -131h-79zM191 490l-3 -101q124 115 228 115q62 0 94.5 -36t23.5 -102l-52 -366h-121l46 332q5 41 -2.5 55.5t-33.5 13.5q-38 0 -78 -22t-104 -72l-42 -307h-121l69 490h96z" />
    <glyph glyph-name="Eng" unicode="&#x14a;" horiz-adv-x="712" 
d="M692 690l-107 -758q-10 -69 -51 -107.5t-102 -37.5q-60 0 -106 18l21 78h43q73 0 82 64l8 55h-24q-6 0 -12 6t-8.5 11.5t-6.5 17.5l-161 409q-16 39 -26 102h-12q-1 -45 -10 -106l-62 -442h-123l91 646q6 44 49 44h79q19 0 29.5 -9.5t18.5 -30.5l150 -394q23 -62 35 -109
h12q0 47 9 115l61 428h123z" />
    <glyph glyph-name="eng" unicode="&#x14b;" horiz-adv-x="587" 
d="M188 490v-101q121 115 223 115q68 0 100 -36t23 -102l-57 -407q-23 -161 -151 -161q-59 0 -105 18l21 76h37q33 0 51.5 14.5t24.5 50.5l52 377q5 35 -3 47.5t-37 12.5q-57 0 -178 -88l-42 -306h-121l69 490h93z" />
    <glyph glyph-name="Omacron" unicode="&#x14c;" horiz-adv-x="672" 
d="M548 778h-290l12 84h290zM387 703q151 0 209 -82.5t31 -280.5q-27 -201 -99 -277t-225 -76t-211.5 81t-31.5 282q27 197 99 275t228 78zM382 596q-91 0 -130 -52.5t-61 -203.5q-20 -142 4 -194t111 -52q88 0 128.5 54t61.5 202q22 145 -2.5 195.5t-111.5 50.5z" />
    <glyph glyph-name="omacron" unicode="&#x14d;" horiz-adv-x="573" 
d="M473 598h-290l12 84h290zM311 504q130 0 180.5 -61.5t30.5 -202.5q-19 -138 -80.5 -195.5t-189.5 -57.5q-129 0 -181 61t-33 201q20 139 81 197t192 58zM310 407q-69 0 -100 -34t-45 -133q-14 -92 4 -124t84 -32q69 0 100 34.5t44 130.5q13 94 -4.5 126t-82.5 32z" />
    <glyph glyph-name="Ohungarumlaut" unicode="&#x150;" horiz-adv-x="672" 
d="M462 881l-164 -162l-50 37l141 176zM640 881l-164 -162l-48 37l140 176zM387 703q151 0 209 -82.5t31 -280.5q-27 -201 -99 -277t-225 -76t-211.5 81t-31.5 282q27 197 99 275t228 78zM382 596q-91 0 -130 -52.5t-61 -203.5q-20 -142 4 -194t111 -52q88 0 128.5 54
t61.5 202q22 145 -2.5 195.5t-111.5 50.5z" />
    <glyph glyph-name="ohungarumlaut" unicode="&#x151;" horiz-adv-x="573" 
d="M387 700l-164 -162l-50 38l141 175zM565 700l-164 -162l-48 38l140 175zM311 504q130 0 180.5 -61.5t30.5 -202.5q-19 -138 -80.5 -195.5t-189.5 -57.5q-129 0 -181 61t-33 201q20 139 81 197t192 58zM310 407q-69 0 -100 -34t-45 -133q-14 -92 4 -124t84 -32
q69 0 100 34.5t44 130.5q13 94 -4.5 126t-82.5 32z" />
    <glyph glyph-name="OE" unicode="&#x152;" horiz-adv-x="937" 
d="M928 588h-266q-29 0 -43 -13.5t-18 -46.5l-16 -121h280l-12 -93h-281l-21 -156q-4 -31 6 -43.5t41 -12.5h261l-3 -96q-86 -8 -284 -8q-65 0 -101 24q-77 -35 -171 -35q-161 0 -215 79t-25 284q28 202 99 277.5t226 75.5q95 0 168 -29q36 18 86 18q215 0 305 -9zM423 150
l57 414q1 4 2.5 11.5t2.5 10.5q-45 10 -100 10q-90 0 -132 -54.5t-62 -201.5q-20 -142 3 -194t107 -52q67 0 120 15q-1 16 2 41z" />
    <glyph glyph-name="oe" unicode="&#x153;" horiz-adv-x="901" 
d="M806 99l8 -79q-73 -32 -203 -32q-118 0 -172 58q-63 -59 -188 -59q-129 0 -180.5 61t-32.5 201q20 139 81 197t190 58q117 0 169 -52q60 52 195 52q121 0 164 -41.5t32 -121.5q-11 -72 -57 -104t-140 -38l-154 -13q1 -59 27.5 -79t82.5 -20q82 0 178 12zM525 268l139 12
q42 3 61.5 18.5t23.5 53.5t-14 47t-77 9q-66 -1 -93 -28.5t-40 -111.5zM252 84q69 0 99.5 35t43.5 130q13 93 -4.5 125.5t-81.5 32.5q-69 0 -99.5 -34t-45.5 -133q-13 -92 5 -124t83 -32z" />
    <glyph glyph-name="Racute" unicode="&#x154;" horiz-adv-x="629" 
d="M331 724l-33 54l207 148l52 -91zM35 0l97 690q89 9 245 9q119 0 175.5 -47t41.5 -160q-10 -75 -46 -117.5t-109 -51.5l-1 -6q64 -16 79 -103l41 -214h-128l-37 216q-6 34 -21 47t-46 13l-129 1l-39 -277h-123zM211 379h122q67 1 96 25.5t39 89.5q8 59 -12 80.5t-82 21.5
h-132z" />
    <glyph glyph-name="racute" unicode="&#x155;" horiz-adv-x="410" 
d="M236 544l-33 54l206 148l52 -91zM188 490l-3 -104q118 118 215 118h28l-28 -114h-32q-24 0 -53 -11.5t-53 -25t-73 -45.5l-42 -308h-121l69 490h93z" />
    <glyph glyph-name="Rcommaaccent" unicode="&#x156;" horiz-adv-x="629" 
d="M35 0l97 690q89 9 245 9q119 0 175.5 -47t41.5 -160q-10 -75 -46 -117.5t-109 -51.5l-1 -6q64 -16 79 -103l41 -214h-128l-37 216q-6 34 -21 47t-46 13l-129 1l-39 -277h-123zM211 379h122q67 1 96 25.5t39 89.5q8 59 -12 80.5t-82 21.5h-132zM297 -55h28q22 0 30.5 -9
t4.5 -29l-7 -53q-10 -67 -61 -141l-51 17q23 61 33 103q-18 -1 -26 7.5t-6 23.5l7 46q5 20 14.5 27.5t33.5 7.5z" />
    <glyph glyph-name="rcommaaccent" unicode="&#x157;" horiz-adv-x="410" 
d="M428 504l-28 -114h-32q-24 0 -53 -11.5t-53 -25t-73 -45.5l-42 -308h-121l69 490h93l-3 -104q118 118 215 118h28zM62 -54h28q22 0 30.5 -9t4.5 -29l-7 -53q-10 -68 -61 -140l-51 16q24 66 33 103q-18 -1 -26 8t-6 24l7 46q4 20 14 27t34 7z" />
    <glyph glyph-name="Rcaron" unicode="&#x158;" horiz-adv-x="629" 
d="M333 740l-122 139l45 43l116 -97h8l151 96l33 -50l-153 -131h-78zM35 0l97 690q89 9 245 9q119 0 175.5 -47t41.5 -160q-10 -75 -46 -117.5t-109 -51.5l-1 -6q64 -16 79 -103l41 -214h-128l-37 216q-6 34 -21 47t-46 13l-129 1l-39 -277h-123zM211 379h122q67 1 96 25.5
t39 89.5q8 59 -12 80.5t-82 21.5h-132z" />
    <glyph glyph-name="rcaron" unicode="&#x159;" horiz-adv-x="410" 
d="M237 560l-122 139l45 43l117 -97h8l150 96l33 -50l-152 -131h-79zM188 490l-3 -104q118 118 215 118h28l-28 -114h-32q-24 0 -53 -11.5t-53 -25t-73 -45.5l-42 -308h-121l69 490h93z" />
    <glyph glyph-name="Sacute" unicode="&#x15a;" horiz-adv-x="568" 
d="M531 835l-225 -111l-33 54l206 148zM326 274l-132 48q-72 27 -98 75.5t-16 123.5q16 110 74 145.5t181 35.5q128 0 216 -24l-13 -88q-118 4 -202 4q-32 0 -45.5 -0.5t-32.5 -4.5t-27 -13t-15 -24.5t-11 -40.5q-6 -43 5.5 -58t54.5 -30l128 -46q77 -28 101.5 -74
t13.5 -126q-15 -113 -71.5 -151t-192.5 -38q-114 0 -224 23l14 91q175 -4 205 -4q81 0 109 16t35 72q6 43 -5.5 58.5t-51.5 29.5z" />
    <glyph glyph-name="sacute" unicode="&#x15b;" horiz-adv-x="514" 
d="M486 655l-225 -111l-33 54l206 148zM275 178l-125 56q-57 26 -80 61t-17 87q8 68 58.5 95.5t154.5 26.5q117 -2 217 -18l-13 -83q-95 3 -196 3q-61 0 -81 -5t-23 -27q-3 -20 9 -30.5t47 -25.5l125 -56q62 -27 85 -58.5t16 -86.5q-5 -34 -18 -57t-31.5 -37t-49 -21.5
t-61.5 -10t-77 -2.5q-38 0 -67 1.5t-43.5 3t-43.5 5.5t-47 6l13 85q53 -4 152 -4q91 0 120.5 7.5t34.5 31.5q-1 6 0.5 9.5t-1.5 7.5t-3.5 6t-5 5t-6.5 5t-8 4.5t-10 4.5t-12 5.5t-13 5.5z" />
    <glyph glyph-name="Scedilla" unicode="&#x15e;" horiz-adv-x="568" 
d="M326 274l-132 48q-72 27 -98 75.5t-16 123.5q16 110 74 145.5t181 35.5q128 0 216 -24l-13 -88q-118 4 -202 4q-32 0 -45.5 -0.5t-32.5 -4.5t-27 -13t-15 -24.5t-11 -40.5q-6 -43 5.5 -58t54.5 -30l128 -46q77 -28 101.5 -74t13.5 -126q-15 -113 -71.5 -151t-192.5 -38
q-114 0 -224 23l14 91q175 -4 205 -4q81 0 109 16t35 72q6 43 -5.5 58.5t-51.5 29.5zM170 -108l14 53q72 8 102.5 -6t21.5 -63q-11 -68 -67 -102t-133 -23l20 58q36 0 63.5 17.5t33.5 46.5q2 12 -7.5 15.5t-47.5 3.5z" />
    <glyph glyph-name="scedilla" unicode="&#x15f;" horiz-adv-x="514" 
d="M275 178l-125 56q-57 26 -80 61t-17 87q8 68 58.5 95.5t154.5 26.5q117 -2 217 -18l-13 -83q-95 3 -196 3q-61 0 -81 -5t-23 -27q-3 -20 9 -30.5t47 -25.5l125 -56q62 -27 85 -58.5t16 -86.5q-5 -34 -18 -57t-31.5 -37t-49 -21.5t-61.5 -10t-77 -2.5q-38 0 -67 1.5
t-43.5 3t-43.5 5.5t-47 6l13 85q53 -4 152 -4q91 0 120.5 7.5t34.5 31.5q-1 6 0.5 9.5t-1.5 7.5t-3.5 6t-5 5t-6.5 5t-8 4.5t-10 4.5t-12 5.5t-13 5.5zM135 -105l14 53q72 8 102.5 -6t21.5 -63q-12 -68 -67.5 -102t-132.5 -23l20 59q36 -1 63.5 16.5t33.5 46.5
q2 12 -7.5 15.5t-47.5 3.5z" />
    <glyph glyph-name="Scaron" unicode="&#x160;" horiz-adv-x="568" 
d="M538 871l-152 -131h-78l-123 139l45 43l117 -97h8l150 96zM326 274l-132 48q-72 27 -98 75.5t-16 123.5q16 110 74 145.5t181 35.5q128 0 216 -24l-13 -88q-118 4 -202 4q-32 0 -45.5 -0.5t-32.5 -4.5t-27 -13t-15 -24.5t-11 -40.5q-6 -43 5.5 -58t54.5 -30l128 -46
q77 -28 101.5 -74t13.5 -126q-15 -113 -71.5 -151t-192.5 -38q-114 0 -224 23l14 91q175 -4 205 -4q81 0 109 16t35 72q6 43 -5.5 58.5t-51.5 29.5z" />
    <glyph glyph-name="scaron" unicode="&#x161;" horiz-adv-x="514" 
d="M493 691l-152 -131h-78l-123 139l45 43l117 -97h8l150 96zM275 178l-125 56q-57 26 -80 61t-17 87q8 68 58.5 95.5t154.5 26.5q117 -2 217 -18l-13 -83q-95 3 -196 3q-61 0 -81 -5t-23 -27q-3 -20 9 -30.5t47 -25.5l125 -56q62 -27 85 -58.5t16 -86.5q-5 -34 -18 -57
t-31.5 -37t-49 -21.5t-61.5 -10t-77 -2.5q-38 0 -67 1.5t-43.5 3t-43.5 5.5t-47 6l13 85q53 -4 152 -4q91 0 120.5 7.5t34.5 31.5q-1 6 0.5 9.5t-1.5 7.5t-3.5 6t-5 5t-6.5 5t-8 4.5t-10 4.5t-12 5.5t-13 5.5z" />
    <glyph glyph-name="Tcedilla" unicode="&#x162;" horiz-adv-x="584" 
d="M607 583h-212l-82 -583h-125l82 583h-211l15 107h548zM173 -94l14 53q73 7 103 -7t21 -63q-12 -68 -67.5 -101.5t-132.5 -23.5l20 59q36 -1 63.5 16.5t33.5 46.5q2 13 -7.5 16.5t-47.5 3.5z" />
    <glyph glyph-name="tcedilla" unicode="&#x163;" horiz-adv-x="397" 
d="M245 402l-36 -252q-4 -32 5.5 -43t42.5 -11h69l5 -90q-51 -17 -124 -17q-67 0 -98.5 38t-21.5 107l38 268h-89l11 83l91 5l20 141h120l-20 -141h142l-11 -88h-144zM108 -104l14 53q73 8 103 -6t21 -64q-11 -68 -67 -101.5t-133 -23.5l20 59q37 -1 64 16.5t33 46.5
q2 13 -7 16.5t-48 3.5z" />
    <glyph glyph-name="Tcaron" unicode="&#x164;" horiz-adv-x="584" 
d="M318 740l-123 139l45 43l117 -97h8l150 96l33 -50l-152 -131h-78zM607 583h-212l-82 -583h-125l82 583h-211l15 107h548z" />
    <glyph glyph-name="tcaron" unicode="&#x165;" horiz-adv-x="397" 
d="M370 784h29q42 0 35 -38l-8 -53q-8 -66 -60 -141l-51 17q26 74 32 103q-17 -1 -25.5 7.5t-6.5 24.5l7 45q5 20 14.5 27.5t33.5 7.5zM258 490h142l-11 -88h-144l-36 -252q-4 -32 5.5 -43t42.5 -11h69l5 -90q-51 -17 -124 -17q-67 0 -98.5 38t-21.5 107l38 268h-89l11 83
l91 5l20 141h120z" />
    <glyph glyph-name="Tbar" unicode="&#x166;" horiz-adv-x="584" 
d="M395 583l-24 -171h140l-9 -64h-140l-49 -348h-125l48 348h-126l9 64h127l24 171h-211l15 107h548l-15 -107h-212z" />
    <glyph glyph-name="tbar" unicode="&#x167;" horiz-adv-x="397" 
d="M245 402l-11 -76h117l-8 -65h-118l-16 -111q-4 -32 5.5 -43t42.5 -11h69l5 -90q-51 -17 -124 -17q-67 0 -98.5 38t-21.5 107l18 127h-63l9 65h63l11 76h-89l11 83l91 5l20 141h120l-20 -141h142l-11 -88h-144z" />
    <glyph glyph-name="Umacron" unicode="&#x16a;" horiz-adv-x="668" 
d="M547 778h-291l12 84h291zM653 690l-60 -422q-22 -154 -88 -217.5t-202 -63.5q-140 0 -198 67t-37 219l58 417h126l-59 -422q-14 -100 9 -137t99 -37q79 0 116 39.5t52 139.5l58 417h126z" />
    <glyph glyph-name="umacron" unicode="&#x16b;" horiz-adv-x="577" 
d="M479 604h-291l12 84h291zM537 490l-68 -490h-94l4 97q-116 -110 -218 -110q-68 0 -99 37t-21 101l51 365h121l-47 -333q-6 -37 3.5 -52t38.5 -15q37 0 72 21t95 73l42 306h120z" />
    <glyph glyph-name="Uring" unicode="&#x16e;" horiz-adv-x="668" 
d="M414 934q51 0 82.5 -32.5t25.5 -82.5q-5 -46 -36.5 -75.5t-81.5 -29.5q-52 0 -82 32t-25 82q5 45 36 75.5t81 30.5zM414 878q-24 0 -39 -15t-17 -38q-3 -26 11.5 -41t36.5 -15q24 0 38.5 15.5t16.5 40.5q2 24 -11 38.5t-36 14.5zM653 690l-60 -422q-22 -154 -88 -217.5
t-202 -63.5q-140 0 -198 67t-37 219l58 417h126l-59 -422q-14 -100 9 -137t99 -37q79 0 116 39.5t52 139.5l58 417h126z" />
    <glyph glyph-name="uring" unicode="&#x16f;" horiz-adv-x="577" 
d="M336 539q-52 0 -82 32.5t-25 81.5q5 46 36 76t81 30q51 0 82.5 -32.5t25.5 -82.5q-6 -45 -37 -75t-81 -30zM290 650q-3 -26 11 -40.5t37 -14.5q24 0 38.5 15.5t16.5 40.5q2 23 -11 38t-36 15q-24 0 -39 -15.5t-17 -38.5zM537 490l-68 -490h-94l4 97q-116 -110 -218 -110
q-68 0 -99 37t-21 101l51 365h121l-47 -333q-6 -37 3.5 -52t38.5 -15q37 0 72 21t95 73l42 306h120z" />
    <glyph glyph-name="Uhungarumlaut" unicode="&#x170;" horiz-adv-x="668" 
d="M460 881l-164 -162l-49 37l141 176zM639 881l-164 -162l-49 37l140 176zM653 690l-60 -422q-22 -154 -88 -217.5t-202 -63.5q-140 0 -198 67t-37 219l58 417h126l-59 -422q-14 -100 9 -137t99 -37q79 0 116 39.5t52 139.5l58 417h126z" />
    <glyph glyph-name="uhungarumlaut" unicode="&#x171;" horiz-adv-x="577" 
d="M228 544l-49 38l141 175l72 -51zM358 581l140 176l73 -51l-164 -162zM417 490h120l-68 -490h-94l4 97q-116 -110 -218 -110q-68 0 -99 37t-21 101l51 365h121l-47 -333q-6 -37 3.5 -52t38.5 -15q37 0 72 21t95 73z" />
    <glyph glyph-name="Uogonek" unicode="&#x172;" horiz-adv-x="668" 
d="M653 690l-60 -422q-21 -147 -81.5 -211t-181.5 -70q-41 -43 -75 -106q-18 -29 -1.5 -38t58.5 4l13 -49q-42 -16 -75.5 -19.5t-53.5 4.5t-31 22.5t-10 34.5t12 42q26 52 102 106q-121 8 -171 75.5t-30 209.5l58 417h126l-59 -422q-14 -100 9 -137t99 -37q79 0 116 39.5
t52 139.5l58 417h126z" />
    <glyph glyph-name="uogonek" unicode="&#x173;" horiz-adv-x="577" 
d="M537 490l-68 -490q-45 -49 -78 -110q-18 -29 -1.5 -38t58.5 4l13 -49q-42 -16 -75.5 -19.5t-53.5 4.5t-31 22.5t-10 34.5t12 42q29 55 107 109h-35l4 97q-116 -110 -218 -110q-68 0 -99 37t-21 101l51 365h121l-47 -333q-6 -37 3.5 -52t38.5 -15q37 0 72 21t95 73l42 306
h120z" />
    <glyph glyph-name="Wcircumflex" unicode="&#x174;" horiz-adv-x="955" 
d="M725 766l-41 -45l-124 100h-8l-152 -98l-33 50l148 131h84zM984 690l-213 -657q-11 -33 -48 -33h-128q-17 0 -29.5 11.5t-13.5 27.5l-21 479q0 9 -1 25t-1.5 29.5t-0.5 25.5h-20q-8 -32 -24 -83l-153 -481q-11 -34 -48 -34h-127q-17 0 -30 11t-14 27l-31 652h127l10 -505
q1 -43 0 -94h22q5 20 29 99l148 463q13 37 50 37h119q18 0 29 -12t12 -30l27 -464q4 -62 3 -93h22q9 38 26 97l149 502h130z" />
    <glyph glyph-name="wcircumflex" unicode="&#x175;" horiz-adv-x="872" 
d="M653 587l-41 -46l-125 100h-8l-152 -97l-32 49l147 132h85zM218 90h13q30 0 50 44q20 40 40 125q16 69 34 202q1 13 10.5 21t22.5 8h126q12 0 20 -7.5t10 -19.5l36 -373h11q23 0 42 39q30 55 57 135q28 89 47 226h125q-29 -146 -75 -267q-39 -102 -76 -157
q-23 -35 -48.5 -50.5t-66.5 -15.5h-71q-15 0 -25 9t-12 23l-32 382h-13q-8 -95 -29 -183q-24 -93 -51 -144q-24 -50 -58 -68.5t-81 -18.5h-67q-15 0 -25 9t-12 23l-80 459h126z" />
    <glyph glyph-name="Ycircumflex" unicode="&#x176;" horiz-adv-x="586" 
d="M213 724l-32 50l147 131h85l126 -138l-42 -45l-124 100h-8zM344 232l-32 -232h-126l34 238l-161 452h127l87 -270q13 -38 16 -84h10q9 38 38 87l163 267h136z" />
    <glyph glyph-name="ycircumflex" unicode="&#x177;" horiz-adv-x="560" 
d="M162 544l-32 49l147 132h85l126 -138l-42 -46l-124 100h-8zM422 490h127q-48 -239 -139 -412q-78 -147 -159 -207.5t-195 -74.5l-19 82q65 15 112 40.5t90 81.5h-51q-23 0 -40 13.5t-21 35.5l-89 441h128l63 -384q3 -16 19 -16h46l13 27q81 175 115 373z" />
    <glyph glyph-name="Ydieresis" unicode="&#x178;" horiz-adv-x="586" 
d="M461 763h-42q-30 0 -26 28l9 58q4 30 34 30h39q17 0 23 -7t4 -23l-9 -57q-3 -29 -32 -29zM292 763h-42q-30 0 -26 28l9 58q4 30 35 30h38q18 0 23.5 -7t3.5 -23l-9 -57q-3 -29 -32 -29zM344 232l-32 -232h-126l34 238l-161 452h127l87 -270q13 -38 16 -84h10q9 38 38 87
l163 267h136z" />
    <glyph glyph-name="Zacute" unicode="&#x179;" horiz-adv-x="570" 
d="M313 724l-33 54l206 148l52 -91zM562 588l-406 -486h345l-14 -102h-484l14 102l406 486h-332l15 102h471z" />
    <glyph glyph-name="zacute" unicode="&#x17a;" horiz-adv-x="515" 
d="M253 544l-33 54l206 148l52 -91zM483 397l-328 -304h289l-13 -93h-428l12 93l328 304h-280l12 93h420l-13 -93h1z" />
    <glyph glyph-name="Zdotaccent" unicode="&#x17b;" horiz-adv-x="570" 
d="M375 753h-38q-17 0 -26 10t-6 27l6 54q6 32 36 32h38q17 0 26.5 -10t6.5 -27l-7 -54q-4 -32 -36 -32zM562 588l-406 -486h345l-14 -102h-484l14 102l406 486h-332l15 102h471z" />
    <glyph glyph-name="zdotaccent" unicode="&#x17c;" horiz-adv-x="515" 
d="M315 573h-38q-17 0 -26 10t-6 26l7 54q4 33 36 33h37q17 0 26.5 -10t7.5 -27l-8 -54q-4 -32 -36 -32zM483 397l-328 -304h289l-13 -93h-428l12 93l328 304h-280l12 93h420l-13 -93h1z" />
    <glyph glyph-name="Zcaron" unicode="&#x17d;" horiz-adv-x="570" 
d="M314 740l-122 139l45 43l117 -97h8l150 96l33 -50l-152 -131h-79zM562 588l-406 -486h345l-14 -102h-484l14 102l406 486h-332l15 102h471z" />
    <glyph glyph-name="zcaron" unicode="&#x17e;" horiz-adv-x="515" 
d="M254 560l-122 139l45 43l117 -97h8l150 96l33 -50l-152 -131h-79zM483 397l-328 -304h289l-13 -93h-428l12 93l328 304h-280l12 93h420l-13 -93h1z" />
    <glyph glyph-name="florin" unicode="&#x192;" horiz-adv-x="457" 
d="M475 606h-68q-39 0 -59 -15t-29 -55l-30 -132h127l-20 -89h-128l-75 -325q-17 -72 -58.5 -109t-117.5 -37q-71 0 -119 9l25 87h63q38 0 59 16.5t29 53.5l71 305h-97l16 79l102 9l35 152q33 146 179 146q74 0 120 -9z" />
    <glyph glyph-name="Scommaaccent" unicode="&#x218;" horiz-adv-x="568" 
d="M326 274l-132 48q-72 27 -98 75.5t-16 123.5q16 110 74 145.5t181 35.5q128 0 216 -24l-13 -88q-118 4 -202 4q-32 0 -45.5 -0.5t-32.5 -4.5t-27 -13t-15 -24.5t-11 -40.5q-6 -43 5.5 -58t54.5 -30l128 -46q77 -28 101.5 -74t13.5 -126q-15 -113 -71.5 -151t-192.5 -38
q-114 0 -224 23l14 91q175 -4 205 -4q81 0 109 16t35 72q6 43 -5.5 58.5t-51.5 29.5zM246 -55h29q22 0 30 -9t4 -29l-7 -53q-10 -66 -60 -141l-52 17q23 61 33 103q-17 -1 -25.5 7.5t-6.5 23.5l7 46q5 20 14.5 27.5t33.5 7.5z" />
    <glyph glyph-name="scommaaccent" unicode="&#x219;" horiz-adv-x="514" 
d="M275 178l-125 56q-57 26 -80 61t-17 87q8 68 58.5 95.5t154.5 26.5q117 -2 217 -18l-13 -83q-95 3 -196 3q-61 0 -81 -5t-23 -27q-3 -20 9 -30.5t47 -25.5l125 -56q62 -27 85 -58.5t16 -86.5q-5 -34 -18 -57t-31.5 -37t-49 -21.5t-61.5 -10t-77 -2.5q-38 0 -67 1.5
t-43.5 3t-43.5 5.5t-47 6l13 85q53 -4 152 -4q91 0 120.5 7.5t34.5 31.5q-1 6 0.5 9.5t-1.5 7.5t-3.5 6t-5 5t-6.5 5t-8 4.5t-10 4.5t-12 5.5t-13 5.5zM200 -55h28q23 0 31 -8.5t4 -28.5l-7 -53q-10 -67 -61 -141l-51 16q24 66 33 104q-18 -1 -26 7.5t-6 23.5l7 46
q4 20 14 27t34 7z" />
    <glyph glyph-name="uni021A" unicode="&#x21a;" horiz-adv-x="584" 
d="M607 583h-212l-82 -583h-125l82 583h-211l15 107h548zM231 -54h29q22 0 30 -9t5 -29l-8 -53q-10 -67 -60 -140l-52 16q27 71 33 103q-17 -1 -25.5 7.5t-6.5 24.5l7 46q4 20 14 27t34 7z" />
    <glyph glyph-name="uni021B" unicode="&#x21b;" horiz-adv-x="397" 
d="M245 402l-36 -252q-4 -32 5.5 -43t42.5 -11h69l5 -90q-51 -17 -124 -17q-67 0 -98.5 38t-21.5 107l38 268h-89l11 83l91 5l20 141h120l-20 -141h142l-11 -88h-144zM176 -55h29q22 0 30.5 -8.5t4.5 -28.5l-8 -53q-8 -66 -60 -141l-51 16q27 78 32 104q-17 -1 -25.5 7
t-6.5 24l7 46q4 20 14 27t34 7z" />
    <glyph glyph-name="circumflex" unicode="&#x2c6;" horiz-adv-x="436" 
d="M450 581l-41 -45l-125 100h-8l-152 -98l-32 50l147 131h85z" />
    <glyph glyph-name="caron" unicode="&#x2c7;" horiz-adv-x="436" 
d="M455 685l-152 -131h-78l-123 139l45 42l117 -96h8l150 96z" />
    <glyph glyph-name="breve" unicode="&#x2d8;" horiz-adv-x="385" 
d="M355 704l59 -12q-3 -62 -50 -101.5t-122 -39.5q-79 0 -119 41.5t-25 103.5l60 4q-4 -32 18 -48t67 -16q50 0 79.5 18t32.5 50z" />
    <glyph glyph-name="dotaccent" unicode="&#x2d9;" horiz-adv-x="229" 
d="M155 694h37q17 0 26.5 -10t7.5 -27l-8 -54q-4 -32 -35 -32h-38q-17 0 -26 10t-7 27l7 53q5 33 36 33z" />
    <glyph glyph-name="ring" unicode="&#x2da;" horiz-adv-x="305" 
d="M212 749q51 0 83 -32.5t26 -82.5q-6 -46 -37.5 -75.5t-80.5 -29.5q-52 0 -82.5 32.5t-24.5 81.5q5 45 36 75.5t80 30.5zM213 693q-24 0 -39.5 -15t-17.5 -38q-3 -26 11 -40.5t37 -14.5q24 0 39 15.5t17 40.5q2 23 -11 37.5t-36 14.5z" />
    <glyph glyph-name="ogonek" unicode="&#x2db;" horiz-adv-x="251" 
d="M103 4l54 -4q-45 -49 -78 -110q-18 -29 -1.5 -38t58.5 4l13 -49q-42 -16 -75.5 -19.5t-53.5 4.5t-30.5 22.5t-9.5 34.5t12 42q30 58 111 113z" />
    <glyph glyph-name="tilde" unicode="&#x2dc;" horiz-adv-x="431" 
d="M150 574l-53 5q1 65 27 97.5t65 30.5q34 -3 79.5 -25t67.5 -25q27 -4 39.5 7.5t16.5 39.5l53 -5q0 -62 -25 -95t-65 -31q-39 3 -86.5 26t-63.5 26q-27 4 -39 -9t-16 -42z" />
    <glyph glyph-name="hungarumlaut" unicode="&#x2dd;" horiz-adv-x="481" 
d="M309 686l-164 -162l-50 37l141 176zM487 686l-164 -162l-48 37l140 176z" />
    <glyph glyph-name="Delta" unicode="&#x394;" horiz-adv-x="644" 
d="M589 46l-6 -46h-599l5 46l328 644h125zM455 98l-80 390q-7 37 -10 82q-20 -60 -32 -84l-189 -388h311z" />
    <glyph glyph-name="Omega" unicode="&#x3a9;" horiz-adv-x="716" 
d="M21 107h87q36 0 69 -10q-61 62 -86 129.5t-11 160.5q21 161 99 238.5t230 77.5q299 0 252 -327q-15 -102 -54.5 -163t-124.5 -117q34 11 68 11h91l-14 -107h-265l12 101q73 50 107 109t48 157q17 127 -10.5 178.5t-114.5 51.5q-90 0 -134.5 -53.5t-62.5 -183.5
q-14 -99 3.5 -153.5t73.5 -107.5l-13 -99h-264z" />
    <glyph glyph-name="mu" unicode="&#x3bc;" horiz-adv-x="605" 
d="M553 490l-69 -490h-95v71q-105 -84 -192 -84q-35 0 -64 13q3 -33 0 -66l-19 -129h-105l47 337l48 348h122l-47 -333q-4 -31 8.5 -44.5t45.5 -13.5q59 0 151 49l47 342h122z" />
    <glyph glyph-name="pi" unicode="&#x3c0;" horiz-adv-x="642" 
d="M634 398h-84l-56 -398h-121l56 398h-185l-56 -398h-121l56 398h-85l13 93h596z" />
    <glyph glyph-name="uni0401" unicode="&#x401;" horiz-adv-x="565" 
d="M485 779h-42q-30 0 -26 28l9 59q4 29 34 29h39q31 0 27 -29l-9 -58q-3 -29 -32 -29zM316 779h-42q-30 0 -26 28l9 59q4 29 35 29h38q18 0 23.5 -7t3.5 -22l-9 -58q-3 -29 -32 -29zM556 588h-266q-30 0 -43.5 -13t-17.5 -47l-17 -121h281l-12 -93h-281l-22 -155
q-4 -32 7 -44.5t42 -12.5h260l-3 -96q-85 -8 -282 -8q-85 0 -123 41t-28 115l57 410q8 61 49 94.5t111 33.5q215 0 304 -9z" />
    <glyph glyph-name="uni0402" unicode="&#x402;" horiz-adv-x="752" 
d="M396 583l-28 -197q92 61 197 61q81 0 122 -47.5t23 -168.5q-21 -135 -93.5 -188.5t-197.5 -49.5l-6 90q86 8 122.5 38.5t49.5 107.5q12 71 -6 92t-58 21q-44 0 -81 -13t-87 -46l-39 -283h-126l82 583h-211l16 107h547l-14 -107h-212z" />
    <glyph glyph-name="uni0403" unicode="&#x403;" horiz-adv-x="520" 
d="M543 835l-226 -111l-33 54l206 148zM34 0l77 551q9 69 50 105t101 36q208 0 295 -10l-16 -94h-238q-38 0 -51.5 -12.5t-19.5 -52.5l-73 -523h-125z" />
    <glyph glyph-name="uni0404" unicode="&#x404;" horiz-adv-x="579" 
d="M589 679l-18 -94q-93 6 -162 6q-102 0 -145.5 -35t-65.5 -149h283l-11 -93h-286q-15 -124 10 -166.5t112 -48.5q82 -4 197 10l5 -96q-99 -30 -207 -25q-161 7 -214 88t-27 274q26 201 103.5 276.5t239.5 75.5q104 0 186 -23z" />
    <glyph glyph-name="uni0405" unicode="&#x405;" horiz-adv-x="568" 
d="M326 274l-132 48q-72 27 -98 75.5t-16 123.5q16 110 74 145.5t181 35.5q128 0 216 -24l-13 -88q-118 4 -202 4q-32 0 -45.5 -0.5t-32.5 -4.5t-27 -13t-15 -24.5t-11 -40.5q-6 -43 5.5 -58t54.5 -30l128 -46q77 -28 101.5 -74t13.5 -126q-15 -113 -71.5 -151t-192.5 -38
q-114 0 -224 23l14 91q175 -4 205 -4q81 0 109 16t35 72q6 43 -5.5 58.5t-51.5 29.5z" />
    <glyph glyph-name="uni0406" unicode="&#x406;" horiz-adv-x="279" 
d="M162 0h-126l97 690h126z" />
    <glyph glyph-name="uni0407" unicode="&#x407;" horiz-adv-x="279" 
d="M287 879h38q18 0 24 -7t4 -23l-9 -57q-4 -29 -32 -29h-42q-30 0 -27 28l10 58q4 30 34 30zM118 879h38q18 0 24 -7t4 -23l-10 -57q-3 -29 -31 -29h-42q-30 0 -27 28l10 58q4 30 34 30zM161 0h-126l97 690h126z" />
    <glyph glyph-name="uni0408" unicode="&#x408;" horiz-adv-x="352" 
d="M334 690l-76 -540q-11 -79 -52 -120t-107 -41q-69 0 -112 18l23 86h43q71 0 81 65l74 532h126z" />
    <glyph glyph-name="uni0409" unicode="&#x409;" horiz-adv-x="978" 
d="M604 426h113q132 0 180.5 -50t31.5 -174q-17 -121 -69.5 -165.5t-171.5 -44.5q-175 0 -268 8l84 593h-86q-37 0 -54 -14.5t-25 -53.5q-6 -25 -22.5 -97t-23 -95l-19.5 -69t-25 -74t-28 -55q-39 -69 -93 -101t-132 -36l-4 107q82 14 116 71q10 16 18.5 32.5t16.5 40.5
t13.5 40t14.5 53t13.5 56.5t16.5 73t18 82.5q32 136 162 136h260zM558 96h109q75 0 100.5 22.5t36.5 94.5q9 69 -8 93t-87 24h-118z" />
    <glyph glyph-name="uni040A" unicode="&#x40a;" horiz-adv-x="975" 
d="M601 424h115q129 0 178 -49.5t32 -174.5q-16 -120 -68.5 -164t-170.5 -44q-178 0 -269 8l45 325h-254l-46 -325h-126l97 690h126l-38 -267h255l38 267h123zM555 97l111 -1q74 0 99.5 22.5t35.5 92.5q10 67 -7 91t-87 24h-120z" />
    <glyph glyph-name="uni040B" unicode="&#x40b;" horiz-adv-x="769" 
d="M395 583l-28 -197q108 62 208 62q86 0 122 -41t25 -124l-40 -283h-125l37 262q7 46 -8 62t-62 16q-78 0 -172 -59l-39 -281h-126l82 583h-210l15 107h547l-14 -107h-212z" />
    <glyph glyph-name="uni040C" unicode="&#x40c;" horiz-adv-x="615" 
d="M338 724l-33 54l206 148l52 -91zM366 360l-1 -4q36 -6 61 -22t40.5 -33t30.5 -64.5t22 -78.5t23 -113q6 -29 9 -45h-126q-34 177 -45 212q-23 74 -69 91q-21 8 -51 8h-61q2 -33 -4 -70l-34 -241h-125l97 690h125l-29 -206q-7 -47 -17 -77h55q38 0 66 13t60 61.5t45 74
t56 118.5l8 16h130q-78 -173 -112 -224q-57 -87 -135 -103q-9 -2 -19 -3z" />
    <glyph glyph-name="uni040D" unicode="&#x40d;" horiz-adv-x="699" 
d="M478 777l-41 -53l-210 118l60 83zM582 0h-121l62 433q8 58 22 105h-6q-30 -58 -48 -85l-321 -453h-134l97 690h121l-61 -432q-7 -48 -24 -106h6q21 43 52 87l318 451h134z" />
    <glyph glyph-name="uni040E" unicode="&#x40e;" horiz-adv-x="580" 
d="M468 894l59 -12q-3 -62 -50 -101.5t-122 -39.5q-79 0 -119 41.5t-25 103.5l59 4q-4 -32 18.5 -48t67.5 -16q49 0 78.5 18t33.5 50zM627 690l-247 -517q-41 -86 -84 -131t-106 -50q-73 -5 -147 16l20 90q43 -2 64.5 -2t41.5 2.5t31.5 13t21.5 23.5t26 40l13 23h-32
q-61 0 -73 60l-89 432h125l68 -378q3 -12 16 -12h36l182 390h133z" />
    <glyph glyph-name="uni040F" unicode="&#x40f;" horiz-adv-x="682" 
d="M661 690l-97 -690h-208l-26 -151h-87l17 151h-223l97 690h126l-83 -593h275l82 593h127z" />
    <glyph glyph-name="uni0410" unicode="&#x410;" horiz-adv-x="634" 
d="M437 194h-258l-83 -194h-131l300 659q10 31 46 31h123q16 0 27.5 -10.5t12.5 -25.5l117 -654h-125zM421 300l-35 234l-6 63h-30q-8 -21 -25 -62l-101 -235h197z" />
    <glyph glyph-name="uni0411" unicode="&#x411;" horiz-adv-x="604" 
d="M244 588l-26 -184h117q134 0 182.5 -46.5t31.5 -163.5q-17 -118 -70 -160.5t-173 -42.5q-165 0 -270 9l97 690q112 6 226 6q109 0 220 -6l-25 -102h-310zM205 312l-31 -218l114 -1q75 0 101 22t36 92q9 65 -8.5 85t-89.5 20h-122z" />
    <glyph glyph-name="uni0412" unicode="&#x412;" horiz-adv-x="626" 
d="M36 0l97 690q85 8 238 8q129 0 179.5 -40t35.5 -145q-11 -74 -43 -111t-95 -43l-1 -5q140 -11 114 -187q-16 -104 -69 -139.5t-176 -35.5q-184 0 -280 8zM215 403h122q64 0 92 21.5t37 81.5q7 56 -13.5 73.5t-87.5 17.5h-123zM172 94l124 -1q75 0 104.5 21.5t37.5 85.5
q10 66 -12 88.5t-93 23.5h-131z" />
    <glyph glyph-name="uni0413" unicode="&#x413;" horiz-adv-x="520" 
d="M34 0l77 551q9 69 50 105t101 36q208 0 295 -10l-16 -94h-238q-38 0 -51.5 -12.5t-19.5 -52.5l-73 -523h-125z" />
    <glyph glyph-name="uni0414" unicode="&#x414;" horiz-adv-x="715" 
d="M651 7l-22 -158h-97l12 151h-458l-32 -151h-97l22 152l13 96h67q100 172 161 457q13 64 56 100t110 36h273l-83 -593h87zM451 97l69 496h-102q-65 0 -78 -68q-57 -274 -144 -428h255z" />
    <glyph glyph-name="uni0415" unicode="&#x415;" horiz-adv-x="566" 
d="M557 588h-266q-31 0 -44 -13t-18 -47l-16 -121h280l-12 -93h-281l-21 -155q-4 -32 6 -44.5t42 -12.5h261l-3 -96q-86 -8 -283 -8q-85 0 -123 41t-28 115l57 410q9 61 50 94.5t110 33.5q215 0 305 -9z" />
    <glyph glyph-name="uni0416" unicode="&#x416;" horiz-adv-x="915" 
d="M668 360l-1 -4q28 -4 48.5 -13t37 -29.5t27.5 -41t22.5 -61t19 -75t20.5 -97.5q5 -26 8 -39h-125q-39 184 -45 206q-23 78 -64 97q-19 8 -46 8h-54q2 -35 -3 -70l-33 -241h-121l35 245q4 25 16 66h-51q-62 0 -101 -50.5t-116 -206.5q-18 -35 -27 -54h-133q91 195 125 248
q54 84 124 104q17 6 38 8l1 4q-17 3 -31.5 7.5t-26.5 14t-21.5 17t-18.5 25t-15 28t-13.5 36.5t-11.5 39.5t-11 47.5t-10 51.5t-11 59.5h122q32 -162 46 -201q26 -72 77 -80q9 -2 19 -2h61q-2 43 4 82l28 201h120l-30 -206q-8 -52 -16 -77h45q27 0 50.5 12t44 34t41 56
t42 76.5t47.5 97.5q2 5 3 7h128q-78 -171 -100 -208q-50 -87 -114 -110q-23 -9 -50 -12z" />
    <glyph glyph-name="uni0417" unicode="&#x417;" horiz-adv-x="554" 
d="M103 587l-4 93q84 18 205 18t173 -41.5t38 -143.5q-11 -75 -42 -111.5t-95 -42.5l-1 -5q135 -13 110 -187q-14 -101 -65 -138t-174 -37q-146 0 -251 28l15 88q114 -16 213 -16q70 0 99.5 22t38.5 86q10 65 -12 88t-91 23h-127l12 93h121q62 0 89 21.5t35 80.5
q8 58 -11.5 75.5t-85.5 17.5q-58 0 -190 -12z" />
    <glyph glyph-name="uni0418" unicode="&#x418;" horiz-adv-x="699" 
d="M582 0h-121l62 433q8 58 22 105h-6q-30 -58 -48 -85l-321 -453h-134l97 690h121l-61 -432q-7 -48 -24 -106h6q21 43 52 87l318 451h134z" />
    <glyph glyph-name="uni0419" unicode="&#x419;" horiz-adv-x="699" 
d="M506 888h87q-3 -65 -50 -106t-121 -41q-80 0 -120 41.5t-26 105.5h86q-7 -44 9 -64t57 -20q71 0 78 84zM582 0h-121l62 433q8 58 22 105h-6q-30 -58 -48 -85l-321 -453h-134l97 690h121l-61 -432q-7 -48 -24 -106h6q21 43 52 87l318 451h134z" />
    <glyph glyph-name="uni041A" unicode="&#x41a;" horiz-adv-x="615" 
d="M366 360l-1 -4q36 -6 61 -22t40.5 -33t30.5 -64.5t22 -78.5t23 -113q6 -29 9 -45h-126q-34 177 -45 212q-23 74 -69 91q-21 8 -51 8h-61q2 -33 -4 -70l-34 -241h-125l97 690h125l-29 -206q-7 -47 -17 -77h55q38 0 66 13t60 61.5t45 74t56 118.5l8 16h130
q-78 -173 -112 -224q-57 -87 -135 -103q-9 -2 -19 -3z" />
    <glyph glyph-name="uni041B" unicode="&#x41b;" horiz-adv-x="664" 
d="M642 690l-97 -690h-125l84 593h-102q-38 0 -55 -15t-25 -53q-29 -124 -41.5 -175.5t-32.5 -111.5t-43 -103q-80 -149 -225 -137l-4 100q24 6 39.5 12t37 23.5t37.5 45.5q31 51 52 123.5t61 254.5q30 133 168 133h271z" />
    <glyph glyph-name="uni041C" unicode="&#x41c;" horiz-adv-x="893" 
d="M677 690h128q24 0 36 -14t9 -37l-62 -639h-122l62 589h-17l-184 -461q-14 -40 -56 -40h-95q-44 0 -49 44l-61 457h-19l-102 -589h-122l116 643q9 47 52 47h126q40 0 46 -44l51 -374q5 -44 7 -95h16q20 57 34 92l150 381q14 39 56 40z" />
    <glyph glyph-name="uni041D" unicode="&#x41d;" horiz-adv-x="676" 
d="M655 690l-97 -690h-125l44 315h-271l-44 -315h-126l97 690h126l-38 -271h271l38 271h125z" />
    <glyph glyph-name="uni041E" unicode="&#x41e;" horiz-adv-x="672" 
d="M387 703q151 0 209 -82.5t31 -280.5q-27 -201 -99 -277t-225 -76t-211.5 81t-31.5 282q27 197 99 275t228 78zM382 596q-91 0 -130 -52.5t-61 -203.5q-20 -142 4 -194t111 -52q88 0 128.5 54t61.5 202q22 145 -2.5 195.5t-111.5 50.5z" />
    <glyph glyph-name="uni041F" unicode="&#x41f;" horiz-adv-x="677" 
d="M656 690l-97 -690h-126l83 593h-271l-83 -593h-126l97 690h523z" />
    <glyph glyph-name="uni0420" unicode="&#x420;" horiz-adv-x="598" 
d="M36 0l97 690q89 9 244 9q129 0 178.5 -51.5t31.5 -174.5q-18 -133 -71.5 -175.5t-181.5 -42.5q-74 0 -136 9l-37 -264h-125zM211 357h117q71 0 98 25t38 100q10 68 -10 91t-81 23h-128z" />
    <glyph glyph-name="uni0421" unicode="&#x421;" horiz-adv-x="574" 
d="M503 108l6 -95q-84 -25 -212 -25q-153 0 -208.5 85.5t-28.5 276.5q27 197 98 274.5t225 77.5q114 0 199 -23l-18 -94q-87 7 -184 7q-60 0 -94 -19.5t-57.5 -74t-37.5 -158.5q-20 -139 3 -190t106 -52q110 -1 203 10z" />
    <glyph glyph-name="uni0422" unicode="&#x422;" horiz-adv-x="584" 
d="M607 583h-212l-82 -583h-125l82 583h-211l15 107h548z" />
    <glyph glyph-name="uni0423" unicode="&#x423;" horiz-adv-x="580" 
d="M627 690l-247 -517q-41 -86 -84 -131t-106 -50q-73 -5 -147 16l20 90q43 -2 64.5 -2t41.5 2.5t31.5 13t21.5 23.5t26 40l13 23h-32q-61 0 -73 60l-89 432h125l68 -378q3 -12 16 -12h36l182 390h133z" />
    <glyph glyph-name="uni0424" unicode="&#x424;" horiz-adv-x="827" 
d="M540 730l-12 -94q166 -9 229 -75t41 -216q-20 -151 -98.5 -213.5t-253.5 -69.5l-13 -92h-125l12 93q-169 9 -231 74.5t-40 217.5q21 150 100 212.5t253 69.5l12 93h126zM508 537l-54 -373q111 7 157 47.5t61 143.5q14 100 -20.5 138.5t-143.5 43.5zM340 163l53 373
q-112 -7 -157.5 -47.5t-59.5 -143.5q-14 -101 19.5 -139t144.5 -43z" />
    <glyph glyph-name="uni0425" unicode="&#x425;" horiz-adv-x="623" 
d="M434 355l133 -355h-127l-109 312h-19l-196 -312h-142l234 355l-121 335h126l98 -288h20l186 288h135z" />
    <glyph glyph-name="uni0426" unicode="&#x426;" horiz-adv-x="703" 
d="M651 97l-13 -97l-21 -151h-97l12 151h-495l97 690h126l-83 -593h262l83 593h125l-83 -593h87z" />
    <glyph glyph-name="uni0427" unicode="&#x427;" horiz-adv-x="637" 
d="M616 690l-97 -690h-125l43 308q-57 -33 -117.5 -50t-104.5 -17q-87 0 -123.5 41t-25.5 125l40 283h126l-36 -262q-8 -42 7.5 -60t59.5 -18q82 0 189 59l39 281h125z" />
    <glyph glyph-name="uni0428" unicode="&#x428;" horiz-adv-x="948" 
d="M927 690l-97 -690h-794l97 690h123l-84 -593h214l83 593h122l-83 -593h213l84 593h122z" />
    <glyph glyph-name="uni0429" unicode="&#x429;" horiz-adv-x="979" 
d="M926 97l-13 -97l-21 -151h-96l12 151h-771l97 690h123l-84 -593h211l84 593h122l-83 -593h211l83 593h122l-82 -593h85z" />
    <glyph glyph-name="uni042A" unicode="&#x42a;" horiz-adv-x="748" 
d="M374 426h113q132 0 180.5 -50t31.5 -174q-17 -121 -69.5 -165.5t-172.5 -44.5q-175 0 -268 8l82 583h-214l16 107h338zM328 96h109q75 0 100.5 22.5t36.5 94.5q9 69 -8 93t-87 24h-119z" />
    <glyph glyph-name="uni042B" unicode="&#x42b;" horiz-adv-x="872" 
d="M222 426h114q132 0 180.5 -49.5t31.5 -174.5q-16 -121 -69 -165.5t-172 -44.5q-177 0 -271 8l97 690h126zM850 690l-97 -690h-126l97 690h126zM175 96h111q75 0 100.5 22.5t36.5 94.5q10 69 -7 93t-88 24h-120z" />
    <glyph glyph-name="uni042C" unicode="&#x42c;" horiz-adv-x="598" 
d="M222 426h115q132 0 180.5 -50t31.5 -174q-17 -121 -69.5 -165.5t-172.5 -44.5q-177 0 -271 8l97 690h126zM175 96h112q75 0 100.5 22.5t36.5 94.5q9 69 -8 93t-87 24h-121z" />
    <glyph glyph-name="uni042D" unicode="&#x42d;" horiz-adv-x="580" 
d="M98 585l-5 95q85 22 184 22q167 0 226 -79.5t32 -282.5q-25 -194 -98 -270.5t-229 -81.5q-117 -4 -207 27l17 94q93 -14 191 -10q90 5 130.5 50.5t62.5 165.5h-286l12 93h288q6 62 0 99.5t-27.5 55.5t-47.5 23t-73 5q-76 0 -170 -6z" />
    <glyph glyph-name="uni042E" unicode="&#x42e;" horiz-adv-x="947" 
d="M220 406h140q31 167 99 232t202 65q148 0 208.5 -82.5t32.5 -280.5q-29 -202 -100 -277.5t-227 -75.5q-142 0 -195.5 72.5t-33.5 249.5h-140l-43 -309h-126l97 690h126zM771 350q20 142 -3.5 194t-108.5 52q-86 0 -126 -54.5t-61 -201.5q-20 -142 2 -194t104 -52
q90 0 131.5 55t61.5 201z" />
    <glyph glyph-name="uni042F" unicode="&#x42f;" horiz-adv-x="623" 
d="M198 314l1 4q-66 10 -92 66.5t-16 128.5q15 104 75.5 145t179.5 41q151 0 256 -9l-97 -690h-126l38 271l-115 -1q-35 0 -56 -15t-35 -51l-82 -204h-136l88 214q45 97 117 100zM431 373l32 223h-117q-63 0 -91.5 -21.5t-37.5 -79.5q-9 -62 11 -92t78 -30h125z" />
    <glyph glyph-name="uni0430" unicode="&#x430;" horiz-adv-x="585" 
d="M475 0h-95l2 85q-82 -96 -204 -97q-91 -1 -123.5 59t-11.5 206q12 83 33.5 134.5t56.5 76.5t70.5 32.5t92.5 7.5q128 0 246 -29zM411 406l-89 1q-87 0 -114.5 -27t-42.5 -133q-13 -103 -4.5 -130t49.5 -27q42 0 81 23.5t88 73.5z" />
    <glyph glyph-name="uni0431" unicode="&#x431;" 
d="M550 726l11 -106q-56 -18 -128 -23.5t-105 -14.5q-66 -16 -93.5 -46t-47.5 -83q-15 -33 -24 -70l1 1q32 42 73 66.5t113 24.5q115 0 152 -62t24 -176q-16 -132 -77.5 -190.5t-183.5 -58.5q-50 0 -87.5 9.5t-61.5 24t-38.5 40t-21 49.5t-6 61t3.5 65.5t9 72.5
q12 85 25 137.5t37.5 102t64 79t98.5 47.5q42 13 125 23t137 27zM320 380q-75 0 -103.5 -32.5t-38.5 -111.5q-11 -85 7 -118t80 -33q61 0 91 33.5t44 125.5q12 82 -4.5 109t-75.5 27z" />
    <glyph glyph-name="uni0432" unicode="&#x432;" horiz-adv-x="550" 
d="M368 262l-1 -4q71 -4 98.5 -38.5t17.5 -102.5q-12 -72 -63 -101t-170 -29q-57 0 -95 7t-66.5 24.5t-39.5 47.5t-14.5 76.5t8.5 110.5q12 79 31 127.5t52.5 76.5t76 37.5t109.5 9.5q31 0 55.5 -2.5t54.5 -11t48 -23.5t27 -42t2 -64q-18 -90 -131 -99zM170 289l102 10
q61 6 83.5 19.5t28.5 37.5q7 31 -13 43t-76 12q-63 0 -87 -23t-38 -99zM268 219l-111 -10q-6 -35 -3.5 -58.5t5 -37.5t15 -21.5t26 -9.5t37.5 -2q66 0 94 14.5t34 55.5q5 41 -15 57.5t-82 11.5z" />
    <glyph glyph-name="uni0433" unicode="&#x433;" horiz-adv-x="526" 
d="M73 380l-2 90q91 29 209 34q48 2 82 -1t66.5 -14.5t47.5 -38t11 -68.5q-4 -36 -19.5 -63.5t-43.5 -46.5t-41 -25t-42 -17q-5 -2 -7 -3l-134 -52q-34 -13 -46.5 -24t-14.5 -27q-2 -24 16 -31t60 -5q120 3 233 36l5 -93q-114 -44 -241 -44q-100 0 -150 34t-42 106
q6 53 39 84.5t98 55.5l123 47q50 17 69.5 31t20.5 34q2 19 -17.5 24.5t-85.5 2.5q-70 -2 -194 -26z" />
    <glyph glyph-name="uni0434" unicode="&#x434;" horiz-adv-x="574" 
d="M142 629l18 85q97 -11 166 -37.5t120.5 -75t70 -129.5t3.5 -192q-21 -152 -83.5 -222.5t-193.5 -70.5q-117 0 -166 58t-33 177q28 228 227 228q82 0 132 -44q-3 59 -20.5 98t-54.5 63t-78 37t-108 25zM251 84q66 0 97 46t47 163l5 34q-44 27 -98 27q-62 0 -91.5 -33
t-40.5 -105q-10 -73 8 -102.5t73 -29.5z" />
    <glyph glyph-name="uni0435" unicode="&#x435;" horiz-adv-x="548" 
d="M455 99l8 -79q-77 -32 -208 -32t-182 66.5t-33 203.5q19 141 79 193.5t198 52.5q122 0 164.5 -41.5t31.5 -121.5q-10 -72 -56 -104t-141 -38l-155 -13q1 -58 28 -78.5t82 -20.5q83 0 184 12zM168 268l140 12q42 3 61.5 18.5t24.5 53.5q3 38 -15 47t-77 9
q-66 -1 -93 -28.5t-41 -111.5z" />
    <glyph glyph-name="uni0436" unicode="&#x436;" horiz-adv-x="769" 
d="M549 256l-1 -3q36 -5 57 -16.5t37 -39.5t26.5 -65t27.5 -106q4 -17 6 -26h-115q-33 138 -46 166q-19 40 -60 44q-6 1 -13 1h-45q2 -27 -1 -46l-22 -165h-108l25 169q1 16 10 42h-41q-49 -1 -79.5 -39.5t-99.5 -171.5h-123q9 17 24 47q25 49 36 70t28.5 50t28.5 39.5
t29 23.5t36.5 18t44.5 8l1 4q-68 8 -91 50.5t-51 179.5h116q24 -116 43 -154t68 -38h43q-1 26 2 59l19 133h108l-20 -136q-6 -38 -12 -56h31q49 0 80.5 38.5t90.5 153.5h120q-68 -138 -95 -172q-41 -52 -106 -61q-4 -1 -9 -1z" />
    <glyph glyph-name="uni0437" unicode="&#x437;" horiz-adv-x="506" 
d="M73 394l-4 88q67 19 169 19q125 0 176 -28t40 -109q-8 -54 -34 -80t-85 -31l-1 -3q63 -5 87.5 -37.5t15.5 -95.5q-11 -79 -60.5 -103.5t-168.5 -24.5q-121 0 -212 19l15 88q101 -9 188 -9q70 0 92 12t27 51q4 34 -14.5 45.5t-76.5 12.5l-133 2l10 81h127q55 0 77.5 13.5
t27.5 50.5q5 31 -12.5 39.5t-86.5 8.5q-88 0 -164 -9z" />
    <glyph glyph-name="uni0438" unicode="&#x438;" 
d="M539 490l-68 -490h-94l4 97q-116 -110 -218 -110q-68 0 -99 37t-21 101l51 365h121l-47 -333q-6 -37 3.5 -52t38.5 -15q37 0 72 21t95 73l42 306h120z" />
    <glyph glyph-name="uni0439" unicode="&#x439;" 
d="M415 708h86q-2 -65 -49 -106t-121 -41q-80 0 -120 41.5t-26 105.5h86q-7 -44 9 -64t57 -20q71 0 78 84zM539 490l-68 -490h-94l4 97q-116 -110 -218 -110q-68 0 -99 37t-21 101l51 365h121l-47 -333q-6 -37 3.5 -52t38.5 -15q37 0 72 21t95 73l42 306h120z" />
    <glyph glyph-name="uni043A" unicode="&#x43a;" horiz-adv-x="546" 
d="M324 256l-1 -4q31 -3 51.5 -12t34.5 -21.5t24.5 -42t18 -58t20.5 -86.5q4 -21 7 -32h-120q-31 135 -43 161q-19 41 -61 47q-10 2 -23 2h-59q2 -23 -1 -46l-24 -164h-120l69 490h120l-18 -136q-4 -25 -14 -55h46q60 0 91.5 37.5t84.5 153.5h129q-26 -54 -37 -76.5
t-29.5 -55.5t-30 -45t-30.5 -27t-38.5 -21t-46.5 -9z" />
    <glyph glyph-name="uni043B" unicode="&#x43b;" horiz-adv-x="579" 
d="M538 490l-69 -490h-121l56 400h-76q-28 0 -42.5 -13t-23.5 -46q-30 -119 -74 -234q-25 -68 -73 -92.5t-121 -19.5l-9 96q5 1 16.5 2.5t16 2.5t13.5 3.5t14 6.5t11.5 9.5t12 14t10.5 20.5q36 84 71 222q16 61 49 89.5t94 28.5h245z" />
    <glyph glyph-name="uni043C" unicode="&#x43c;" horiz-adv-x="764" 
d="M551 490h117q21 0 32 -12t9 -33l-45 -445h-110l39 401h-15l-136 -306q-14 -36 -48 -36h-82q-37 0 -42 40l-54 302h-16l-71 -401h-110l79 448q4 23 15 32.5t33 9.5h114q36 0 41 -40l41 -234q8 -60 9 -80h14q22 64 27 74l110 245q16 35 49 35z" />
    <glyph glyph-name="uni043D" unicode="&#x43d;" horiz-adv-x="590" 
d="M549 490l-69 -490h-119l30 215h-213l-30 -215h-120l69 490h119l-26 -186h213l27 186h119z" />
    <glyph glyph-name="uni043E" unicode="&#x43e;" horiz-adv-x="577" 
d="M312 504q130 0 181 -61.5t31 -202.5q-19 -138 -80.5 -195.5t-189.5 -57.5q-130 0 -181.5 61t-32.5 201q19 139 80.5 197t191.5 58zM312 407q-70 0 -100.5 -34t-45.5 -133q-13 -92 5 -124t84 -32q69 0 100 34.5t44 130.5q13 94 -4.5 126t-82.5 32z" />
    <glyph glyph-name="uni043F" unicode="&#x43f;" horiz-adv-x="591" 
d="M193 490l-3 -101q124 115 228 115q62 0 94.5 -36t23.5 -102l-52 -366h-121l46 332q5 41 -2.5 55.5t-33.5 13.5q-38 0 -78 -22t-104 -72l-42 -307h-121l69 490h96z" />
    <glyph glyph-name="uni0440" unicode="&#x440;" horiz-adv-x="588" 
d="M193 490l-3 -98q46 46 102.5 78t106.5 32q58 0 89.5 -22.5t44.5 -81t-3 -160.5q-11 -81 -31.5 -133t-53 -77t-66 -33t-83.5 -8q-66 0 -151 13q0 -55 -7 -93l-16 -102h-122l98 685h95zM163 81l88 -1q88 0 114.5 27.5t41.5 135.5q13 103 4 130t-48 27q-29 0 -75.5 -25
t-94.5 -69z" />
    <glyph glyph-name="uni0441" unicode="&#x441;" horiz-adv-x="498" 
d="M422 98l8 -81q-75 -29 -181 -29q-131 0 -180 61t-29 201t79.5 197t187.5 57q107 0 173 -29l-18 -74q-100 2 -137 2q-79 0 -113 -31.5t-46 -128.5q-12 -98 9.5 -126.5t96.5 -28.5q84 0 150 10z" />
    <glyph glyph-name="uni0442" unicode="&#x442;" horiz-adv-x="877" 
d="M190 490l-2 -97q108 111 205 111q55 0 85 -27t33 -75q53 54 99 78t95 24q65 0 95.5 -37t21.5 -101l-52 -366h-120l46 334q6 38 -4.5 52.5t-37.5 14.5q-31 0 -62 -19.5t-92 -75.5l-42 -306h-117l46 334q5 36 -3.5 51.5t-38.5 15.5q-32 0 -63.5 -19t-90.5 -72l-43 -310
h-120l69 490h93z" />
    <glyph glyph-name="uni0443" unicode="&#x443;" horiz-adv-x="562" 
d="M424 490h127q-45 -225 -138 -412q-86 -179 -187 -242.5t-222 -39.5l10 93q132 -25 229 111h-54q-23 0 -39.5 13.5t-21.5 35.5l-88 441h128l63 -384q2 -16 18 -16h47l13 27q81 162 115 373z" />
    <glyph glyph-name="uni0444" unicode="&#x444;" horiz-adv-x="731" 
d="M478 700l-26 -198q139 -10 192 -71.5t34 -190.5q-17 -129 -85.5 -186.5t-214.5 -64.5l-25 -184h-111l25 185q-140 10 -193 70.5t-35 188.5q18 130 86.5 188.5t214.5 65.5l28 197h110zM433 407l-47 -322q87 7 126 43t51 120q11 85 -16.5 119.5t-113.5 39.5zM286 85l46 321
q-87 -7 -126 -43.5t-51 -121.5q-11 -83 17 -117t114 -39z" />
    <glyph glyph-name="uni0445" unicode="&#x445;" horiz-adv-x="544" 
d="M370 252l119 -252h-120l-94 210h-16l-154 -210h-132l191 253l-109 237h119l83 -192h21l141 192h128z" />
    <glyph glyph-name="uni0446" unicode="&#x446;" horiz-adv-x="614" 
d="M559 85l-12 -85l-21 -149h-102l34 149q-37 2 -59 26.5t-20 69.5q-112 -109 -216 -109q-68 0 -99 37t-21 101l51 365h121l-47 -333q-6 -37 3.5 -52t38.5 -15q37 0 72 21t95 73l42 306h120l-52 -386q-2 -19 16 -19h56z" />
    <glyph glyph-name="uni0447" unicode="&#x447;" horiz-adv-x="552" 
d="M511 490l-69 -490h-122l28 202q-89 -41 -171 -41q-75 -1 -108 28t-25 88l31 213h121l-25 -180q-4 -33 5 -43.5t43 -10.5q66 0 143 44l26 190h123z" />
    <glyph glyph-name="uni0448" unicode="&#x448;" horiz-adv-x="861" 
d="M819 490l-69 -490h-94l3 97q-103 -110 -197 -110q-54 0 -84 26.5t-33 74.5q-95 -101 -186 -101q-65 0 -95.5 37t-20.5 101l51 365h120l-46 -333q-6 -34 5 -47.5t41 -13.5t55 16.5t86 72.5l43 305h117l-47 -333q-5 -33 4.5 -47t40.5 -14q32 0 56.5 16t86.5 69l43 309h120z
" />
    <glyph glyph-name="uni0449" unicode="&#x449;" horiz-adv-x="893" 
d="M838 85l-12 -85l-21 -149h-102l38 149q-39 1 -62 25.5t-20 70.5v1q-103 -110 -197 -110q-54 0 -84 26.5t-33 74.5q-95 -101 -186 -101q-65 0 -95.5 37t-20.5 101l51 365h120l-46 -333q-6 -34 5 -47.5t41 -13.5t55 16.5t86 72.5l43 305h117l-47 -333q-5 -33 4.5 -47
t40.5 -14q32 0 56.5 16t87.5 70l41 308h121l-53 -386q-1 -8 3.5 -13.5t12.5 -5.5h56z" />
    <glyph glyph-name="uni044A" unicode="&#x44a;" horiz-adv-x="637" 
d="M371 490l-48 -187q41 11 77 11q116 -1 156 -36.5t26 -128.5q-14 -91 -60 -123.5t-149 -32.5q-20 0 -35 0.5t-36 2t-36 5t-33 10t-29.5 15t-22 22t-15 30.5t-4 40t7.5 50l61 229h-197l14 93h323zM301 220l-18 -70q-9 -38 11.5 -51.5t64.5 -13.5q52 0 73 15.5t30 60.5
q8 41 -7.5 55t-67.5 14q-38 0 -86 -10z" />
    <glyph glyph-name="uni044B" unicode="&#x44b;" horiz-adv-x="746" 
d="M211 490l-28 -193q56 17 98 17q116 -1 155.5 -36.5t26.5 -128.5q-12 -90 -59 -123t-150 -33q-30 0 -47.5 1t-48 4.5t-48.5 13t-36.5 25t-26 42t-3.5 62.5l50 349h117zM704 490l-69 -490h-121l69 490h121zM172 217l-11 -77q-5 -33 14.5 -44t64.5 -11q52 0 74 15.5t29 60.5
q5 41 -9.5 55t-65.5 14q-48 0 -96 -13z" />
    <glyph glyph-name="uni044C" unicode="&#x44c;" horiz-adv-x="518" 
d="M211 490l-28 -193q56 17 98 17q116 -1 155.5 -36.5t26.5 -128.5q-12 -91 -58.5 -123.5t-149.5 -32.5q-31 0 -48 1t-48 4.5t-49 13t-36.5 25t-26 42t-3.5 62.5l50 349h117zM172 217l-11 -77q-5 -33 14.5 -44t64.5 -11q52 0 74.5 15.5t28.5 60.5q6 41 -8.5 55t-66.5 14
q-48 0 -96 -13z" />
    <glyph glyph-name="uni044D" unicode="&#x44d;" horiz-adv-x="519" 
d="M69 397l-5 82q68 20 164 20q145 0 200 -56.5t37 -204.5q-18 -143 -82.5 -197t-207.5 -52q-106 0 -176 24l16 81q64 -5 146 -5q89 -3 124.5 20.5t51.5 99.5h-245l11 81h245q2 38 -3 60.5t-23.5 33.5t-39.5 13.5t-62 2.5q-66 0 -151 -3z" />
    <glyph glyph-name="uni044E" unicode="&#x44e;" horiz-adv-x="813" 
d="M191 297h108q24 118 80 162.5t169 44.5q132 0 181.5 -57t29.5 -206q-21 -145 -79.5 -197.5t-190.5 -52.5q-119 0 -166 47t-37 169h-108l-29 -207h-120l69 490h120zM633 250q13 91 -5.5 122.5t-83.5 31.5q-68 0 -97.5 -33.5t-42.5 -127.5q-13 -91 4.5 -122.5t80.5 -31.5
q70 0 100.5 34t43.5 127z" />
    <glyph glyph-name="uni044F" unicode="&#x44f;" horiz-adv-x="549" 
d="M509 491l-70 -491h-118l24 173h-96q-69 0 -85 -45l-46 -128h-122l49 145q13 36 44 53.5t64 14.5l1 4q-105 22 -91 137q10 89 65 116.5t183 27.5q126 0 198 -7zM357 258l21 146l-111 1q-49 0 -66 -13.5t-23 -54.5q-6 -45 8.5 -62t61.5 -17h109z" />
    <glyph glyph-name="uni0451" unicode="&#x451;" horiz-adv-x="548" 
d="M262 583h-42q-30 0 -27 28l10 58q4 30 34 30h38q33 0 28 -30l-10 -58q-3 -28 -31 -28zM431 583h-42q-30 0 -27 28l10 58q4 30 34 30h38q32 0 28 -30l-9 -58q-4 -28 -32 -28zM455 99l8 -79q-77 -32 -208 -32t-182 66.5t-33 203.5q19 141 79 193.5t198 52.5
q122 0 164.5 -41.5t31.5 -121.5q-10 -72 -56 -104t-141 -38l-155 -13q1 -58 28 -78.5t82 -20.5q83 0 184 12zM168 268l140 12q42 3 61.5 18.5t24.5 53.5q3 38 -15 47t-77 9q-66 -1 -93 -28.5t-41 -111.5z" />
    <glyph glyph-name="uni0452" unicode="&#x452;" horiz-adv-x="590" 
d="M237 488l-12 -86q-4 -40 -16 -80q109 86 209 86q70 0 101.5 -35.5t21.5 -102.5l-38 -270h-121l34 238q5 37 -6.5 50.5t-49.5 13.5q-60 0 -161 -72l-30 -230h-122l69 488h-67l9 63h67l21 149h121l-21 -149h178l-8 -63h-179z" />
    <glyph glyph-name="uni0453" unicode="&#x453;" horiz-adv-x="526" 
d="M459 655l-225 -111l-33 54l206 148zM73 380l-2 90q91 29 209 34q48 2 82 -1t66.5 -14.5t47.5 -38t11 -68.5q-4 -36 -19.5 -63.5t-43.5 -46.5t-41 -25t-42 -17q-5 -2 -7 -3l-134 -52q-34 -13 -46.5 -24t-14.5 -27q-2 -24 16 -31t60 -5q120 3 233 36l5 -93
q-114 -44 -241 -44q-100 0 -150 34t-42 106q6 53 39 84.5t98 55.5l123 47q50 17 69.5 31t20.5 34q2 19 -17.5 24.5t-85.5 2.5q-70 -2 -194 -26z" />
    <glyph glyph-name="uni0454" unicode="&#x454;" horiz-adv-x="517" 
d="M498 477l-16 -80q-18 0 -50 1t-57 1.5t-44 0.5q-80 0 -113 -20.5t-48 -89.5h246l-10 -81h-248q-6 -74 19.5 -95.5t110.5 -24.5q57 -2 153 5l6 -82q-72 -23 -180 -23q-132 0 -188.5 59t-38.5 200q19 145 84.5 198t203.5 53q105 0 170 -22z" />
    <glyph glyph-name="uni0455" unicode="&#x455;" horiz-adv-x="518" 
d="M276 178l-124 56q-57 26 -80 61t-17 87q7 68 57.5 95.5t155.5 26.5q115 -2 217 -18l-14 -83q-93 3 -195 3q-61 0 -81.5 -5t-22.5 -27q-3 -21 9 -31t47 -25l125 -56q62 -27 84.5 -58.5t15.5 -86.5q-4 -34 -17 -57t-31.5 -37t-49 -21.5t-61.5 -10t-77 -2.5q-38 0 -67 1.5
t-43.5 3t-43.5 5.5t-47 6l13 85q52 -4 152 -4q90 0 120 8t34 31q3 5 0.5 10.5t-1.5 8t-4 6.5t-6.5 5.5t-8.5 5t-10.5 5t-13 5.5t-15.5 7z" />
    <glyph glyph-name="uni0456" unicode="&#x456;" horiz-adv-x="267" 
d="M161 703h55q18 0 26.5 -10t6.5 -27l-7 -55q-4 -33 -38 -33h-55q-38 0 -33 38l8 54q3 33 37 33zM153 0h-120l68 490h120z" />
    <glyph glyph-name="uni0457" unicode="&#x457;" horiz-adv-x="264" 
d="M254 699h38q33 0 27 -30l-9 -58q-3 -28 -31 -28h-42q-30 0 -27 28l9 58q6 30 35 30zM85 699h38q33 0 27 -30l-9 -58q-3 -28 -31 -28h-42q-30 0 -27 28l9 58q4 30 35 30zM151 0h-121l69 490h121z" />
    <glyph glyph-name="uni0458" unicode="&#x458;" horiz-adv-x="267" 
d="M161 703h55q18 0 26.5 -10t6.5 -27l-7 -55q-6 -33 -38 -33h-55q-39 0 -33 38l8 54q3 33 37 33zM222 490l-69 -485q-8 -63 -44 -118.5t-91 -87.5l-66 57q68 68 81 155l68 479h121z" />
    <glyph glyph-name="uni0459" unicode="&#x459;" horiz-adv-x="816" 
d="M503 490l-28 -195q57 19 119 19q107 -1 143 -39.5t24 -125.5q-13 -92 -59 -122.5t-149 -32.5q-52 -1 -88.5 4t-68 20t-45 45.5t-8.5 77.5l37 263h-60q-27 0 -41 -10.5t-20 -35.5q-19 -81 -27.5 -112.5t-22.5 -72t-32 -71.5q-35 -65 -81.5 -87t-105.5 -19l-5 92
q55 6 89 53q5 7 10 15.5t9 15.5t8 18t7 18t7.5 22.5t6.5 23.5t7 28.5t7.5 30.5t8.5 36l9 39q24 102 128 102h221zM464 216l-11 -76q-4 -32 15.5 -43.5t66.5 -11.5q55 0 77 15.5t29 60.5q5 41 -9 55t-60 14q-50 0 -108 -14z" />
    <glyph glyph-name="uni045A" unicode="&#x45a;" horiz-adv-x="822" 
d="M512 490l-27 -194q56 18 100 18q116 -1 155.5 -36.5t26.5 -128.5q-12 -90 -59 -122.5t-150 -32.5q-27 0 -40.5 0.5t-41 3t-43 7.5t-35.5 16t-30 26t-16 39t-3 55l12 86h-190l-32 -227h-111l69 490h111l-25 -180h190l25 180h114zM473 217l-11 -77q-4 -33 16 -44t66 -11
q52 0 74 15.5t28 60.5q6 41 -8.5 55t-65.5 14q-44 0 -99 -13z" />
    <glyph glyph-name="uni045B" unicode="&#x45b;" horiz-adv-x="589" 
d="M237 488l-9 -67q-8 -55 -20 -99q111 86 210 86q141 0 123 -138l-37 -265q-9 -64 -45 -119t-90 -87l-65 57q67 69 80 155l32 228q5 36 -7 49.5t-49 13.5q-60 0 -161 -72l-30 -230h-122l69 488h-67l9 63h67l21 149h121l-21 -149h178l-8 -63h-179z" />
    <glyph glyph-name="uni045C" unicode="&#x45c;" horiz-adv-x="546" 
d="M283 544l-33 54l206 148l52 -91zM324 256l-1 -4q31 -3 51.5 -12t34.5 -21.5t24.5 -42t18 -58t20.5 -86.5q4 -21 7 -32h-120q-31 135 -43 161q-19 41 -61 47q-10 2 -23 2h-59q2 -23 -1 -46l-24 -164h-120l69 490h120l-18 -136q-4 -25 -14 -55h46q60 0 91.5 37.5
t84.5 153.5h129q-26 -54 -37 -76.5t-29.5 -55.5t-30 -45t-30.5 -27t-38.5 -21t-46.5 -9z" />
    <glyph glyph-name="uni045D" unicode="&#x45d;" 
d="M346 544l-210 117l60 84l191 -148zM539 490l-68 -490h-94l4 97q-116 -110 -218 -110q-68 0 -99 37t-21 101l51 365h121l-47 -333q-6 -37 3.5 -52t38.5 -15q37 0 72 21t95 73l42 306h120z" />
    <glyph glyph-name="uni045E" unicode="&#x45e;" horiz-adv-x="562" 
d="M394 708h86q-3 -65 -49.5 -106t-121.5 -41q-79 0 -119 41.5t-26 105.5h86q-8 -44 8.5 -64t57.5 -20q36 0 55 20t23 64zM424 490h127q-45 -225 -138 -412q-86 -179 -187 -242.5t-222 -39.5l10 93q132 -25 229 111h-54q-23 0 -39.5 13.5t-21.5 35.5l-88 441h128l63 -384
q2 -16 18 -16h47l13 27q81 162 115 373z" />
    <glyph glyph-name="uni045F" unicode="&#x45f;" 
d="M539 490l-68 -490h-94l4 97q-116 -110 -218 -110q-68 0 -99 37t-21 101l51 365h121l-47 -333q-6 -37 3.5 -52t38.5 -15q37 0 72 21t95 73l42 306h120zM226 -42h80l-18 -195h-102z" />
    <glyph glyph-name="uni0490" unicode="&#x490;" horiz-adv-x="528" 
d="M563 674l-14 -86h-246q-35 0 -50 -13t-21 -52l-73 -523h-125l77 551q10 68 49.5 104.5t101.5 36.5q143 0 210 -5l32 154h85z" />
    <glyph glyph-name="uni0491" unicode="&#x491;" horiz-adv-x="464" 
d="M471 484l-14 -85h-201q-54 0 -62 -54l-48 -345h-120l53 383q16 112 127 112q116 0 174 -3l31 143h83z" />
    <glyph glyph-name="uni04B0" unicode="&#x4b0;" horiz-adv-x="595" 
d="M384 283h118l-10 -72h-143l-30 -211h-126l30 211h-144l10 72h121l-145 407h129l88 -270q9 -31 15 -84l10 3q16 43 38 84l165 267h134z" />
    <glyph glyph-name="uni04B1" unicode="&#x4b1;" horiz-adv-x="597" 
d="M355 87h119l-10 -75h-146l-29 -210h-126l29 210h-141l10 75h118l-144 403h127l88 -270q14 -46 15 -84h10q11 42 38 87l164 267h135z" />
    <glyph glyph-name="uni04B6" unicode="&#x4b6;" horiz-adv-x="682" 
d="M630 85l-11 -85l-22 -151h-96l13 151h-110l44 306q-121 -64 -237 -64q-168 0 -144 166l40 282h125l-35 -261q-8 -44 7.5 -61.5t65.5 -17.5q84 0 192 59l39 281h126l-85 -605h88z" />
    <glyph glyph-name="uni04B7" unicode="&#x4b7;" horiz-adv-x="582" 
d="M515 5l-21 -148h-111l39 143h-102l29 202q-91 -41 -172 -41q-75 -1 -108 28t-25 88l31 213h121l-25 -180q-5 -33 4.5 -43.5t43.5 -10.5q66 0 143 44l27 190h122l-58 -397h73z" />
    <glyph glyph-name="uni04BA" unicode="&#x4ba;" horiz-adv-x="647" 
d="M259 690l-43 -305q120 63 235 63q168 0 144 -166l-39 -282h-126l37 261q6 44 -9 61.5t-65 17.5q-84 0 -191 -59l-40 -281h-126l97 690h126z" />
    <glyph glyph-name="uni04C0" unicode="&#x4c0;" horiz-adv-x="281" 
d="M163 0h-126l97 690h126z" />
    <glyph glyph-name="Wgrave" unicode="&#x1e80;" horiz-adv-x="955" 
d="M602 777l-41 -54l-210 118l60 83zM984 690l-213 -657q-11 -33 -48 -33h-128q-17 0 -29.5 11.5t-13.5 27.5l-21 479q0 9 -1 25t-1.5 29.5t-0.5 25.5h-20q-8 -32 -24 -83l-153 -481q-11 -34 -48 -34h-127q-17 0 -30 11t-14 27l-31 652h127l10 -505q1 -43 0 -94h22
q5 20 29 99l148 463q13 37 50 37h119q18 0 29 -12t12 -30l27 -464q4 -62 3 -93h22q9 38 26 97l149 502h130z" />
    <glyph glyph-name="wgrave" unicode="&#x1e81;" horiz-adv-x="872" 
d="M529 597l-41 -53l-210 117l60 83zM218 90h13q30 0 50 44q20 40 40 125q16 69 34 202q1 13 10.5 21t22.5 8h126q12 0 20 -7.5t10 -19.5l36 -373h11q23 0 42 39q30 55 57 135q28 89 47 226h125q-29 -146 -75 -267q-39 -102 -76 -157q-23 -35 -48.5 -50.5t-66.5 -15.5h-71
q-15 0 -25 9t-12 23l-32 382h-13q-8 -95 -29 -183q-24 -93 -51 -144q-24 -50 -58 -68.5t-81 -18.5h-67q-15 0 -25 9t-12 23l-80 459h126z" />
    <glyph glyph-name="Wacute" unicode="&#x1e82;" horiz-adv-x="955" 
d="M726 834l-226 -111l-33 54l207 149zM984 690l-213 -657q-11 -33 -48 -33h-128q-17 0 -29.5 11.5t-13.5 27.5l-21 479q0 9 -1 25t-1.5 29.5t-0.5 25.5h-20q-8 -32 -24 -83l-153 -481q-11 -34 -48 -34h-127q-17 0 -30 11t-14 27l-31 652h127l10 -505q1 -43 0 -94h22
q5 20 29 99l148 463q13 37 50 37h119q18 0 29 -12t12 -30l27 -464q4 -62 3 -93h22q9 38 26 97l149 502h130z" />
    <glyph glyph-name="wacute" unicode="&#x1e83;" horiz-adv-x="872" 
d="M653 655l-225 -111l-33 54l206 148zM218 90h13q30 0 50 44q20 40 40 125q16 69 34 202q1 13 10.5 21t22.5 8h126q12 0 20 -7.5t10 -19.5l36 -373h11q23 0 42 39q30 55 57 135q28 89 47 226h125q-29 -146 -75 -267q-39 -102 -76 -157q-23 -35 -48.5 -50.5t-66.5 -15.5h-71
q-15 0 -25 9t-12 23l-32 382h-13q-8 -95 -29 -183q-24 -93 -51 -144q-24 -50 -58 -68.5t-81 -18.5h-67q-15 0 -25 9t-12 23l-80 459h126z" />
    <glyph glyph-name="Wdieresis" unicode="&#x1e84;" horiz-adv-x="955" 
d="M623 878h38q18 0 24 -7t4 -23l-10 -57q-3 -29 -31 -29h-42q-30 0 -27 28l10 58q4 30 34 30zM454 878h38q18 0 24 -7t4 -23l-10 -57q-3 -29 -31 -29h-42q-30 0 -27 28l10 58q4 30 34 30zM984 690l-213 -657q-11 -33 -48 -33h-128q-17 0 -29.5 11.5t-13.5 27.5l-21 479
q0 9 -1 25t-1.5 29.5t-0.5 25.5h-20q-8 -32 -24 -83l-153 -481q-11 -34 -48 -34h-127q-17 0 -30 11t-14 27l-31 652h127l10 -505q1 -43 0 -94h22q5 20 29 99l148 463q13 37 50 37h119q18 0 29 -12t12 -30l27 -464q4 -62 3 -93h22q9 38 26 97l149 502h130z" />
    <glyph glyph-name="wdieresis" unicode="&#x1e85;" horiz-adv-x="872" 
d="M550 699h39q17 0 23 -7t4 -23l-9 -58q-3 -28 -32 -28h-42q-29 0 -26 27l9 59q4 30 34 30zM382 699h38q32 0 27 -30l-9 -58q-3 -28 -32 -28h-42q-29 0 -26 27l9 59q5 30 35 30zM218 90h13q30 0 50 44q20 40 40 125q16 69 34 202q1 13 10.5 21t22.5 8h126q12 0 20 -7.5
t10 -19.5l36 -373h11q23 0 42 39q30 55 57 135q28 89 47 226h125q-29 -146 -75 -267q-39 -102 -76 -157q-23 -35 -48.5 -50.5t-66.5 -15.5h-71q-15 0 -25 9t-12 23l-32 382h-13q-8 -95 -29 -183q-24 -93 -51 -144q-24 -50 -58 -68.5t-81 -18.5h-67q-15 0 -25 9t-12 23
l-80 459h126z" />
    <glyph glyph-name="Ygrave" unicode="&#x1ef2;" horiz-adv-x="586" 
d="M374 724l-210 118l60 83l191 -148zM344 232l-32 -232h-126l34 238l-161 452h127l87 -270q13 -38 16 -84h10q9 38 38 87l163 267h136z" />
    <glyph glyph-name="ygrave" unicode="&#x1ef3;" horiz-adv-x="560" 
d="M323 544l-210 117l60 84l191 -148zM422 490h127q-48 -239 -139 -412q-78 -147 -159 -207.5t-195 -74.5l-19 82q65 15 112 40.5t90 81.5h-51q-23 0 -40 13.5t-21 35.5l-89 441h128l63 -384q3 -16 19 -16h46l13 27q81 175 115 373z" />
    <glyph glyph-name="endash" unicode="&#x2013;" horiz-adv-x="574" 
d="M498 211h-446l12 86h446z" />
    <glyph glyph-name="emdash" unicode="&#x2014;" horiz-adv-x="874" 
d="M798 211h-746l12 86h746z" />
    <glyph glyph-name="quoteleft" unicode="&#x2018;" horiz-adv-x="225" 
d="M152 467h-31q-24 0 -33 9.5t-5 31.5l8 58q12 76 66 155l56 -18q-29 -78 -36 -113q19 1 28 -8.5t7 -26.5l-8 -50q-4 -22 -15 -30t-37 -8z" />
    <glyph glyph-name="quoteright" unicode="&#x2019;" horiz-adv-x="223" 
d="M154 711h32q45 0 37 -41l-8 -58q-10 -73 -65 -155l-56 18q26 71 36 114q-20 -1 -28.5 8t-6.5 26l7 51q5 22 15.5 29.5t36.5 7.5z" />
    <glyph glyph-name="quotesinglbase" unicode="&#x201a;" horiz-adv-x="235" 
d="M80 122h32q45 0 37 -42l-8 -58q-10 -74 -65 -154l-56 18q25 67 36 113q-20 -1 -28.5 8.5t-6.5 26.5l7 50q5 22 15.5 30t36.5 8z" />
    <glyph glyph-name="quotedblleft" unicode="&#x201c;" horiz-adv-x="396" 
d="M324 467h-32q-45 0 -37 41l8 58q10 75 65 155l56 -18q-26 -72 -36 -113q20 1 28.5 -8.5t6.5 -26.5l-7 -50q-5 -23 -15.5 -30.5t-36.5 -7.5zM152 467h-31q-24 0 -33 9.5t-5 31.5l8 58q12 76 66 155l56 -18q-29 -78 -36 -113q19 1 28 -8.5t7 -26.5l-8 -50q-4 -22 -15 -30
t-37 -8z" />
    <glyph glyph-name="quotedblright" unicode="&#x201d;" horiz-adv-x="394" 
d="M154 711h32q45 0 37 -41l-8 -58q-10 -73 -65 -155l-56 18q26 71 36 114q-20 -1 -28.5 8t-6.5 26l7 51q5 22 15.5 29.5t36.5 7.5zM326 711h31q24 0 33 -9.5t5 -31.5l-8 -58q-11 -74 -66 -155l-56 18q29 77 36 114q-19 -1 -28 8t-7 26l8 51q5 22 15.5 29.5t36.5 7.5z" />
    <glyph glyph-name="quotedblbase" unicode="&#x201e;" horiz-adv-x="407" 
d="M80 121h32q45 0 37 -41l-8 -59q-10 -74 -65 -154l-56 18q26 72 36 113q-20 -1 -28.5 8.5t-6.5 26.5l7 50q5 22 15.5 30t36.5 8zM252 121h31q24 0 33 -9.5t5 -31.5l-8 -59q-12 -75 -66 -154l-56 18q29 78 36 113q-19 -1 -28 8.5t-7 26.5l8 50q4 22 15 30t37 8z" />
    <glyph glyph-name="dagger" unicode="&#x2020;" horiz-adv-x="461" 
d="M227 -110h-106l80 529l9 66l24 206h106l-35 -206l-10 -66zM454 490l-13 -98l-128 12l12 86h129zM48 392l14 98h129l-12 -86z" />
    <glyph glyph-name="daggerdbl" unicode="&#x2021;" horiz-adv-x="498" 
d="M324 489l-56 -397l-23 -202h-106l34 202l56 397l23 202h106zM197 404l-131 -12l14 98h129zM459 392l-128 12l13 86h129zM417 91h-129l12 86l130 12zM165 177l-11 -86h-129l13 98z" />
    <glyph glyph-name="bullet" unicode="&#x2022;" horiz-adv-x="367" 
d="M186 371h14q53 0 72 -22.5t12 -74.5l-2 -13q-8 -57 -30 -77t-75 -20h-15q-55 0 -74 23t-12 78l2 14q8 54 30 73t78 19z" />
    <glyph glyph-name="ellipsis" unicode="&#x2026;" horiz-adv-x="875" 
d="M64 137h35q47 0 41 -45l-7 -51q-6 -41 -46 -41h-36q-48 0 -41 46l7 51q6 40 47 40zM384 137h35q47 0 41 -45l-7 -51q-6 -41 -46 -41h-36q-48 0 -41 46l7 51q6 40 47 40zM704 137h35q47 0 41 -45l-7 -51q-6 -41 -46 -41h-36q-48 0 -41 46l7 51q6 40 47 40z" />
    <glyph glyph-name="perthousand" unicode="&#x2030;" horiz-adv-x="1283" 
d="M253 703q95 0 128 -48t17 -162q-16 -112 -57 -156t-131 -44q-94 0 -127 48t-17 162q17 112 57.5 156t129.5 44zM239 0h-88l524 690h89zM255 631q-50 0 -68.5 -27.5t-30.5 -110.5q-11 -75 -0.5 -101.5t52.5 -26.5q52 0 70.5 27.5t30.5 110.5q11 75 -0.5 101.5t-53.5 26.5z
M705 399q95 0 128 -48t17 -162q-16 -112 -57 -156t-132 -44q-93 0 -126 48t-17 161q17 112 57.5 156.5t129.5 44.5zM1084 399q95 0 128.5 -48t17.5 -162q-17 -112 -58 -156t-131 -44q-94 0 -126.5 48t-16.5 161q16 112 56.5 156.5t129.5 44.5zM707 327q-50 0 -69 -28
t-30 -110q-11 -76 -0.5 -102.5t52.5 -26.5q52 0 70.5 27.5t30.5 110.5q11 75 0 102t-54 27zM1087 327q-51 0 -69.5 -28t-30.5 -110q-11 -76 0 -102.5t52 -26.5q52 0 71 28t30 110q11 75 0 102t-53 27z" />
    <glyph glyph-name="guilsinglleft" unicode="&#x2039;" horiz-adv-x="300" 
d="M268 419l-136 -168l98 -176l-60 -40l-138 208l2 26l182 193z" />
    <glyph glyph-name="guilsinglright" unicode="&#x203a;" horiz-adv-x="301" 
d="M256 255l-2 -27l-182 -193l-52 44l136 168l-98 175l60 40z" />
    <glyph glyph-name="fraction" unicode="&#x2044;" horiz-adv-x="160" 
d="M-127 0h-91l519 690h90z" />
    <glyph glyph-name="Euro" unicode="&#x20ac;" horiz-adv-x="632" 
d="M627 679l-18 -94q-68 12 -162 7q-69 -4 -108.5 -37.5t-60.5 -104.5h236l-18 -69h-234l-7 -40q-1 -4 -2 -10.5t-1 -9.5h212l-18 -69h-199q-1 -78 26.5 -115t91.5 -40q97 -5 185 11l4 -95q-77 -25 -183 -25q-132 0 -193.5 65.5t-59.5 198.5h-81l11 69h74l4 29q1 12 5 31
h-75l10 69h79q34 130 107 191t205 61q94 0 170 -23z" />
    <glyph glyph-name="trademark" unicode="&#x2122;" horiz-adv-x="968" 
d="M827 696h85q15 0 23 -9.5t6 -24.5l-34 -346h-78l30 315h-11l-103 -239q-10 -25 -35 -25h-56q-30 0 -32 29l-39 235h-12l-56 -315h-78l63 351q3 16 9.5 22.5t21.5 6.5h82q29 0 31 -29l32 -191q1 -9 2.5 -28t2.5 -28h10q7 30 17 55l85 197q10 24 34 24zM314 627l-44 -311
h-85l44 311h-124l9 69h333l-8 -69h-125z" />
    <glyph glyph-name="partialdiff" unicode="&#x2202;" horiz-adv-x="573" 
d="M167 614l5 89q63 1 111 -2.5t91.5 -14t73 -29t51.5 -47t31.5 -67.5t9 -91.5t-12.5 -118.5q-33 -177 -104 -261t-196 -84q-120 0 -165.5 74t-25.5 175q17 94 76.5 155.5t156.5 60.5q95 -2 144 -65q11 53 8.5 91.5t-14 64.5t-43 41.5t-78 22t-119.5 6.5zM233 92
q70 0 107 57.5t61 173.5q-47 32 -104 32q-116 0 -143 -129q-25 -134 79 -134z" />
    <glyph glyph-name="emptyset" unicode="&#x2205;" horiz-adv-x="685" 
d="M350 633q121 0 206.5 -85.5t85.5 -206.5t-85.5 -207t-206.5 -86q-122 0 -207.5 86t-85.5 207t86 206.5t207 85.5zM319 241h54q0 35 14.5 64.5t32.5 46.5t32.5 43.5t14.5 56.5q0 93 -117 93q-50 0 -122 -11l3 -45q60 9 119 9q66 0 66 -46q0 -21 -15 -44.5t-33.5 -42.5
t-33.5 -52t-15 -72zM366 171h-39q-7 0 -7 -8v-37q0 -7 7 -7h39q8 0 8 7v37q0 8 -8 8z" />
    <glyph glyph-name="product" unicode="&#x220f;" horiz-adv-x="715" 
d="M722 592h-94l-97 -692h-121l98 692h-219l-97 -692h-121l97 692h-94l14 98h649z" />
    <glyph glyph-name="summation" unicode="&#x2211;" horiz-adv-x="592" 
d="M580 593h-351l119 -255l-213 -366h368l-14 -97h-504l13 97l219 368l-118 253l13 97h482z" />
    <glyph glyph-name="minus" unicode="&#x2212;" horiz-adv-x="582" 
d="M509 250h-450l14 89h450z" />
    <glyph glyph-name="radical" unicode="&#x221a;" horiz-adv-x="571" 
d="M637 876l-363 -870q-2 -6 -10 -6h-141q-5 0 -10 3t-4 7l-59 480h97l48 -411h13l327 797h102z" />
    <glyph glyph-name="infinity" unicode="&#x221e;" horiz-adv-x="771" 
d="M593 450q63 0 100.5 -37.5t28.5 -107.5q-10 -70 -58 -108.5t-113 -38.5q-94 0 -166 88q-110 -88 -195 -88q-67 0 -107.5 41.5t-29.5 114.5q9 68 53.5 102t109.5 34q55 0 94.5 -24.5t76.5 -68.5q112 93 206 93zM150 303q-9 -61 59 -61q25 0 49 12t37.5 23t40.5 36
q-21 27 -43 40t-59 13q-75 0 -84 -63zM623 310q7 56 -53 56q-14 0 -28 -4t-23 -7.5t-23 -14t-19 -14.5t-20 -18.5t-18 -16.5q37 -49 96 -49q36 0 60 17.5t28 50.5z" />
    <glyph glyph-name="integral" unicode="&#x222b;" horiz-adv-x="360" 
d="M100 -61l45 644q5 65 38.5 98t90.5 33q73 0 114 -4l-16 -87h-60q-58 0 -65 -67l-44 -647q-5 -69 -35.5 -100t-99.5 -31q-81 0 -109 4l17 87h57q63 0 67 70z" />
    <glyph glyph-name="approxequal" unicode="&#x2248;" horiz-adv-x="583" 
d="M151 316l-76 5q-3 72 29.5 105t88.5 30q33 -2 109 -27t103 -26q26 -1 36.5 10t15.5 41l78 -5q3 -68 -27.5 -102t-92.5 -32q-36 1 -111 26.5t-101 26.5q-25 1 -36 -10.5t-16 -41.5zM124 123l-77 5q-3 72 29.5 105t89.5 31q33 -2 109 -27.5t103 -26.5q26 -1 36.5 10
t15.5 40l78 -5q3 -68 -27.5 -101.5t-92.5 -31.5q-36 1 -111 26.5t-101 26.5q-25 1 -36 -10.5t-16 -41.5z" />
    <glyph glyph-name="notequal" unicode="&#x2260;" horiz-adv-x="612" 
d="M367 356l-91 -122h247l-13 -89h-300l-92 -124l-32 16l81 108h-107l13 89h160l91 122h-235l13 89h288l82 110l32 -16l-71 -94h119l-13 -89h-172z" />
    <glyph glyph-name="lessequal" unicode="&#x2264;" horiz-adv-x="556" 
d="M510 455l-325 -85l303 -81l-14 -93l-400 127l13 95l437 133zM461 63h-435l13 90h435z" />
    <glyph glyph-name="greaterequal" unicode="&#x2265;" horiz-adv-x="555" 
d="M505 418l-14 -95l-436 -127l15 100l324 81l-301 83l12 91zM466 63h-435l12 90h436z" />
    <glyph glyph-name="lozenge" unicode="&#x25ca;" horiz-adv-x="568" 
d="M36 358l294 334q9 10 16 -4l200 -335q6 -11 2 -19l-294 -337q-10 -11 -16 5l-202 337q-5 11 0 19zM131 345l128 -224l196 228l-129 222z" />
    <glyph glyph-name="fi" unicode="&#xfb01;" horiz-adv-x="637" 
d="M596 490l-69 -490h-122l56 402h-214l-65 -452q-21 -146 -166 -146q-58 0 -130 9l20 86h71q43 0 61.5 14t25.5 56l61 433h-87l11 83l89 5l10 71q11 79 50 118.5t118 39.5q72 0 127 -9l-12 -86h-76q-41 0 -61.5 -19t-27.5 -64l-7 -51h337zM533 704h56q17 0 26 -10t7 -27
l-7 -55q-3 -17 -11.5 -24.5t-25.5 -7.5h-56q-39 0 -33 37l8 54q3 33 36 33z" />
    <glyph glyph-name="fl" unicode="&#xfb02;" horiz-adv-x="694" 
d="M647 84l6 -79q-33 -16 -102 -16q-63 0 -95.5 33.5t-24.5 91.5l72 511h-148q-41 1 -61.5 -18.5t-27.5 -65.5l-7 -51h133l-12 -88h-134l-63 -452q-21 -146 -167 -146q-57 0 -129 9l19 86h71q44 0 62 14t25 56l61 433h-87l11 83l88 5l10 71q12 79 51.5 119t117.5 39
q225 0 317 -16l-77 -565q-3 -29 7.5 -41.5t39.5 -12.5h44z" />
    <glyph glyph-name="brevecy" horiz-adv-x="384" 
d="M327 698h87q-3 -65 -49.5 -106t-121.5 -41q-79 0 -119.5 41.5t-25.5 105.5h85q-7 -44 9 -64t57 -20q71 0 78 84z" />
    </font>
</defs>
</svg>
